<mxfile host="Electron" modified="2023-04-29T23:47:58.910Z" agent="Mozilla/5.0 (X11; Linux x86_64) AppleWebKit/537.36 (KHTML, like Gecko) draw.io/21.2.1 Chrome/112.0.5615.87 Electron/24.1.2 Safari/537.36" etag="0bl4mRakshrhORxVnLCD" version="21.2.1" type="device">
  <diagram name="Page-1" id="El1-FDBKulRZ9gUbndDf">
    <mxGraphModel dx="1401" dy="749" grid="1" gridSize="10" guides="1" tooltips="1" connect="1" arrows="1" fold="1" page="1" pageScale="1" pageWidth="827" pageHeight="1169" math="0" shadow="0">
      <root>
        <mxCell id="0" />
        <mxCell id="1" parent="0" />
        <mxCell id="orepud_O_PoNEBfCmb7f-1" value="" style="shape=folder;fontStyle=1;spacingTop=10;tabWidth=100;tabHeight=30;tabPosition=left;html=1;whiteSpace=wrap;" parent="1" vertex="1">
          <mxGeometry x="20" y="21" width="1210" height="1409" as="geometry" />
        </mxCell>
        <mxCell id="orepud_O_PoNEBfCmb7f-2" value="InterfaceDeJeu" style="swimlane;fontStyle=1;align=center;verticalAlign=top;childLayout=stackLayout;horizontal=1;startSize=26;horizontalStack=0;resizeParent=1;resizeParentMax=0;resizeLast=0;collapsible=1;marginBottom=0;whiteSpace=wrap;html=1;" parent="1" vertex="1">
          <mxGeometry x="51" y="70" width="330" height="540" as="geometry" />
        </mxCell>
        <mxCell id="orepud_O_PoNEBfCmb7f-3" value="&lt;div style=&quot;color: rgb(171, 178, 191); font-weight: normal; line-height: 120%;&quot;&gt;&lt;div style=&quot;line-height: 120%;&quot;&gt;&lt;font style=&quot;font-size: 12px;&quot; face=&quot;Garamond&quot;&gt;&lt;span style=&quot;background-color: rgb(255, 255, 255);&quot;&gt; + &lt;span style=&quot;color: #e06c75;&quot;&gt;t&lt;/span&gt; : final Thread&lt;br&gt;&lt;/span&gt;&lt;/font&gt;&lt;/div&gt;&lt;div style=&quot;line-height: 120%;&quot;&gt;&lt;font style=&quot;font-size: 12px;&quot; face=&quot;Garamond&quot;&gt;&lt;span style=&quot;background-color: rgb(255, 255, 255);&quot;&gt;&lt;span style=&quot;color: #e06c75;&quot;&gt;    &lt;/span&gt;&lt;span style=&quot;color: #c678dd;&quot;&gt;+ &lt;/span&gt;&lt;u&gt;&lt;span style=&quot;color: #e06c75;&quot;&gt;threadName&lt;/span&gt;&lt;/u&gt;&lt;span style=&quot;color: #e06c75;&quot;&gt; : final int&lt;/span&gt;&lt;/span&gt;&lt;/font&gt;&lt;/div&gt;&lt;font style=&quot;font-size: 12px;&quot; face=&quot;Garamond&quot;&gt;&lt;span style=&quot;background-color: rgb(255, 255, 255);&quot;&gt;&lt;/span&gt;&lt;/font&gt;&lt;div style=&quot;line-height: 120%;&quot;&gt;&lt;font style=&quot;font-size: 12px;&quot; face=&quot;Garamond&quot;&gt;&lt;span style=&quot;background-color: rgb(255, 255, 255);&quot;&gt;&lt;span style=&quot;color: #e06c75;&quot;&gt;    &lt;/span&gt;&lt;span style=&quot;color: #c678dd;&quot;&gt;/ &lt;/span&gt;&lt;span style=&quot;color: #e06c75;&quot;&gt;&lt;u&gt;TABLEAU_DE_BORD_RATIO&lt;/u&gt; &lt;/span&gt;&lt;span style=&quot;color: #e06c75;&quot;&gt;&lt;/span&gt;: final int&lt;br&gt;&lt;/span&gt;&lt;/font&gt;&lt;/div&gt;&lt;font style=&quot;font-size: 12px;&quot; face=&quot;Garamond&quot;&gt;&lt;span style=&quot;background-color: rgb(255, 255, 255);&quot;&gt;&lt;/span&gt;&lt;/font&gt;&lt;div style=&quot;line-height: 120%;&quot;&gt;&lt;font style=&quot;font-size: 12px;&quot; face=&quot;Garamond&quot;&gt;&lt;span style=&quot;background-color: rgb(255, 255, 255);&quot;&gt;&lt;span style=&quot;color: #e06c75;&quot;&gt;    &lt;/span&gt;&lt;span style=&quot;color: #c678dd;&quot;&gt;/&lt;/span&gt;&lt;span style=&quot;color: #e06c75;&quot;&gt; &lt;/span&gt;&lt;span style=&quot;color: #e06c75;&quot;&gt;model&lt;/span&gt;: Jeu&lt;br&gt;&lt;/span&gt;&lt;/font&gt;&lt;/div&gt;&lt;div style=&quot;line-height: 120%;&quot;&gt;&lt;font style=&quot;font-size: 12px;&quot; face=&quot;Garamond&quot;&gt;&lt;span style=&quot;background-color: rgb(255, 255, 255);&quot;&gt;&lt;span style=&quot;color: #e06c75;&quot;&gt;    &lt;/span&gt;&lt;span style=&quot;color: #c678dd;&quot;&gt;/ &lt;/span&gt;&lt;span style=&quot;color: #e06c75;&quot;&gt;&lt;/span&gt;&lt;span style=&quot;color: #e06c75;&quot;&gt;indexChoisi : int&lt;/span&gt;&lt;span style=&quot;color: #abb2bf;&quot;&gt;&lt;/span&gt;&lt;/span&gt;&lt;/font&gt;&lt;/div&gt;&lt;div style=&quot;line-height: 120%;&quot;&gt;&lt;font style=&quot;font-size: 12px;&quot; face=&quot;Garamond&quot;&gt;&lt;span style=&quot;background-color: rgb(255, 255, 255);&quot;&gt;&lt;span style=&quot;color: #e06c75;&quot;&gt;    &lt;/span&gt;&lt;span style=&quot;color: #c678dd;&quot;&gt;/ &lt;/span&gt;&lt;span style=&quot;color: #e06c75;&quot;&gt;locationsPossibles&lt;/span&gt; : ArrayList&amp;lt;Coordonnee&amp;gt;&lt;br&gt;&lt;/span&gt;&lt;/font&gt;&lt;/div&gt;&lt;font style=&quot;font-size: 12px;&quot; face=&quot;Garamond&quot;&gt;&lt;span style=&quot;background-color: rgb(255, 255, 255);&quot;&gt;&lt;/span&gt;&lt;/font&gt;&lt;div style=&quot;line-height: 120%;&quot;&gt;&lt;font style=&quot;font-size: 12px;&quot; face=&quot;Garamond&quot;&gt;&lt;span style=&quot;background-color: rgb(255, 255, 255);&quot;&gt;&lt;span style=&quot;color: #e06c75;&quot;&gt;    &lt;/span&gt;&lt;span style=&quot;color: #c678dd;&quot;&gt;/&lt;/span&gt;&lt;span style=&quot;color: #c678dd;&quot;&gt;&lt;/span&gt;&lt;span style=&quot;color: #e06c75;&quot;&gt; &lt;/span&gt;&lt;u&gt;&lt;span style=&quot;color: #e06c75;&quot;&gt;nbJoueurs&lt;/span&gt;&lt;/u&gt; : int&lt;span style=&quot;color: #abb2bf;&quot;&gt;&lt;/span&gt;&lt;/span&gt;&lt;/font&gt;&lt;/div&gt;&lt;div style=&quot;line-height: 120%;&quot;&gt;&lt;font style=&quot;font-size: 12px;&quot; face=&quot;Garamond&quot;&gt;&lt;span style=&quot;background-color: rgb(255, 255, 255);&quot;&gt;&lt;span style=&quot;color: #e06c75;&quot;&gt;    &lt;/span&gt;&lt;span style=&quot;color: #c678dd;&quot;&gt;/ &lt;/span&gt;&lt;span style=&quot;color: #e06c75;&quot;&gt;&lt;/span&gt;&lt;u&gt;&lt;span style=&quot;color: #e06c75;&quot;&gt;nb_joueurs_ia&lt;/span&gt;&lt;/u&gt; : int&lt;span style=&quot;color: #abb2bf;&quot;&gt;&lt;/span&gt;&lt;/span&gt;&lt;/font&gt;&lt;/div&gt;&lt;div style=&quot;line-height: 120%;&quot;&gt;&lt;font style=&quot;font-size: 12px;&quot; face=&quot;Garamond&quot;&gt;&lt;span style=&quot;background-color: rgb(255, 255, 255);&quot;&gt;&lt;span style=&quot;color: #e06c75;&quot;&gt;    &lt;/span&gt;&lt;span style=&quot;color: #c678dd;&quot;&gt;/&lt;/span&gt;&lt;span style=&quot;color: #e06c75;&quot;&gt; &lt;/span&gt;&lt;span style=&quot;color: #e06c75;&quot;&gt;gridTuile&lt;/span&gt; : GridTuile&lt;br&gt;&lt;/span&gt;&lt;/font&gt;&lt;/div&gt;&lt;div style=&quot;line-height: 120%;&quot;&gt;&lt;font style=&quot;font-size: 12px;&quot; face=&quot;Garamond&quot;&gt;&lt;span style=&quot;background-color: rgb(255, 255, 255);&quot;&gt;&lt;span style=&quot;color: #e06c75;&quot;&gt;    &lt;/span&gt;&lt;span style=&quot;color: #c678dd;&quot;&gt;/ &lt;/span&gt;&lt;span style=&quot;color: #e06c75;&quot;&gt;tableauDeBord&lt;/span&gt; : TableauDeBord&lt;br&gt;&lt;/span&gt;&lt;/font&gt;&lt;/div&gt;&lt;div style=&quot;line-height: 120%;&quot;&gt;&lt;font style=&quot;font-size: 12px;&quot; face=&quot;Garamond&quot;&gt;&lt;span style=&quot;background-color: rgb(255, 255, 255);&quot;&gt;&lt;span style=&quot;color: #e06c75;&quot;&gt;    &lt;/span&gt;&lt;span style=&quot;color: #c678dd;&quot;&gt;/&lt;/span&gt;&lt;span style=&quot;color: #e06c75;&quot;&gt; &lt;/span&gt;&lt;u&gt;&lt;span style=&quot;color: #e06c75;&quot;&gt;scrollPane&lt;/span&gt;&lt;/u&gt; : JScrollPane&lt;br&gt;&lt;/span&gt;&lt;/font&gt;&lt;/div&gt;&lt;/div&gt;" style="text;strokeColor=none;fillColor=none;align=left;verticalAlign=top;spacingLeft=4;spacingRight=4;overflow=hidden;rotatable=0;points=[[0,0.5],[1,0.5]];portConstraint=eastwest;whiteSpace=wrap;html=1;" parent="orepud_O_PoNEBfCmb7f-2" vertex="1">
          <mxGeometry y="26" width="330" height="164" as="geometry" />
        </mxCell>
        <mxCell id="orepud_O_PoNEBfCmb7f-4" value="" style="line;strokeWidth=1;fillColor=none;align=left;verticalAlign=middle;spacingTop=-1;spacingLeft=3;spacingRight=3;rotatable=0;labelPosition=right;points=[];portConstraint=eastwest;strokeColor=inherit;" parent="orepud_O_PoNEBfCmb7f-2" vertex="1">
          <mxGeometry y="190" width="330" height="8" as="geometry" />
        </mxCell>
        <mxCell id="orepud_O_PoNEBfCmb7f-5" value="&lt;div style=&quot;&quot;&gt;&lt;font style=&quot;font-size: 12px;&quot; color=&quot;#CDA2BE&quot;&gt;+ &lt;font style=&quot;font-size: 12px;&quot; color=&quot;#E06C75&quot;&gt;creerPlateau() &lt;font style=&quot;font-size: 12px;&quot; color=&quot;#ABB2BF&quot;&gt;: void&lt;/font&gt;&lt;/font&gt;&lt;font style=&quot;font-size: 12px;&quot; color=&quot;#ABB2BF&quot;&gt;&lt;br&gt;&lt;/font&gt;&lt;/font&gt;&lt;/div&gt;&lt;div style=&quot;&quot;&gt;&lt;font style=&quot;font-size: 12px;&quot; color=&quot;#CDA2BE&quot;&gt;+ &lt;font style=&quot;font-size: 12px;&quot; color=&quot;#E06C75&quot;&gt;jouer() &lt;font style=&quot;font-size: 12px;&quot; color=&quot;#ABB2BF&quot;&gt;: void&lt;/font&gt;&lt;/font&gt;&lt;/font&gt;&lt;/div&gt;&lt;div style=&quot;&quot;&gt;&lt;font style=&quot;font-size: 12px;&quot; color=&quot;#CDA2BE&quot;&gt;+ &lt;font style=&quot;font-size: 12px;&quot; color=&quot;#E06C75&quot;&gt;afficheGagnants(int) &lt;font style=&quot;font-size: 12px;&quot; color=&quot;#ABB2BF&quot;&gt;: String&lt;/font&gt;&lt;/font&gt;&lt;/font&gt;&lt;/div&gt;&lt;div style=&quot;&quot;&gt;&lt;font style=&quot;font-size: 12px;&quot;&gt;&lt;font style=&quot;font-size: 12px;&quot; color=&quot;#CDA2BE&quot;&gt;+ &lt;font style=&quot;font-size: 12px;&quot; color=&quot;#E06C75&quot;&gt;gameOver()&lt;font style=&quot;font-size: 12px;&quot; color=&quot;#ABB2BF&quot;&gt; : void&lt;/font&gt;&lt;/font&gt;&lt;/font&gt;&lt;br&gt;&lt;/font&gt;&lt;/div&gt;&lt;div style=&quot;&quot;&gt;&lt;font style=&quot;font-size: 12px;&quot;&gt;&lt;font style=&quot;font-size: 12px;&quot; color=&quot;#cda2be&quot;&gt;+ &lt;/font&gt;&lt;font style=&quot;font-size: 12px;&quot; color=&quot;#e06c75&quot;&gt;drawPossibleActionDestinations(ArrayList&amp;lt;Action&amp;gt;) &lt;/font&gt;&lt;font style=&quot;font-size: 12px;&quot; color=&quot;#abb2bf&quot;&gt;: void&lt;/font&gt;&lt;/font&gt;&lt;/div&gt;&lt;div style=&quot;&quot;&gt;&lt;font style=&quot;font-size: 12px;&quot;&gt;&lt;font style=&quot;font-size: 12px;&quot; color=&quot;#cda2be&quot;&gt;+ &lt;/font&gt;&lt;font style=&quot;font-size: 12px;&quot; color=&quot;#e06c75&quot;&gt;lancer() &lt;/font&gt;&lt;font style=&quot;font-size: 12px;&quot; color=&quot;#abb2bf&quot;&gt;: void&lt;/font&gt;&lt;/font&gt;&lt;/div&gt;&lt;div style=&quot;&quot;&gt;&lt;font style=&quot;font-size: 12px;&quot;&gt;&lt;font style=&quot;font-size: 12px;&quot; color=&quot;#cda2be&quot;&gt;+ &lt;/font&gt;&lt;font style=&quot;font-size: 12px;&quot; color=&quot;#e06c75&quot;&gt;afficherInstruction(String)&lt;/font&gt;&lt;font style=&quot;font-size: 12px;&quot; color=&quot;#abb2bf&quot;&gt;&amp;nbsp;: void&lt;/font&gt;&lt;/font&gt;&lt;/div&gt;&lt;div style=&quot;&quot;&gt;&lt;font style=&quot;font-size: 12px;&quot;&gt;&lt;font style=&quot;font-size: 12px;&quot; color=&quot;#cda2be&quot;&gt;+ &lt;/font&gt;&lt;font style=&quot;font-size: 12px;&quot; color=&quot;#e06c75&quot;&gt;afficherPossibleTuilePosition()&lt;/font&gt;&lt;font style=&quot;font-size: 12px;&quot; color=&quot;#abb2bf&quot;&gt;&amp;nbsp;: ArrayList&amp;lt;Coordonnee&amp;gt;&lt;/font&gt;&lt;/font&gt;&lt;/div&gt;&lt;div style=&quot;&quot;&gt;&lt;font style=&quot;font-size: 12px;&quot;&gt;&lt;font style=&quot;font-size: 12px;&quot; color=&quot;#cda2be&quot;&gt;+ &lt;/font&gt;&lt;font style=&quot;font-size: 12px;&quot; color=&quot;#e06c75&quot;&gt;afficherPossibleDestination() &lt;/font&gt;&lt;font style=&quot;font-size: 12px;&quot; color=&quot;#abb2bf&quot;&gt;: ArrayList&amp;lt;Coordonnee&amp;gt;&lt;/font&gt;&lt;/font&gt;&lt;/div&gt;&lt;div style=&quot;&quot;&gt;&lt;font style=&quot;font-size: 12px;&quot;&gt;&lt;font style=&quot;font-size: 12px;&quot; color=&quot;#cda2be&quot;&gt;+ &lt;/font&gt;&lt;font style=&quot;font-size: 12px;&quot; color=&quot;#e06c75&quot;&gt;glisserTuile(Tuile, int, int)&lt;/font&gt;&lt;font style=&quot;font-size: 12px;&quot; color=&quot;#abb2bf&quot;&gt;&amp;nbsp;: void&lt;/font&gt;&lt;/font&gt;&lt;/div&gt;&lt;div style=&quot;&quot;&gt;&lt;font style=&quot;font-size: 12px;&quot;&gt;&lt;font style=&quot;font-size: 12px;&quot; color=&quot;#cda2be&quot;&gt;+ &lt;/font&gt;&lt;font style=&quot;font-size: 12px;&quot; color=&quot;#e06c75&quot;&gt;keyTyped(KeyEvent) &lt;/font&gt;&lt;font style=&quot;font-size: 12px;&quot; color=&quot;#abb2bf&quot;&gt;: void&lt;/font&gt;&lt;/font&gt;&lt;/div&gt;&lt;div style=&quot;&quot;&gt;&lt;font style=&quot;font-size: 12px;&quot;&gt;&lt;font style=&quot;font-size: 12px;&quot; color=&quot;#cda2be&quot;&gt;+ &lt;/font&gt;&lt;font style=&quot;font-size: 12px;&quot; color=&quot;#e06c75&quot;&gt;keyPressed(KeyEvent)&amp;nbsp;&lt;/font&gt;&lt;font style=&quot;font-size: 12px;&quot; color=&quot;#abb2bf&quot;&gt;&amp;nbsp;: void&lt;/font&gt;&lt;/font&gt;&lt;/div&gt;&lt;div style=&quot;&quot;&gt;&lt;font style=&quot;font-size: 12px;&quot;&gt;&lt;font style=&quot;font-size: 12px;&quot; color=&quot;#cda2be&quot;&gt;+ &lt;/font&gt;&lt;font style=&quot;font-size: 12px;&quot; color=&quot;#e06c75&quot;&gt;keyReleased(KeyEvent) &lt;/font&gt;&lt;font style=&quot;font-size: 12px;&quot; color=&quot;#abb2bf&quot;&gt;: void&lt;/font&gt;&lt;/font&gt;&lt;/div&gt;&lt;div style=&quot;&quot;&gt;&lt;font style=&quot;font-size: 12px;&quot;&gt;&lt;font style=&quot;font-size: 12px;&quot; color=&quot;#cda2be&quot;&gt;+ &lt;/font&gt;&lt;font style=&quot;font-size: 12px;&quot; color=&quot;#e06c75&quot;&gt;run()&lt;/font&gt;&lt;font style=&quot;font-size: 12px;&quot; color=&quot;#abb2bf&quot;&gt;&amp;nbsp;: void&lt;/font&gt;&lt;/font&gt;&lt;/div&gt;&lt;div style=&quot;&quot;&gt;&lt;font style=&quot;font-size: 12px;&quot;&gt;&lt;font style=&quot;font-size: 12px;&quot; color=&quot;#cda2be&quot;&gt;+ &lt;/font&gt;&lt;font style=&quot;font-size: 12px;&quot; color=&quot;#e06c75&quot;&gt;start()&lt;/font&gt;&lt;font style=&quot;font-size: 12px;&quot; color=&quot;#abb2bf&quot;&gt;&amp;nbsp;: void&lt;/font&gt;&lt;/font&gt;&lt;/div&gt;" style="text;strokeColor=none;fillColor=none;align=left;verticalAlign=top;spacingLeft=4;spacingRight=4;overflow=hidden;rotatable=0;points=[[0,0.5],[1,0.5]];portConstraint=eastwest;whiteSpace=wrap;html=1;" parent="orepud_O_PoNEBfCmb7f-2" vertex="1">
          <mxGeometry y="198" width="330" height="232" as="geometry" />
        </mxCell>
        <mxCell id="T5wfUOfI6vKbs9WQwN0E-6" value="CustomScrollBarUI" style="swimlane;fontStyle=1;align=center;verticalAlign=top;childLayout=stackLayout;horizontal=1;startSize=26;horizontalStack=0;resizeParent=1;resizeParentMax=0;resizeLast=0;collapsible=1;marginBottom=0;whiteSpace=wrap;html=1;" parent="orepud_O_PoNEBfCmb7f-2" vertex="1">
          <mxGeometry y="430" width="330" height="110" as="geometry" />
        </mxCell>
        <mxCell id="T5wfUOfI6vKbs9WQwN0E-8" value="" style="line;strokeWidth=1;fillColor=none;align=left;verticalAlign=middle;spacingTop=-1;spacingLeft=3;spacingRight=3;rotatable=0;labelPosition=right;points=[];portConstraint=eastwest;strokeColor=inherit;" parent="T5wfUOfI6vKbs9WQwN0E-6" vertex="1">
          <mxGeometry y="26" width="330" height="8" as="geometry" />
        </mxCell>
        <mxCell id="T5wfUOfI6vKbs9WQwN0E-9" value="&lt;font color=&quot;#cda2be&quot;&gt;/ &lt;/font&gt;&lt;font color=&quot;#e06c75&quot;&gt;configureScrollBarColors() &lt;/font&gt;&lt;font color=&quot;#abb2bf&quot;&gt;: void&lt;/font&gt;&lt;br&gt;&lt;font color=&quot;#cda2be&quot;&gt;/ &lt;/font&gt;&lt;font color=&quot;#e06c75&quot;&gt;createDecreaseButton(int) &lt;/font&gt;&lt;font color=&quot;#abb2bf&quot;&gt;: JButton&lt;/font&gt;&lt;br&gt;&lt;font color=&quot;#cda2be&quot;&gt;/ &lt;/font&gt;&lt;font color=&quot;#e06c75&quot;&gt;createIncreaseButton(int)&lt;/font&gt;&lt;font color=&quot;#abb2bf&quot;&gt;&amp;nbsp;: JButton&lt;/font&gt;" style="text;strokeColor=none;fillColor=none;align=left;verticalAlign=top;spacingLeft=4;spacingRight=4;overflow=hidden;rotatable=0;points=[[0,0.5],[1,0.5]];portConstraint=eastwest;whiteSpace=wrap;html=1;" parent="T5wfUOfI6vKbs9WQwN0E-6" vertex="1">
          <mxGeometry y="34" width="330" height="76" as="geometry" />
        </mxCell>
        <mxCell id="T5wfUOfI6vKbs9WQwN0E-10" value="GridTuile" style="swimlane;fontStyle=1;align=center;verticalAlign=top;childLayout=stackLayout;horizontal=1;startSize=26;horizontalStack=0;resizeParent=1;resizeParentMax=0;resizeLast=0;collapsible=1;marginBottom=0;whiteSpace=wrap;html=1;" parent="1" vertex="1">
          <mxGeometry x="420" y="70" width="376" height="584" as="geometry" />
        </mxCell>
        <mxCell id="T5wfUOfI6vKbs9WQwN0E-11" value="&lt;font style=&quot;border-color: var(--border-color);&quot; color=&quot;#cda2be&quot;&gt;/&amp;nbsp;&lt;/font&gt;&lt;font style=&quot;border-color: var(--border-color);&quot; color=&quot;#e06c75&quot;&gt;model&amp;nbsp;&lt;/font&gt;&lt;font style=&quot;border-color: var(--border-color);&quot; color=&quot;#abb2bf&quot;&gt;: Jeu&lt;/font&gt;&lt;font style=&quot;border-color: var(--border-color);&quot; color=&quot;#cda2be&quot;&gt;&amp;nbsp;&lt;br style=&quot;border-color: var(--border-color);&quot;&gt;/&amp;nbsp;&lt;/font&gt;&lt;font style=&quot;border-color: var(--border-color);&quot; color=&quot;#e06c75&quot;&gt;&lt;u style=&quot;border-color: var(--border-color);&quot;&gt;screen&lt;/u&gt;&lt;/font&gt;&lt;font style=&quot;border-color: var(--border-color);&quot; color=&quot;#abb2bf&quot;&gt;&amp;nbsp;: Dimension&lt;/font&gt;&lt;br style=&quot;border-color: var(--border-color);&quot;&gt;&lt;font style=&quot;border-color: var(--border-color);&quot; color=&quot;#cda2be&quot;&gt;/&amp;nbsp;&lt;/font&gt;&lt;font style=&quot;border-color: var(--border-color);&quot; color=&quot;#e06c75&quot;&gt;&lt;u style=&quot;border-color: var(--border-color);&quot;&gt;dx&lt;/u&gt;&amp;nbsp;&lt;/font&gt;&lt;font style=&quot;border-color: var(--border-color);&quot; color=&quot;#abb2bf&quot;&gt;: int&lt;/font&gt;&lt;br style=&quot;border-color: var(--border-color);&quot;&gt;&lt;font style=&quot;border-color: var(--border-color);&quot; color=&quot;#cda2be&quot;&gt;/&amp;nbsp;&lt;/font&gt;&lt;font style=&quot;border-color: var(--border-color);&quot; color=&quot;#e06c75&quot;&gt;&lt;u style=&quot;border-color: var(--border-color);&quot;&gt;dy&lt;/u&gt;&amp;nbsp;&lt;/font&gt;&lt;font style=&quot;border-color: var(--border-color);&quot; color=&quot;#abb2bf&quot;&gt;: int&lt;/font&gt;&lt;br style=&quot;border-color: var(--border-color);&quot;&gt;&lt;font style=&quot;border-color: var(--border-color);&quot; color=&quot;#cda2be&quot;&gt;/&amp;nbsp;&lt;/font&gt;&lt;font style=&quot;border-color: var(--border-color);&quot; color=&quot;#e06c75&quot;&gt;&lt;u style=&quot;border-color: var(--border-color);&quot;&gt;DISTANCE_ZOOM&lt;/u&gt;&amp;nbsp;&lt;/font&gt;&lt;font style=&quot;border-color: var(--border-color);&quot; color=&quot;#abb2bf&quot;&gt;: final int&lt;/font&gt;&lt;br style=&quot;border-color: var(--border-color);&quot;&gt;&lt;font style=&quot;border-color: var(--border-color);&quot; color=&quot;#cda2be&quot;&gt;/&amp;nbsp;&lt;/font&gt;&lt;font style=&quot;border-color: var(--border-color);&quot; color=&quot;#e06c75&quot;&gt;tuilesGraphique&amp;nbsp;&lt;/font&gt;&lt;font style=&quot;border-color: var(--border-color);&quot; color=&quot;#abb2bf&quot;&gt;: ArrayList&amp;lt;TuileGraphique&amp;gt;&lt;/font&gt;&lt;br style=&quot;border-color: var(--border-color);&quot;&gt;&lt;font style=&quot;border-color: var(--border-color);&quot; color=&quot;#cda2be&quot;&gt;/&amp;nbsp;&lt;/font&gt;&lt;font style=&quot;border-color: var(--border-color);&quot; color=&quot;#e06c75&quot;&gt;&lt;u style=&quot;border-color: var(--border-color);&quot;&gt;allCircles&lt;/u&gt;&amp;nbsp;&lt;/font&gt;&lt;font style=&quot;border-color: var(--border-color);&quot; color=&quot;#abb2bf&quot;&gt;: HashMap&amp;lt;Coordonnee, Circle&amp;gt;&lt;/font&gt;&lt;br style=&quot;border-color: var(--border-color);&quot;&gt;&lt;font style=&quot;border-color: var(--border-color);&quot; color=&quot;#cda2be&quot;&gt;/&amp;nbsp;&lt;/font&gt;&lt;font style=&quot;border-color: var(--border-color);&quot; color=&quot;#e06c75&quot;&gt;circlesToDraw&lt;/font&gt;&lt;font style=&quot;border-color: var(--border-color);&quot; color=&quot;#abb2bf&quot;&gt;&amp;nbsp;: ArrayList&amp;lt;Circle&amp;gt;&lt;/font&gt;&lt;br style=&quot;border-color: var(--border-color);&quot;&gt;&lt;font style=&quot;border-color: var(--border-color);&quot; color=&quot;#cda2be&quot;&gt;+&amp;nbsp;&lt;/font&gt;&lt;font style=&quot;border-color: var(--border-color);&quot; color=&quot;#e06c75&quot;&gt;vibe&lt;/font&gt;&lt;font style=&quot;border-color: var(--border-color);&quot; color=&quot;#abb2bf&quot;&gt;&amp;nbsp;: transient Timer&lt;/font&gt;" style="text;strokeColor=none;fillColor=none;align=left;verticalAlign=top;spacingLeft=4;spacingRight=4;overflow=hidden;rotatable=0;points=[[0,0.5],[1,0.5]];portConstraint=eastwest;whiteSpace=wrap;html=1;" parent="T5wfUOfI6vKbs9WQwN0E-10" vertex="1">
          <mxGeometry y="26" width="376" height="134" as="geometry" />
        </mxCell>
        <mxCell id="T5wfUOfI6vKbs9WQwN0E-12" value="" style="line;strokeWidth=1;fillColor=none;align=left;verticalAlign=middle;spacingTop=-1;spacingLeft=3;spacingRight=3;rotatable=0;labelPosition=right;points=[];portConstraint=eastwest;strokeColor=inherit;" parent="T5wfUOfI6vKbs9WQwN0E-10" vertex="1">
          <mxGeometry y="160" width="376" height="8" as="geometry" />
        </mxCell>
        <mxCell id="T5wfUOfI6vKbs9WQwN0E-13" value="&lt;font color=&quot;#cda2be&quot;&gt;/&lt;/font&gt;&lt;font color=&quot;#e06c75&quot;&gt;&amp;nbsp;paintComponent(Graphics)&lt;/font&gt;&lt;font color=&quot;#abb2bf&quot;&gt;&amp;nbsp;: void&lt;/font&gt;&lt;br&gt;&lt;font color=&quot;#cda2be&quot;&gt;+ &lt;/font&gt;&lt;font color=&quot;#e06c75&quot;&gt;glisserVers(int, int)&lt;/font&gt;&lt;font color=&quot;#abb2bf&quot;&gt;&amp;nbsp;: void&lt;/font&gt;&lt;br&gt;&lt;font color=&quot;#cda2be&quot;&gt;+ &lt;/font&gt;&lt;font color=&quot;#e06c75&quot;&gt;glisserVersByCran(int, int) &lt;/font&gt;&lt;font color=&quot;#abb2bf&quot;&gt;: void&lt;/font&gt;&lt;br&gt;&lt;font color=&quot;#cda2be&quot;&gt;+ &lt;/font&gt;&lt;font color=&quot;#e06c75&quot;&gt;keyTyped(KeyEvent)&lt;/font&gt;&lt;font color=&quot;#abb2bf&quot;&gt;&amp;nbsp;: void&lt;/font&gt;&lt;br&gt;&lt;font color=&quot;#cda2be&quot;&gt;+ &lt;/font&gt;&lt;font color=&quot;#e06c75&quot;&gt;keyPressed(KeyEvent)&lt;/font&gt;&lt;font color=&quot;#abb2bf&quot;&gt;&amp;nbsp;: void&lt;/font&gt;&lt;br&gt;&lt;font color=&quot;#cda2be&quot;&gt;+ &lt;/font&gt;&lt;font color=&quot;#e06c75&quot;&gt;keyReleased(KeyEvent)&lt;/font&gt;&lt;font color=&quot;#abb2bf&quot;&gt;&amp;nbsp;: void&lt;/font&gt;&lt;br&gt;&lt;font color=&quot;#cda2be&quot;&gt;+ &lt;/font&gt;&lt;font color=&quot;#e06c75&quot;&gt;mouseClicked(MouseEvent)&lt;/font&gt;&lt;font color=&quot;#abb2bf&quot;&gt;&amp;nbsp;: void&lt;/font&gt;&lt;br&gt;&lt;font color=&quot;#cda2be&quot;&gt;+ &lt;/font&gt;&lt;font color=&quot;#e06c75&quot;&gt;showStartPionLocations()&lt;/font&gt;&lt;font color=&quot;#abb2bf&quot;&gt;&amp;nbsp;: void&lt;/font&gt;&lt;br&gt;&lt;font color=&quot;#cda2be&quot;&gt;+&lt;/font&gt;&lt;font color=&quot;#e06c75&quot;&gt;&amp;nbsp;mousePressed(MouseEvent)&lt;/font&gt;&lt;font color=&quot;#abb2bf&quot;&gt;&amp;nbsp;: void&lt;/font&gt;&lt;br&gt;&lt;font color=&quot;#cda2be&quot;&gt;+&lt;/font&gt;&lt;font color=&quot;#e06c75&quot;&gt;&amp;nbsp;mouseReleased(MouseEvent)&lt;/font&gt;&lt;font color=&quot;#abb2bf&quot;&gt;&amp;nbsp;: void&lt;/font&gt;&lt;br&gt;&lt;font color=&quot;#cda2be&quot;&gt;+ &lt;/font&gt;&lt;font color=&quot;#e06c75&quot;&gt;mouseEntered(MouseEvent)&lt;/font&gt;&lt;font color=&quot;#abb2bf&quot;&gt;&amp;nbsp;: void&lt;/font&gt;&lt;br&gt;&lt;font color=&quot;#cda2be&quot;&gt;+&amp;nbsp;&lt;/font&gt;&lt;font color=&quot;#e06c75&quot;&gt;mouseExited(MouseEvent)&lt;/font&gt;&lt;font color=&quot;#abb2bf&quot;&gt;&amp;nbsp;: void&lt;/font&gt;&lt;br&gt;&lt;font color=&quot;#cda2be&quot;&gt;+&lt;/font&gt;&lt;font color=&quot;#e06c75&quot;&gt;&amp;nbsp;mouseDragged(MouseEvent) &lt;/font&gt;&lt;font color=&quot;#abb2bf&quot;&gt;: void&lt;/font&gt;&lt;br&gt;&lt;font color=&quot;#cda2be&quot;&gt;+ &lt;/font&gt;&lt;font color=&quot;#e06c75&quot;&gt;mouseMoved(MouseEvent)&lt;/font&gt;&lt;font color=&quot;#abb2bf&quot;&gt;&amp;nbsp;: void&lt;/font&gt;&lt;br&gt;&lt;font color=&quot;#cda2be&quot;&gt;+&lt;/font&gt;&lt;font color=&quot;#e06c75&quot;&gt;&amp;nbsp;addCircle(Coordonnee)&lt;/font&gt;&lt;font color=&quot;#abb2bf&quot;&gt;&amp;nbsp;: void&lt;/font&gt;&lt;br&gt;&lt;font color=&quot;#cda2be&quot;&gt;+&lt;/font&gt;&lt;font color=&quot;#e06c75&quot;&gt;&amp;nbsp;clearAllCircles()&lt;/font&gt;&lt;font color=&quot;#abb2bf&quot;&gt;&amp;nbsp;: void&lt;/font&gt;&lt;br&gt;&lt;font color=&quot;#cda2be&quot;&gt;+&lt;/font&gt;&lt;font color=&quot;#e06c75&quot;&gt;&amp;nbsp;vibrate()&lt;/font&gt;&lt;font color=&quot;#abb2bf&quot;&gt;&amp;nbsp;: void&lt;/font&gt;" style="text;strokeColor=none;fillColor=none;align=left;verticalAlign=top;spacingLeft=4;spacingRight=4;overflow=hidden;rotatable=0;points=[[0,0.5],[1,0.5]];portConstraint=eastwest;whiteSpace=wrap;html=1;" parent="T5wfUOfI6vKbs9WQwN0E-10" vertex="1">
          <mxGeometry y="168" width="376" height="252" as="geometry" />
        </mxCell>
        <mxCell id="T5wfUOfI6vKbs9WQwN0E-18" value="CursorInfo" style="swimlane;fontStyle=1;align=center;verticalAlign=top;childLayout=stackLayout;horizontal=1;startSize=26;horizontalStack=0;resizeParent=1;resizeParentMax=0;resizeLast=0;collapsible=1;marginBottom=0;whiteSpace=wrap;html=1;" parent="T5wfUOfI6vKbs9WQwN0E-10" vertex="1">
          <mxGeometry y="420" width="376" height="164" as="geometry" />
        </mxCell>
        <mxCell id="T5wfUOfI6vKbs9WQwN0E-19" value="&lt;font color=&quot;#cda2be&quot;&gt;/ &lt;/font&gt;&lt;font color=&quot;#e06c75&quot;&gt;point&amp;nbsp;&lt;/font&gt;&lt;font color=&quot;#abb2bf&quot;&gt;&amp;nbsp;: Point&lt;/font&gt;&lt;br&gt;&lt;font color=&quot;#cda2be&quot;&gt;/ &lt;/font&gt;&lt;font color=&quot;#e06c75&quot;&gt;pion&amp;nbsp;&lt;/font&gt;&lt;font color=&quot;#abb2bf&quot;&gt;&amp;nbsp;: Pion&lt;/font&gt;&lt;br&gt;&lt;font color=&quot;#cda2be&quot;&gt;/ &lt;/font&gt;&lt;font color=&quot;#e06c75&quot;&gt;perle&lt;/font&gt;&lt;font color=&quot;#abb2bf&quot;&gt;&amp;nbsp;: Couleurs&lt;/font&gt;&lt;br&gt;&lt;font color=&quot;#cda2be&quot;&gt;/ &lt;/font&gt;&lt;font color=&quot;#e06c75&quot;&gt;&lt;u&gt;lx&lt;/u&gt; &lt;/font&gt;&lt;font color=&quot;#abb2bf&quot;&gt;: final int&lt;/font&gt;&lt;br&gt;&lt;font color=&quot;#cda2be&quot;&gt;/ &lt;/font&gt;&lt;font color=&quot;#e06c75&quot;&gt;&lt;u&gt;ly&lt;/u&gt; &lt;/font&gt;&lt;font color=&quot;#abb2bf&quot;&gt;: final int&lt;/font&gt;&lt;br&gt;&lt;font color=&quot;#cda2be&quot;&gt;/ &lt;/font&gt;&lt;font color=&quot;#e06c75&quot;&gt;&lt;u&gt;transparence&lt;/u&gt;&lt;/font&gt;&lt;font color=&quot;#abb2bf&quot;&gt;&amp;nbsp;: final int&lt;/font&gt;&lt;br&gt;&lt;font color=&quot;#cda2be&quot;&gt;/ &lt;/font&gt;&lt;font color=&quot;#e06c75&quot;&gt;&lt;u&gt;red_X&lt;/u&gt;&lt;/font&gt;&lt;font color=&quot;#abb2bf&quot;&gt;&amp;nbsp;: final int&lt;/font&gt;" style="text;strokeColor=none;fillColor=none;align=left;verticalAlign=top;spacingLeft=4;spacingRight=4;overflow=hidden;rotatable=0;points=[[0,0.5],[1,0.5]];portConstraint=eastwest;whiteSpace=wrap;html=1;" parent="T5wfUOfI6vKbs9WQwN0E-18" vertex="1">
          <mxGeometry y="26" width="376" height="104" as="geometry" />
        </mxCell>
        <mxCell id="T5wfUOfI6vKbs9WQwN0E-20" value="" style="line;strokeWidth=1;fillColor=none;align=left;verticalAlign=middle;spacingTop=-1;spacingLeft=3;spacingRight=3;rotatable=0;labelPosition=right;points=[];portConstraint=eastwest;strokeColor=inherit;" parent="T5wfUOfI6vKbs9WQwN0E-18" vertex="1">
          <mxGeometry y="130" width="376" height="8" as="geometry" />
        </mxCell>
        <mxCell id="T5wfUOfI6vKbs9WQwN0E-21" value="&lt;font color=&quot;#cda2be&quot;&gt;+&lt;/font&gt;&lt;font color=&quot;#e06c75&quot;&gt;&amp;nbsp;draw(Grphics, Point)&amp;nbsp;&lt;/font&gt;&lt;font color=&quot;#abb2bf&quot;&gt;&amp;nbsp;: void&lt;/font&gt;" style="text;strokeColor=none;fillColor=none;align=left;verticalAlign=top;spacingLeft=4;spacingRight=4;overflow=hidden;rotatable=0;points=[[0,0.5],[1,0.5]];portConstraint=eastwest;whiteSpace=wrap;html=1;" parent="T5wfUOfI6vKbs9WQwN0E-18" vertex="1">
          <mxGeometry y="138" width="376" height="26" as="geometry" />
        </mxCell>
        <mxCell id="T5wfUOfI6vKbs9WQwN0E-22" value="Intro" style="swimlane;fontStyle=1;align=center;verticalAlign=top;childLayout=stackLayout;horizontal=1;startSize=26;horizontalStack=0;resizeParent=1;resizeParentMax=0;resizeLast=0;collapsible=1;marginBottom=0;whiteSpace=wrap;html=1;" parent="1" vertex="1">
          <mxGeometry x="51" y="650" width="220" height="144" as="geometry" />
        </mxCell>
        <mxCell id="T5wfUOfI6vKbs9WQwN0E-23" value="&lt;font color=&quot;#cda2be&quot;&gt;- &lt;/font&gt;&lt;font color=&quot;#e06c75&quot;&gt;size&lt;/font&gt;&lt;font color=&quot;#abb2bf&quot;&gt;&amp;nbsp;: Dimension&lt;/font&gt;&lt;br&gt;&lt;font color=&quot;#cda2be&quot;&gt;/ &lt;/font&gt;&lt;font color=&quot;#e06c75&quot;&gt;j&lt;/font&gt;&lt;font color=&quot;#abb2bf&quot;&gt;&amp;nbsp;: JProgressBar&lt;/font&gt;&lt;br&gt;&lt;font color=&quot;#cda2be&quot;&gt;- &lt;/font&gt;&lt;font color=&quot;#e06c75&quot;&gt;decalage&lt;/font&gt;&lt;font color=&quot;#abb2bf&quot;&gt;&amp;nbsp;: int&lt;/font&gt;&lt;br&gt;&lt;font color=&quot;#cda2be&quot;&gt;/ &lt;/font&gt;&lt;font color=&quot;#e06c75&quot;&gt;f &lt;/font&gt;&lt;font color=&quot;#abb2bf&quot;&gt;: JFrame&lt;/font&gt;&lt;br&gt;&lt;font color=&quot;#cda2be&quot;&gt;/ &lt;/font&gt;&lt;font color=&quot;#e06c75&quot;&gt;titre&lt;/font&gt;&lt;font color=&quot;#abb2bf&quot;&gt;&amp;nbsp;: JLabel&lt;/font&gt;" style="text;strokeColor=none;fillColor=none;align=left;verticalAlign=top;spacingLeft=4;spacingRight=4;overflow=hidden;rotatable=0;points=[[0,0.5],[1,0.5]];portConstraint=eastwest;whiteSpace=wrap;html=1;" parent="T5wfUOfI6vKbs9WQwN0E-22" vertex="1">
          <mxGeometry y="26" width="220" height="84" as="geometry" />
        </mxCell>
        <mxCell id="T5wfUOfI6vKbs9WQwN0E-24" value="" style="line;strokeWidth=1;fillColor=none;align=left;verticalAlign=middle;spacingTop=-1;spacingLeft=3;spacingRight=3;rotatable=0;labelPosition=right;points=[];portConstraint=eastwest;strokeColor=inherit;" parent="T5wfUOfI6vKbs9WQwN0E-22" vertex="1">
          <mxGeometry y="110" width="220" height="8" as="geometry" />
        </mxCell>
        <mxCell id="T5wfUOfI6vKbs9WQwN0E-25" value="&lt;font color=&quot;#cda2be&quot;&gt;/ &lt;/font&gt;&lt;font color=&quot;#e06c75&quot;&gt;paintComponent(Graphics)&lt;/font&gt;&lt;font color=&quot;#abb2bf&quot;&gt;&amp;nbsp;: void&lt;/font&gt;" style="text;strokeColor=none;fillColor=none;align=left;verticalAlign=top;spacingLeft=4;spacingRight=4;overflow=hidden;rotatable=0;points=[[0,0.5],[1,0.5]];portConstraint=eastwest;whiteSpace=wrap;html=1;" parent="T5wfUOfI6vKbs9WQwN0E-22" vertex="1">
          <mxGeometry y="118" width="220" height="26" as="geometry" />
        </mxCell>
        <mxCell id="T5wfUOfI6vKbs9WQwN0E-26" value="JouerButton" style="swimlane;fontStyle=1;align=center;verticalAlign=top;childLayout=stackLayout;horizontal=1;startSize=26;horizontalStack=0;resizeParent=1;resizeParentMax=0;resizeLast=0;collapsible=1;marginBottom=0;whiteSpace=wrap;html=1;" parent="1" vertex="1">
          <mxGeometry x="51" y="830" width="289" height="184" as="geometry" />
        </mxCell>
        <mxCell id="T5wfUOfI6vKbs9WQwN0E-27" value="&lt;font color=&quot;#cda2be&quot;&gt;+&lt;/font&gt;&lt;font color=&quot;#e06c75&quot;&gt;&amp;nbsp;conteneur &lt;/font&gt;&lt;font color=&quot;#abb2bf&quot;&gt;: JPanel&lt;/font&gt;&lt;br&gt;&lt;font color=&quot;#cda2be&quot;&gt;+&lt;/font&gt;&lt;font color=&quot;#e06c75&quot;&gt;&amp;nbsp;btn &lt;/font&gt;&lt;font color=&quot;#abb2bf&quot;&gt;: JButton&lt;/font&gt;&lt;br&gt;&lt;font color=&quot;#cda2be&quot;&gt;+&lt;/font&gt;&lt;font color=&quot;#e06c75&quot;&gt;&amp;nbsp;manuelButton &lt;/font&gt;&lt;font color=&quot;#abb2bf&quot;&gt;: JRadioButton&lt;/font&gt;&lt;br&gt;&lt;font color=&quot;#cda2be&quot;&gt;+ &lt;/font&gt;&lt;font color=&quot;#e06c75&quot;&gt;autoButton&lt;/font&gt;&lt;font color=&quot;#abb2bf&quot;&gt;&amp;nbsp;: JRadioButton&lt;/font&gt;&lt;br&gt;&lt;font color=&quot;#cda2be&quot;&gt;+&lt;/font&gt;&lt;font color=&quot;#e06c75&quot;&gt;&amp;nbsp;j2 &lt;/font&gt;&lt;font color=&quot;#abb2bf&quot;&gt;: JRadioButton&lt;/font&gt;&lt;br&gt;&lt;font color=&quot;#cda2be&quot;&gt;+ &lt;/font&gt;&lt;font color=&quot;#e06c75&quot;&gt;j4&lt;/font&gt;&lt;font color=&quot;#abb2bf&quot;&gt;&amp;nbsp;: JRadioButton&lt;/font&gt;&lt;br&gt;&lt;font color=&quot;#cda2be&quot;&gt;+ &lt;/font&gt;&lt;font color=&quot;#e06c75&quot;&gt;nmbJoueur&lt;/font&gt;&lt;font color=&quot;#abb2bf&quot;&gt;&amp;nbsp;: JTextField&lt;/font&gt;&lt;br&gt;&lt;font color=&quot;#cda2be&quot;&gt;+ &lt;/font&gt;&lt;font color=&quot;#e06c75&quot;&gt;background&lt;/font&gt;&lt;font color=&quot;#abb2bf&quot;&gt;&amp;nbsp;: JLabel&lt;/font&gt;" style="text;strokeColor=none;fillColor=none;align=left;verticalAlign=top;spacingLeft=4;spacingRight=4;overflow=hidden;rotatable=0;points=[[0,0.5],[1,0.5]];portConstraint=eastwest;whiteSpace=wrap;html=1;" parent="T5wfUOfI6vKbs9WQwN0E-26" vertex="1">
          <mxGeometry y="26" width="289" height="124" as="geometry" />
        </mxCell>
        <mxCell id="T5wfUOfI6vKbs9WQwN0E-28" value="" style="line;strokeWidth=1;fillColor=none;align=left;verticalAlign=middle;spacingTop=-1;spacingLeft=3;spacingRight=3;rotatable=0;labelPosition=right;points=[];portConstraint=eastwest;strokeColor=inherit;" parent="T5wfUOfI6vKbs9WQwN0E-26" vertex="1">
          <mxGeometry y="150" width="289" height="8" as="geometry" />
        </mxCell>
        <mxCell id="T5wfUOfI6vKbs9WQwN0E-29" value="&lt;font color=&quot;#cda2be&quot;&gt;+ &lt;/font&gt;&lt;font color=&quot;#e06c75&quot;&gt;actionPerformed&lt;/font&gt;&lt;font color=&quot;#abb2bf&quot;&gt;&amp;nbsp;: void&lt;/font&gt;" style="text;strokeColor=none;fillColor=none;align=left;verticalAlign=top;spacingLeft=4;spacingRight=4;overflow=hidden;rotatable=0;points=[[0,0.5],[1,0.5]];portConstraint=eastwest;whiteSpace=wrap;html=1;" parent="T5wfUOfI6vKbs9WQwN0E-26" vertex="1">
          <mxGeometry y="158" width="289" height="26" as="geometry" />
        </mxCell>
        <mxCell id="T5wfUOfI6vKbs9WQwN0E-30" value="JouerFrame" style="swimlane;fontStyle=1;align=center;verticalAlign=top;childLayout=stackLayout;horizontal=1;startSize=26;horizontalStack=0;resizeParent=1;resizeParentMax=0;resizeLast=0;collapsible=1;marginBottom=0;whiteSpace=wrap;html=1;" parent="1" vertex="1">
          <mxGeometry x="320" y="680" width="258" height="118" as="geometry" />
        </mxCell>
        <mxCell id="T5wfUOfI6vKbs9WQwN0E-31" value="&lt;font color=&quot;#cda2be&quot;&gt;/ &lt;/font&gt;&lt;font color=&quot;#e06c75&quot;&gt;jouerButton&lt;/font&gt;&lt;font color=&quot;#cda2be&quot;&gt;&amp;nbsp;&lt;/font&gt;&lt;font color=&quot;#abb2bf&quot;&gt;: JButton&lt;/font&gt;&lt;br&gt;&lt;font color=&quot;#cda2be&quot;&gt;/&lt;/font&gt;&lt;font color=&quot;#e06c75&quot;&gt;&amp;nbsp;validerButton &lt;/font&gt;&lt;font color=&quot;#abb2bf&quot;&gt;: JButton&lt;/font&gt;&lt;br&gt;&lt;font color=&quot;#cda2be&quot;&gt;/ &lt;/font&gt;&lt;font color=&quot;#e06c75&quot;&gt;quitterButton&lt;/font&gt;&lt;font color=&quot;#abb2bf&quot;&gt;&amp;nbsp;: JButton&lt;/font&gt;&lt;br&gt;&lt;font color=&quot;#cda2be&quot;&gt;/ &lt;/font&gt;&lt;font color=&quot;#e06c75&quot;&gt;optionButton&lt;/font&gt;&lt;font color=&quot;#abb2bf&quot;&gt;&amp;nbsp;: JButton&lt;/font&gt;&lt;br&gt;&lt;font color=&quot;#cda2be&quot;&gt;+&amp;nbsp;&lt;/font&gt;&lt;font color=&quot;#e06c75&quot;&gt;&lt;u&gt;stockage&lt;/u&gt;&amp;nbsp;&lt;/font&gt;&lt;font color=&quot;#abb2bf&quot;&gt;: StockageSettion&lt;br&gt;&lt;/font&gt;" style="text;strokeColor=none;fillColor=none;align=left;verticalAlign=top;spacingLeft=4;spacingRight=4;overflow=hidden;rotatable=0;points=[[0,0.5],[1,0.5]];portConstraint=eastwest;whiteSpace=wrap;html=1;" parent="T5wfUOfI6vKbs9WQwN0E-30" vertex="1">
          <mxGeometry y="26" width="258" height="84" as="geometry" />
        </mxCell>
        <mxCell id="T5wfUOfI6vKbs9WQwN0E-32" value="" style="line;strokeWidth=1;fillColor=none;align=left;verticalAlign=middle;spacingTop=-1;spacingLeft=3;spacingRight=3;rotatable=0;labelPosition=right;points=[];portConstraint=eastwest;strokeColor=inherit;" parent="T5wfUOfI6vKbs9WQwN0E-30" vertex="1">
          <mxGeometry y="110" width="258" height="8" as="geometry" />
        </mxCell>
        <mxCell id="T5wfUOfI6vKbs9WQwN0E-34" value="&lt;b&gt;ManuelDeJeu&lt;/b&gt;" style="swimlane;fontStyle=0;childLayout=stackLayout;horizontal=1;startSize=26;fillColor=none;horizontalStack=0;resizeParent=1;resizeParentMax=0;resizeLast=0;collapsible=1;marginBottom=0;whiteSpace=wrap;html=1;" parent="1" vertex="1">
          <mxGeometry x="620" y="707" width="140" height="30" as="geometry" />
        </mxCell>
        <mxCell id="T5wfUOfI6vKbs9WQwN0E-38" value="NiwaWindow" style="swimlane;fontStyle=1;align=center;verticalAlign=top;childLayout=stackLayout;horizontal=1;startSize=26;horizontalStack=0;resizeParent=1;resizeParentMax=0;resizeLast=0;collapsible=1;marginBottom=0;whiteSpace=wrap;html=1;" parent="1" vertex="1">
          <mxGeometry x="890" y="869" width="240" height="336" as="geometry" />
        </mxCell>
        <mxCell id="T5wfUOfI6vKbs9WQwN0E-39" value="&lt;font color=&quot;#cda2be&quot;&gt;+ &lt;/font&gt;&lt;font color=&quot;#e06c75&quot;&gt;t &lt;/font&gt;&lt;font color=&quot;#abb2bf&quot;&gt;: Thread&lt;/font&gt;&lt;br&gt;&lt;font color=&quot;#cda2be&quot;&gt;+ &lt;/font&gt;&lt;font color=&quot;#e06c75&quot;&gt;&lt;u&gt;threadName&lt;/u&gt;&lt;/font&gt;&lt;font color=&quot;#abb2bf&quot;&gt;&amp;nbsp;: final String&lt;/font&gt;&lt;br&gt;&lt;font color=&quot;#cda2be&quot;&gt;/ &lt;/font&gt;&lt;font color=&quot;#e06c75&quot;&gt;&lt;u&gt;soundON&lt;/u&gt;&lt;/font&gt;&lt;font color=&quot;#abb2bf&quot;&gt;&amp;nbsp;: boolean&lt;/font&gt;&lt;br&gt;&lt;font color=&quot;#cda2be&quot;&gt;/ &lt;/font&gt;&lt;font color=&quot;#e06c75&quot;&gt;&lt;u&gt;clip1&lt;/u&gt;&lt;/font&gt;&lt;font color=&quot;#abb2bf&quot;&gt;&amp;nbsp;: Clip&lt;/font&gt;&lt;br&gt;&lt;font color=&quot;#cda2be&quot;&gt;/&lt;/font&gt;&lt;font color=&quot;#e06c75&quot;&gt;&amp;nbsp;&lt;u&gt;clip2&lt;/u&gt;&lt;/font&gt;&lt;font color=&quot;#abb2bf&quot;&gt;&amp;nbsp;: Clip&lt;/font&gt;&lt;br&gt;&lt;font color=&quot;#cda2be&quot;&gt;+&amp;nbsp;&lt;/font&gt;&lt;font color=&quot;#e06c75&quot;&gt;&lt;u&gt;stockage&lt;/u&gt;&lt;/font&gt;&lt;font color=&quot;#abb2bf&quot;&gt;&amp;nbsp;: StockageSettings&lt;/font&gt;" style="text;strokeColor=none;fillColor=none;align=left;verticalAlign=top;spacingLeft=4;spacingRight=4;overflow=hidden;rotatable=0;points=[[0,0.5],[1,0.5]];portConstraint=eastwest;whiteSpace=wrap;html=1;" parent="T5wfUOfI6vKbs9WQwN0E-38" vertex="1">
          <mxGeometry y="26" width="240" height="94" as="geometry" />
        </mxCell>
        <mxCell id="T5wfUOfI6vKbs9WQwN0E-40" value="" style="line;strokeWidth=1;fillColor=none;align=left;verticalAlign=middle;spacingTop=-1;spacingLeft=3;spacingRight=3;rotatable=0;labelPosition=right;points=[];portConstraint=eastwest;strokeColor=inherit;" parent="T5wfUOfI6vKbs9WQwN0E-38" vertex="1">
          <mxGeometry y="120" width="240" height="8" as="geometry" />
        </mxCell>
        <mxCell id="T5wfUOfI6vKbs9WQwN0E-41" value="&lt;font color=&quot;#cda2be&quot;&gt;+&lt;/font&gt;&lt;font color=&quot;#e06c75&quot;&gt;&amp;nbsp;run()&lt;/font&gt;&lt;font color=&quot;#abb2bf&quot;&gt;&amp;nbsp;: void&lt;/font&gt;&lt;br&gt;&lt;font color=&quot;#cda2be&quot;&gt;+&lt;/font&gt;&lt;font color=&quot;#e06c75&quot;&gt;&amp;nbsp;start()&lt;/font&gt;&lt;font color=&quot;#abb2bf&quot;&gt;&amp;nbsp;: void&lt;/font&gt;&lt;br&gt;&lt;font color=&quot;#cda2be&quot;&gt;+&lt;/font&gt;&lt;font color=&quot;#e06c75&quot;&gt;&amp;nbsp;beep()&lt;/font&gt;&lt;font color=&quot;#abb2bf&quot;&gt;&amp;nbsp;: void&lt;/font&gt;&lt;br&gt;&lt;font color=&quot;#cda2be&quot;&gt;+&lt;/font&gt;&lt;font color=&quot;#e06c75&quot;&gt;&amp;nbsp;setPanel(JPanel)&lt;/font&gt;&lt;font color=&quot;#abb2bf&quot;&gt;&amp;nbsp;: void&lt;/font&gt;" style="text;strokeColor=none;fillColor=none;align=left;verticalAlign=top;spacingLeft=4;spacingRight=4;overflow=hidden;rotatable=0;points=[[0,0.5],[1,0.5]];portConstraint=eastwest;whiteSpace=wrap;html=1;" parent="T5wfUOfI6vKbs9WQwN0E-38" vertex="1">
          <mxGeometry y="128" width="240" height="72" as="geometry" />
        </mxCell>
        <mxCell id="735r7jLbl9bYlSU7Me6_-5" value="Option" style="swimlane;fontStyle=1;align=center;verticalAlign=top;childLayout=stackLayout;horizontal=1;startSize=26;horizontalStack=0;resizeParent=1;resizeParentMax=0;resizeLast=0;collapsible=1;marginBottom=0;whiteSpace=wrap;html=1;" vertex="1" parent="T5wfUOfI6vKbs9WQwN0E-38">
          <mxGeometry y="200" width="240" height="68" as="geometry" />
        </mxCell>
        <mxCell id="735r7jLbl9bYlSU7Me6_-7" value="" style="line;strokeWidth=1;fillColor=none;align=left;verticalAlign=middle;spacingTop=-1;spacingLeft=3;spacingRight=3;rotatable=0;labelPosition=right;points=[];portConstraint=eastwest;strokeColor=inherit;" vertex="1" parent="735r7jLbl9bYlSU7Me6_-5">
          <mxGeometry y="26" width="240" height="8" as="geometry" />
        </mxCell>
        <mxCell id="735r7jLbl9bYlSU7Me6_-9" value="Value" style="swimlane;fontStyle=1;align=center;verticalAlign=top;childLayout=stackLayout;horizontal=1;startSize=26;horizontalStack=0;resizeParent=1;resizeParentMax=0;resizeLast=0;collapsible=1;marginBottom=0;whiteSpace=wrap;html=1;" vertex="1" parent="735r7jLbl9bYlSU7Me6_-5">
          <mxGeometry y="34" width="240" height="34" as="geometry" />
        </mxCell>
        <mxCell id="735r7jLbl9bYlSU7Me6_-11" value="" style="line;strokeWidth=1;fillColor=none;align=left;verticalAlign=middle;spacingTop=-1;spacingLeft=3;spacingRight=3;rotatable=0;labelPosition=right;points=[];portConstraint=eastwest;strokeColor=inherit;" vertex="1" parent="735r7jLbl9bYlSU7Me6_-9">
          <mxGeometry y="26" width="240" height="8" as="geometry" />
        </mxCell>
        <mxCell id="735r7jLbl9bYlSU7Me6_-1" value="Arrow" style="swimlane;fontStyle=1;align=center;verticalAlign=top;childLayout=stackLayout;horizontal=1;startSize=26;horizontalStack=0;resizeParent=1;resizeParentMax=0;resizeLast=0;collapsible=1;marginBottom=0;whiteSpace=wrap;html=1;" vertex="1" parent="T5wfUOfI6vKbs9WQwN0E-38">
          <mxGeometry y="268" width="240" height="68" as="geometry" />
        </mxCell>
        <mxCell id="735r7jLbl9bYlSU7Me6_-2" value="&lt;font color=&quot;#cda2be&quot;&gt;/&lt;/font&gt;&lt;font color=&quot;#e06c75&quot;&gt;&amp;nbsp;arrow_right&lt;/font&gt;&lt;font color=&quot;#abb2bf&quot;&gt;&amp;nbsp;: ImageIcon&lt;/font&gt;&lt;br&gt;&lt;font color=&quot;#cda2be&quot;&gt;/&lt;/font&gt;&lt;font color=&quot;#e06c75&quot;&gt;&amp;nbsp;arrow_left&lt;/font&gt;&lt;font color=&quot;#abb2bf&quot;&gt;&amp;nbsp;: ImageIcon&lt;/font&gt;" style="text;strokeColor=none;fillColor=none;align=left;verticalAlign=top;spacingLeft=4;spacingRight=4;overflow=hidden;rotatable=0;points=[[0,0.5],[1,0.5]];portConstraint=eastwest;whiteSpace=wrap;html=1;" vertex="1" parent="735r7jLbl9bYlSU7Me6_-1">
          <mxGeometry y="26" width="240" height="34" as="geometry" />
        </mxCell>
        <mxCell id="735r7jLbl9bYlSU7Me6_-3" value="" style="line;strokeWidth=1;fillColor=none;align=left;verticalAlign=middle;spacingTop=-1;spacingLeft=3;spacingRight=3;rotatable=0;labelPosition=right;points=[];portConstraint=eastwest;strokeColor=inherit;" vertex="1" parent="735r7jLbl9bYlSU7Me6_-1">
          <mxGeometry y="60" width="240" height="8" as="geometry" />
        </mxCell>
        <mxCell id="735r7jLbl9bYlSU7Me6_-13" value="OptionButton" style="swimlane;fontStyle=1;align=center;verticalAlign=top;childLayout=stackLayout;horizontal=1;startSize=26;horizontalStack=0;resizeParent=1;resizeParentMax=0;resizeLast=0;collapsible=1;marginBottom=0;whiteSpace=wrap;html=1;" vertex="1" parent="1">
          <mxGeometry x="369" y="840" width="231" height="94" as="geometry" />
        </mxCell>
        <mxCell id="735r7jLbl9bYlSU7Me6_-14" value="&lt;font color=&quot;#cda2be&quot;&gt;/ &lt;/font&gt;&lt;font color=&quot;#e06c75&quot;&gt;pos &lt;/font&gt;&lt;font color=&quot;#abb2bf&quot;&gt;: GridBagContraints&lt;/font&gt;&lt;br&gt;&lt;font color=&quot;#cda2be&quot;&gt;/ &lt;/font&gt;&lt;font color=&quot;#e06c75&quot;&gt;&lt;u&gt;nb_panels&lt;/u&gt;&lt;/font&gt;&lt;font color=&quot;#abb2bf&quot;&gt;&amp;nbsp;: final int&lt;/font&gt;" style="text;strokeColor=none;fillColor=none;align=left;verticalAlign=top;spacingLeft=4;spacingRight=4;overflow=hidden;rotatable=0;points=[[0,0.5],[1,0.5]];portConstraint=eastwest;whiteSpace=wrap;html=1;" vertex="1" parent="735r7jLbl9bYlSU7Me6_-13">
          <mxGeometry y="26" width="231" height="34" as="geometry" />
        </mxCell>
        <mxCell id="735r7jLbl9bYlSU7Me6_-15" value="" style="line;strokeWidth=1;fillColor=none;align=left;verticalAlign=middle;spacingTop=-1;spacingLeft=3;spacingRight=3;rotatable=0;labelPosition=right;points=[];portConstraint=eastwest;strokeColor=inherit;" vertex="1" parent="735r7jLbl9bYlSU7Me6_-13">
          <mxGeometry y="60" width="231" height="8" as="geometry" />
        </mxCell>
        <mxCell id="735r7jLbl9bYlSU7Me6_-16" value="&lt;font color=&quot;#cda2be&quot;&gt;+ &lt;/font&gt;&lt;font color=&quot;#e06c75&quot;&gt;actionPerformed(ActionEvent)&lt;/font&gt;&lt;font color=&quot;#abb2bf&quot;&gt;&amp;nbsp;: void&lt;/font&gt;" style="text;strokeColor=none;fillColor=none;align=left;verticalAlign=top;spacingLeft=4;spacingRight=4;overflow=hidden;rotatable=0;points=[[0,0.5],[1,0.5]];portConstraint=eastwest;whiteSpace=wrap;html=1;" vertex="1" parent="735r7jLbl9bYlSU7Me6_-13">
          <mxGeometry y="68" width="231" height="26" as="geometry" />
        </mxCell>
        <mxCell id="735r7jLbl9bYlSU7Me6_-17" value="&lt;b&gt;Outro&lt;/b&gt;" style="swimlane;fontStyle=0;childLayout=stackLayout;horizontal=1;startSize=26;fillColor=none;horizontalStack=0;resizeParent=1;resizeParentMax=0;resizeLast=0;collapsible=1;marginBottom=0;whiteSpace=wrap;html=1;" vertex="1" parent="1">
          <mxGeometry x="600" y="768" width="140" height="30" as="geometry" />
        </mxCell>
        <mxCell id="735r7jLbl9bYlSU7Me6_-21" value="PionGraphique" style="swimlane;fontStyle=1;align=center;verticalAlign=top;childLayout=stackLayout;horizontal=1;startSize=26;horizontalStack=0;resizeParent=1;resizeParentMax=0;resizeLast=0;collapsible=1;marginBottom=0;whiteSpace=wrap;html=1;" vertex="1" parent="1">
          <mxGeometry x="51" y="1040" width="310" height="320" as="geometry" />
        </mxCell>
        <mxCell id="735r7jLbl9bYlSU7Me6_-22" value="&lt;font color=&quot;#cda2be&quot;&gt;-&lt;/font&gt;&lt;font color=&quot;#e06c75&quot;&gt;&amp;nbsp;pion&lt;/font&gt;&lt;font color=&quot;#abb2bf&quot;&gt;&amp;nbsp;: Pion&lt;/font&gt;&lt;br&gt;&lt;font color=&quot;#cda2be&quot;&gt;-&lt;/font&gt;&lt;font color=&quot;#e06c75&quot;&gt;&amp;nbsp;color&lt;/font&gt;&lt;font color=&quot;#abb2bf&quot;&gt;&amp;nbsp;: Color&lt;/font&gt;&lt;br&gt;&lt;font color=&quot;#cda2be&quot;&gt;- &lt;/font&gt;&lt;font color=&quot;#e06c75&quot;&gt;x&lt;/font&gt;&lt;font color=&quot;#abb2bf&quot;&gt;&amp;nbsp;: int&amp;nbsp;&lt;/font&gt;&lt;br&gt;&lt;font color=&quot;#cda2be&quot;&gt;-&lt;/font&gt;&lt;font color=&quot;#e06c75&quot;&gt;&amp;nbsp;y&lt;/font&gt;&lt;font color=&quot;#abb2bf&quot;&gt;&amp;nbsp;: int&lt;/font&gt;&lt;br&gt;&lt;font color=&quot;#cda2be&quot;&gt;/&lt;/font&gt;&lt;font color=&quot;#e06c75&quot;&gt;&amp;nbsp;&lt;u&gt;PION_RADIUS_RATIO&lt;/u&gt;&lt;/font&gt;&lt;font color=&quot;#abb2bf&quot;&gt;&amp;nbsp;: final double&lt;/font&gt;&lt;br&gt;&lt;font color=&quot;#cda2be&quot;&gt;/&lt;/font&gt;&lt;font color=&quot;#e06c75&quot;&gt;&amp;nbsp;&lt;u&gt;rayonTete&lt;/u&gt;&lt;/font&gt;&lt;font color=&quot;#abb2bf&quot;&gt;&amp;nbsp;: int&lt;/font&gt;&lt;br&gt;&lt;font color=&quot;#cda2be&quot;&gt;/&lt;/font&gt;&lt;font color=&quot;#e06c75&quot;&gt;&amp;nbsp;centre&lt;/font&gt;&lt;font color=&quot;#abb2bf&quot;&gt;&amp;nbsp;: Point&lt;/font&gt;" style="text;strokeColor=none;fillColor=none;align=left;verticalAlign=top;spacingLeft=4;spacingRight=4;overflow=hidden;rotatable=0;points=[[0,0.5],[1,0.5]];portConstraint=eastwest;whiteSpace=wrap;html=1;" vertex="1" parent="735r7jLbl9bYlSU7Me6_-21">
          <mxGeometry y="26" width="310" height="114" as="geometry" />
        </mxCell>
        <mxCell id="735r7jLbl9bYlSU7Me6_-23" value="" style="line;strokeWidth=1;fillColor=none;align=left;verticalAlign=middle;spacingTop=-1;spacingLeft=3;spacingRight=3;rotatable=0;labelPosition=right;points=[];portConstraint=eastwest;strokeColor=inherit;" vertex="1" parent="735r7jLbl9bYlSU7Me6_-21">
          <mxGeometry y="140" width="310" height="8" as="geometry" />
        </mxCell>
        <mxCell id="735r7jLbl9bYlSU7Me6_-24" value="&lt;font color=&quot;#cda2be&quot;&gt;+&lt;/font&gt;&lt;font color=&quot;#e06c75&quot;&gt;&amp;nbsp;getPion() &lt;/font&gt;&lt;font color=&quot;#abb2bf&quot;&gt;: Pion&lt;/font&gt;&lt;br&gt;&lt;font color=&quot;#cda2be&quot;&gt;+&lt;/font&gt;&lt;font color=&quot;#e06c75&quot;&gt;&amp;nbsp;setPion(Pion)&lt;/font&gt;&lt;font color=&quot;#abb2bf&quot;&gt;&amp;nbsp;: void&lt;/font&gt;&lt;br&gt;&lt;font color=&quot;#cda2be&quot;&gt;+&lt;/font&gt;&lt;font color=&quot;#e06c75&quot;&gt;&amp;nbsp;getColor()&lt;/font&gt;&lt;font color=&quot;#abb2bf&quot;&gt;&amp;nbsp;: Color&lt;/font&gt;&lt;br&gt;&lt;font color=&quot;#cda2be&quot;&gt;+&lt;/font&gt;&lt;font color=&quot;#e06c75&quot;&gt;&amp;nbsp;setColor(Color)&lt;/font&gt;&lt;font color=&quot;#abb2bf&quot;&gt;&amp;nbsp;: void&lt;/font&gt;&lt;br&gt;&lt;font color=&quot;#cda2be&quot;&gt;+&lt;/font&gt;&lt;font color=&quot;#e06c75&quot;&gt;&amp;nbsp;getRayonTete()&lt;/font&gt;&lt;font color=&quot;#abb2bf&quot;&gt;&amp;nbsp;: int&lt;/font&gt;&lt;br&gt;&lt;font color=&quot;#cda2be&quot;&gt;+ &lt;/font&gt;&lt;font color=&quot;#e06c75&quot;&gt;setPosition(int, int) &lt;/font&gt;&lt;font color=&quot;#abb2bf&quot;&gt;: void&lt;/font&gt;&lt;br&gt;&lt;font color=&quot;#cda2be&quot;&gt;+&amp;nbsp;&lt;/font&gt;&lt;font color=&quot;#e06c75&quot;&gt;setPosition(Coordonnee)&amp;nbsp;&lt;/font&gt;&lt;font color=&quot;#abb2bf&quot;&gt;: void&lt;/font&gt;&lt;br&gt;&lt;font color=&quot;#cda2be&quot;&gt;+ &lt;/font&gt;&lt;font color=&quot;#e06c75&quot;&gt;getX() &lt;/font&gt;&lt;font color=&quot;#abb2bf&quot;&gt;: int&lt;/font&gt;&lt;br&gt;&lt;font color=&quot;#cda2be&quot;&gt;+ &lt;/font&gt;&lt;font color=&quot;#e06c75&quot;&gt;getY() &lt;/font&gt;&lt;font color=&quot;#abb2bf&quot;&gt;: int&lt;/font&gt;&lt;br&gt;&lt;font color=&quot;#cda2be&quot;&gt;+ &lt;/font&gt;&lt;font color=&quot;#e06c75&quot;&gt;draw(Graphics2D) &lt;/font&gt;&lt;font color=&quot;#abb2bf&quot;&gt;: void&lt;/font&gt;&lt;br&gt;&lt;font color=&quot;#cda2be&quot;&gt;- &lt;/font&gt;&lt;font color=&quot;#e06c75&quot;&gt;colorByID(Joueur) &lt;/font&gt;&lt;font color=&quot;#abb2bf&quot;&gt;: Color&lt;/font&gt;" style="text;strokeColor=none;fillColor=none;align=left;verticalAlign=top;spacingLeft=4;spacingRight=4;overflow=hidden;rotatable=0;points=[[0,0.5],[1,0.5]];portConstraint=eastwest;whiteSpace=wrap;html=1;" vertex="1" parent="735r7jLbl9bYlSU7Me6_-21">
          <mxGeometry y="148" width="310" height="172" as="geometry" />
        </mxCell>
        <mxCell id="735r7jLbl9bYlSU7Me6_-30" value="searchSave" style="swimlane;fontStyle=1;align=center;verticalAlign=top;childLayout=stackLayout;horizontal=1;startSize=26;horizontalStack=0;resizeParent=1;resizeParentMax=0;resizeLast=0;collapsible=1;marginBottom=0;whiteSpace=wrap;html=1;" vertex="1" parent="1">
          <mxGeometry x="920" y="720" width="270" height="120" as="geometry" />
        </mxCell>
        <mxCell id="735r7jLbl9bYlSU7Me6_-32" value="" style="line;strokeWidth=1;fillColor=none;align=left;verticalAlign=middle;spacingTop=-1;spacingLeft=3;spacingRight=3;rotatable=0;labelPosition=right;points=[];portConstraint=eastwest;strokeColor=inherit;" vertex="1" parent="735r7jLbl9bYlSU7Me6_-30">
          <mxGeometry y="26" width="270" height="8" as="geometry" />
        </mxCell>
        <mxCell id="735r7jLbl9bYlSU7Me6_-33" value="&lt;font color=&quot;#cda2be&quot;&gt;+&lt;/font&gt;&lt;font color=&quot;#e06c75&quot;&gt;&amp;nbsp;&lt;u&gt;isSave(String)&lt;/u&gt; &lt;/font&gt;&lt;font color=&quot;#abb2bf&quot;&gt;: boolean&lt;/font&gt;&lt;br&gt;&lt;font color=&quot;#cda2be&quot;&gt;+ &lt;/font&gt;&lt;font color=&quot;#e06c75&quot;&gt;&lt;u&gt;serExists(File, String)&lt;/u&gt;&amp;nbsp;&lt;/font&gt;&lt;font color=&quot;#abb2bf&quot;&gt;: boolean&lt;/font&gt;&lt;br&gt;&lt;font color=&quot;#cda2be&quot;&gt;+ &lt;/font&gt;&lt;font style=&quot;text-decoration-line: underline;&quot; color=&quot;#e06c75&quot;&gt;existSer(File)&lt;/font&gt;&lt;font color=&quot;#abb2bf&quot; style=&quot;&quot;&gt;&amp;nbsp;: boolean&lt;/font&gt;&lt;br&gt;&lt;font color=&quot;#cda2be&quot;&gt;+ &lt;/font&gt;&lt;u style=&quot;color: rgb(224, 108, 117);&quot;&gt;nameSave()&lt;/u&gt;&lt;font color=&quot;#abb2bf&quot;&gt;&amp;nbsp;: String&lt;/font&gt;&lt;br&gt;&lt;font color=&quot;#cda2be&quot;&gt;+ &lt;/font&gt;&lt;font color=&quot;#e06c75&quot;&gt;&lt;u&gt;tabSer(File, ArrayList&amp;lt;File&amp;gt;)&lt;/u&gt;&amp;nbsp;&lt;/font&gt;&lt;font color=&quot;#abb2bf&quot;&gt;: ArrayList&amp;lt;File&amp;gt;&lt;/font&gt;" style="text;strokeColor=none;fillColor=none;align=left;verticalAlign=top;spacingLeft=4;spacingRight=4;overflow=hidden;rotatable=0;points=[[0,0.5],[1,0.5]];portConstraint=eastwest;whiteSpace=wrap;html=1;" vertex="1" parent="735r7jLbl9bYlSU7Me6_-30">
          <mxGeometry y="34" width="270" height="86" as="geometry" />
        </mxCell>
        <mxCell id="735r7jLbl9bYlSU7Me6_-34" value="StockageSettings" style="swimlane;fontStyle=1;align=center;verticalAlign=top;childLayout=stackLayout;horizontal=1;startSize=26;horizontalStack=0;resizeParent=1;resizeParentMax=0;resizeLast=0;collapsible=1;marginBottom=0;whiteSpace=wrap;html=1;" vertex="1" parent="1">
          <mxGeometry x="390" y="1042" width="289" height="358" as="geometry" />
        </mxCell>
        <mxCell id="735r7jLbl9bYlSU7Me6_-35" value="&lt;font color=&quot;#cda2be&quot;&gt;+&lt;/font&gt;&lt;font color=&quot;#e06c75&quot;&gt;&amp;nbsp;&lt;u&gt;DEBUG_MODE&lt;/u&gt;&lt;/font&gt;&lt;font color=&quot;#abb2bf&quot;&gt;&amp;nbsp;: final boolean&lt;/font&gt;&lt;br&gt;&lt;font color=&quot;#cda2be&quot;&gt;+ &lt;/font&gt;&lt;font color=&quot;#e06c75&quot;&gt;&lt;u&gt;SHOW_COORDS&lt;/u&gt;&amp;nbsp;&lt;/font&gt;&lt;font color=&quot;#abb2bf&quot;&gt;: final boolean&lt;/font&gt;&lt;br&gt;&lt;font color=&quot;#cda2be&quot;&gt;+ &lt;/font&gt;&lt;font style=&quot;text-decoration-line: underline;&quot; color=&quot;#e06c75&quot;&gt;NB_JOUEURS_TOTAL&lt;/font&gt;&lt;font color=&quot;#abb2bf&quot; style=&quot;&quot;&gt;&amp;nbsp;: int&lt;/font&gt;&lt;br&gt;&lt;font color=&quot;#cda2be&quot;&gt;+&lt;/font&gt;&lt;font color=&quot;#e06c75&quot;&gt;&amp;nbsp;&lt;/font&gt;&lt;u style=&quot;color: rgb(224, 108, 117);&quot;&gt;NB_HUMAIN&lt;/u&gt;&lt;font color=&quot;#abb2bf&quot;&gt;&amp;nbsp;: int&lt;/font&gt;&lt;br&gt;&lt;font color=&quot;#cda2be&quot;&gt;+&lt;/font&gt;&lt;font color=&quot;#e06c75&quot;&gt;&amp;nbsp;&lt;u&gt;NB_IA&lt;/u&gt;&amp;nbsp;&lt;/font&gt;&lt;font color=&quot;#abb2bf&quot;&gt;: int&lt;/font&gt;&lt;br&gt;&lt;font color=&quot;#cda2be&quot;&gt;+ &lt;/font&gt;&lt;font color=&quot;#e06c75&quot;&gt;&lt;u&gt;NB_TUILES&lt;/u&gt;&amp;nbsp;&lt;/font&gt;&lt;font color=&quot;#abb2bf&quot;&gt;: int&lt;/font&gt;&lt;br&gt;&lt;font color=&quot;#cda2be&quot;&gt;+ &lt;/font&gt;&lt;u style=&quot;color: rgb(224, 108, 117);&quot;&gt;MAP_ETAT&lt;/u&gt;&lt;font color=&quot;#abb2bf&quot;&gt;&amp;nbsp;: MapEtat&lt;/font&gt;&lt;br&gt;&lt;font color=&quot;#cda2be&quot;&gt;+ &lt;/font&gt;&lt;font color=&quot;#e06c75&quot;&gt;&lt;u&gt;niwaAudio&lt;/u&gt;&amp;nbsp;&lt;/font&gt;&lt;font color=&quot;#abb2bf&quot;&gt;: String&lt;/font&gt;&lt;br&gt;&lt;font color=&quot;#cda2be&quot;&gt;+ &lt;/font&gt;&lt;font color=&quot;#e06c75&quot;&gt;&lt;u&gt;bg_parametreNiwa&lt;/u&gt;&amp;nbsp;&lt;/font&gt;&lt;font color=&quot;#abb2bf&quot;&gt;: String&lt;/font&gt;&lt;br&gt;&lt;font color=&quot;#cda2be&quot;&gt;+ &lt;/font&gt;&lt;font color=&quot;#e06c75&quot;&gt;&lt;u&gt;bg_photo6&lt;/u&gt;&amp;nbsp;&lt;/font&gt;&lt;font color=&quot;#abb2bf&quot;&gt;: String&lt;/font&gt;&lt;br&gt;&lt;font color=&quot;#cda2be&quot;&gt;+ &lt;/font&gt;&lt;font color=&quot;#e06c75&quot;&gt;&lt;u&gt;niwaBeep&lt;/u&gt;&amp;nbsp;&lt;/font&gt;&lt;font color=&quot;#abb2bf&quot;&gt;: String&lt;/font&gt;&lt;br&gt;&lt;font color=&quot;#cda2be&quot;&gt;+ &lt;/font&gt;&lt;font color=&quot;#e06c75&quot;&gt;&lt;u&gt;musicOn&lt;/u&gt;&amp;nbsp;&lt;/font&gt;&lt;font color=&quot;#abb2bf&quot;&gt;: String&lt;/font&gt;&lt;br&gt;&lt;font color=&quot;#cda2be&quot;&gt;+ &lt;/font&gt;&lt;font color=&quot;#e06c75&quot;&gt;&lt;u&gt;musicOf&lt;/u&gt;&amp;nbsp;: &lt;/font&gt;&lt;font color=&quot;#abb2bf&quot;&gt;String&lt;/font&gt;&lt;br&gt;&lt;font color=&quot;#cda2be&quot;&gt;+ &lt;/font&gt;&lt;font color=&quot;#e06c75&quot;&gt;&lt;u&gt;arrow_right&lt;/u&gt;&amp;nbsp;&lt;/font&gt;&lt;font color=&quot;#abb2bf&quot;&gt;: String&lt;/font&gt;&lt;br&gt;&lt;font color=&quot;#cda2be&quot;&gt;+ &lt;/font&gt;&lt;font color=&quot;#e06c75&quot;&gt;&lt;u&gt;arrow_left&lt;/u&gt;&amp;nbsp;&lt;/font&gt;&lt;font color=&quot;#abb2bf&quot;&gt;: String&lt;/font&gt;&lt;br&gt;&lt;font color=&quot;#cda2be&quot;&gt;+ &lt;/font&gt;&lt;font color=&quot;#e06c75&quot;&gt;&lt;u&gt;file_parametreNiwa&lt;/u&gt;&amp;nbsp;&lt;/font&gt;&lt;font color=&quot;#abb2bf&quot;&gt;: File&lt;/font&gt;&lt;br&gt;&lt;font color=&quot;#cda2be&quot;&gt;+ &lt;/font&gt;&lt;font color=&quot;#e06c75&quot;&gt;&lt;u&gt;file_photo6&lt;/u&gt;&amp;nbsp;&lt;/font&gt;&lt;font color=&quot;#abb2bf&quot;&gt;: File&lt;/font&gt;&lt;br&gt;&lt;font color=&quot;#cda2be&quot;&gt;+ &lt;/font&gt;&lt;font color=&quot;#e06c75&quot;&gt;&lt;u&gt;file_musicOn&lt;/u&gt;&amp;nbsp;&lt;/font&gt;&lt;font color=&quot;#abb2bf&quot;&gt;: File&lt;/font&gt;&lt;br&gt;&lt;font color=&quot;#cda2be&quot;&gt;+ &lt;/font&gt;&lt;font color=&quot;#e06c75&quot;&gt;&lt;u&gt;file_musicOf&lt;/u&gt;&amp;nbsp;&lt;/font&gt;&lt;font color=&quot;#abb2bf&quot;&gt;: File&lt;/font&gt;&lt;br&gt;&lt;font color=&quot;#cda2be&quot;&gt;+ &lt;/font&gt;&lt;font color=&quot;#e06c75&quot;&gt;&lt;u&gt;file_arrow_right&lt;/u&gt;&amp;nbsp;&lt;/font&gt;&lt;font color=&quot;#abb2bf&quot;&gt;: File&lt;/font&gt;&lt;br&gt;&lt;font color=&quot;#cda2be&quot;&gt;+ &lt;/font&gt;&lt;font color=&quot;#e06c75&quot;&gt;&lt;u&gt;file_arrow_left&lt;/u&gt;&amp;nbsp;&lt;/font&gt;&lt;font color=&quot;#abb2bf&quot;&gt;: File&lt;/font&gt;" style="text;strokeColor=none;fillColor=none;align=left;verticalAlign=top;spacingLeft=4;spacingRight=4;overflow=hidden;rotatable=0;points=[[0,0.5],[1,0.5]];portConstraint=eastwest;whiteSpace=wrap;html=1;" vertex="1" parent="735r7jLbl9bYlSU7Me6_-34">
          <mxGeometry y="26" width="289" height="324" as="geometry" />
        </mxCell>
        <mxCell id="735r7jLbl9bYlSU7Me6_-36" value="" style="line;strokeWidth=1;fillColor=none;align=left;verticalAlign=middle;spacingTop=-1;spacingLeft=3;spacingRight=3;rotatable=0;labelPosition=right;points=[];portConstraint=eastwest;strokeColor=inherit;" vertex="1" parent="735r7jLbl9bYlSU7Me6_-34">
          <mxGeometry y="350" width="289" height="8" as="geometry" />
        </mxCell>
        <mxCell id="735r7jLbl9bYlSU7Me6_-38" value="TableauDeBord" style="swimlane;fontStyle=1;align=center;verticalAlign=top;childLayout=stackLayout;horizontal=1;startSize=26;horizontalStack=0;resizeParent=1;resizeParentMax=0;resizeLast=0;collapsible=1;marginBottom=0;whiteSpace=wrap;html=1;" vertex="1" parent="1">
          <mxGeometry x="890" y="427" width="223" height="280" as="geometry" />
        </mxCell>
        <mxCell id="735r7jLbl9bYlSU7Me6_-39" value="&lt;font color=&quot;#cda2be&quot;&gt;/ &lt;/font&gt;&lt;font color=&quot;#e06c75&quot;&gt;model &lt;/font&gt;&lt;font color=&quot;#abb2bf&quot;&gt;: Jeu&lt;/font&gt;&lt;br&gt;&lt;font color=&quot;#cda2be&quot;&gt;/ &lt;/font&gt;&lt;font color=&quot;#e06c75&quot;&gt;pioche&lt;/font&gt;&lt;font color=&quot;#abb2bf&quot;&gt;&amp;nbsp;: JLabel&lt;/font&gt;&lt;br&gt;&lt;font color=&quot;#cda2be&quot;&gt;/ &lt;/font&gt;&lt;font color=&quot;#e06c75&quot;&gt;joueurCourant&lt;/font&gt;&lt;font color=&quot;#abb2bf&quot;&gt;&amp;nbsp;: JLabel&lt;/font&gt;&lt;br&gt;&lt;font color=&quot;#cda2be&quot;&gt;/ &lt;/font&gt;&lt;font color=&quot;#e06c75&quot;&gt;etapeCourante &lt;/font&gt;&lt;font color=&quot;#abb2bf&quot;&gt;: JLabel&lt;/font&gt;&lt;br&gt;&lt;font color=&quot;#cda2be&quot;&gt;/ &lt;/font&gt;&lt;font color=&quot;#e06c75&quot;&gt;pionSelectionne &lt;/font&gt;&lt;font color=&quot;#abb2bf&quot;&gt;: PionGraphique&lt;/font&gt;&lt;br&gt;&lt;font color=&quot;#cda2be&quot;&gt;/ &lt;/font&gt;&lt;font color=&quot;#e06c75&quot;&gt;boutonMenu &lt;/font&gt;&lt;font color=&quot;#abb2bf&quot;&gt;: JButton&lt;/font&gt;&lt;br&gt;&lt;font color=&quot;#cda2be&quot;&gt;/ &lt;/font&gt;&lt;font color=&quot;#e06c75&quot;&gt;boutonRegles&lt;/font&gt;&lt;font color=&quot;#abb2bf&quot;&gt;&amp;nbsp;: JButton&lt;/font&gt;&lt;br&gt;&lt;font color=&quot;#cda2be&quot;&gt;/ &lt;/font&gt;&lt;font color=&quot;#e06c75&quot;&gt;boutonRotationHoraire &lt;/font&gt;&lt;font color=&quot;#abb2bf&quot;&gt;: JButton&lt;/font&gt;&lt;br&gt;&lt;font color=&quot;#cda2be&quot;&gt;/ &lt;/font&gt;&lt;font color=&quot;#e06c75&quot;&gt;boutonRotationAntiHoraire&lt;/font&gt;&lt;font color=&quot;#abb2bf&quot;&gt;&amp;nbsp;: JButton&lt;/font&gt;&lt;br&gt;&lt;font color=&quot;#cda2be&quot;&gt;/ &lt;/font&gt;&lt;font color=&quot;#e06c75&quot;&gt;boutonZoom&lt;/font&gt;&lt;font color=&quot;#abb2bf&quot;&gt;&amp;nbsp;: JButton&lt;/font&gt;&lt;br&gt;&lt;font color=&quot;#cda2be&quot;&gt;/ &lt;/font&gt;&lt;font color=&quot;#e06c75&quot;&gt;boutonDezoom&lt;/font&gt;&lt;font color=&quot;#abb2bf&quot;&gt;&amp;nbsp;: JButton&lt;/font&gt;" style="text;strokeColor=none;fillColor=none;align=left;verticalAlign=top;spacingLeft=4;spacingRight=4;overflow=hidden;rotatable=0;points=[[0,0.5],[1,0.5]];portConstraint=eastwest;whiteSpace=wrap;html=1;" vertex="1" parent="735r7jLbl9bYlSU7Me6_-38">
          <mxGeometry y="26" width="223" height="174" as="geometry" />
        </mxCell>
        <mxCell id="735r7jLbl9bYlSU7Me6_-40" value="" style="line;strokeWidth=1;fillColor=none;align=left;verticalAlign=middle;spacingTop=-1;spacingLeft=3;spacingRight=3;rotatable=0;labelPosition=right;points=[];portConstraint=eastwest;strokeColor=inherit;" vertex="1" parent="735r7jLbl9bYlSU7Me6_-38">
          <mxGeometry y="200" width="223" height="8" as="geometry" />
        </mxCell>
        <mxCell id="735r7jLbl9bYlSU7Me6_-41" value="&lt;font color=&quot;#cda2be&quot;&gt;-&lt;/font&gt;&lt;font color=&quot;#e06c75&quot;&gt;&amp;nbsp;setupBoutons()&lt;/font&gt;&lt;font color=&quot;#abb2bf&quot;&gt;&amp;nbsp;: void&lt;/font&gt;&lt;br&gt;&lt;font color=&quot;#cda2be&quot;&gt;/ &lt;/font&gt;&lt;font color=&quot;#e06c75&quot;&gt;setEtapeCourante(String)&lt;/font&gt;&lt;font color=&quot;#abb2bf&quot;&gt;&amp;nbsp;: void&lt;/font&gt;&lt;br&gt;&lt;font color=&quot;#cda2be&quot;&gt;/ &lt;/font&gt;&lt;font color=&quot;#e06c75&quot;&gt;setJoueurCourant(String) &lt;/font&gt;&lt;font color=&quot;#abb2bf&quot;&gt;: void&lt;/font&gt;" style="text;strokeColor=none;fillColor=none;align=left;verticalAlign=top;spacingLeft=4;spacingRight=4;overflow=hidden;rotatable=0;points=[[0,0.5],[1,0.5]];portConstraint=eastwest;whiteSpace=wrap;html=1;" vertex="1" parent="735r7jLbl9bYlSU7Me6_-38">
          <mxGeometry y="208" width="223" height="72" as="geometry" />
        </mxCell>
        <mxCell id="735r7jLbl9bYlSU7Me6_-42" value="TuileGraphique" style="swimlane;fontStyle=1;align=center;verticalAlign=top;childLayout=stackLayout;horizontal=1;startSize=26;horizontalStack=0;resizeParent=1;resizeParentMax=0;resizeLast=0;collapsible=1;marginBottom=0;whiteSpace=wrap;html=1;" vertex="1" parent="1">
          <mxGeometry x="910" y="70" width="320" height="320" as="geometry" />
        </mxCell>
        <mxCell id="735r7jLbl9bYlSU7Me6_-43" value="&lt;font color=&quot;#cda2be&quot;&gt;/&lt;/font&gt;&lt;font color=&quot;#e06c75&quot;&gt;&amp;nbsp;tuile&lt;/font&gt;&lt;font color=&quot;#abb2bf&quot;&gt;&amp;nbsp;: Tuile&lt;/font&gt;&lt;br&gt;&lt;font color=&quot;#cda2be&quot;&gt;/ &lt;/font&gt;&lt;font color=&quot;#e06c75&quot;&gt;&lt;u&gt;radius&lt;/u&gt;&amp;nbsp;&lt;/font&gt;&lt;font color=&quot;#abb2bf&quot;&gt;: int&lt;/font&gt;&lt;br&gt;&lt;font color=&quot;#cda2be&quot;&gt;/ &lt;/font&gt;&lt;font color=&quot;#e06c75&quot;&gt;&lt;u&gt;RADIUS_MIN&lt;/u&gt;&amp;nbsp;&lt;/font&gt;&lt;font color=&quot;#abb2bf&quot;&gt;: final int&lt;/font&gt;&lt;br&gt;&lt;font color=&quot;#cda2be&quot;&gt;/ &lt;/font&gt;&lt;font color=&quot;#e06c75&quot;&gt;&lt;u&gt;RADIUS_MAX&lt;/u&gt;&amp;nbsp;&lt;/font&gt;&lt;font color=&quot;#abb2bf&quot;&gt;: final int&lt;/font&gt;&lt;br&gt;&lt;font color=&quot;#cda2be&quot;&gt;/ &lt;/font&gt;&lt;font color=&quot;#e06c75&quot;&gt;centre &lt;/font&gt;&lt;font color=&quot;#abb2bf&quot;&gt;: Point&lt;/font&gt;&lt;br&gt;&lt;font color=&quot;#cda2be&quot;&gt;/ &lt;/font&gt;&lt;font color=&quot;#e06c75&quot;&gt;centreBas &lt;/font&gt;&lt;font color=&quot;#abb2bf&quot;&gt;: Point&lt;/font&gt;&lt;br&gt;&lt;font color=&quot;#cda2be&quot;&gt;/ &lt;/font&gt;&lt;font color=&quot;#e06c75&quot;&gt;centreGauche &lt;/font&gt;&lt;font color=&quot;#abb2bf&quot;&gt;: Point&lt;/font&gt;&lt;br&gt;&lt;font color=&quot;#cda2be&quot;&gt;/ &lt;/font&gt;&lt;font color=&quot;#e06c75&quot;&gt;centreDroite &lt;/font&gt;&lt;font color=&quot;#abb2bf&quot;&gt;: Point&lt;/font&gt;&lt;br&gt;&lt;font color=&quot;#cda2be&quot;&gt;/ &lt;/font&gt;&lt;font color=&quot;#e06c75&quot;&gt;color &lt;/font&gt;&lt;font color=&quot;#abb2bf&quot;&gt;: Color&lt;/font&gt;&lt;br&gt;&lt;font color=&quot;#cda2be&quot;&gt;/ &lt;/font&gt;&lt;font color=&quot;#e06c75&quot;&gt;&lt;u&gt;HITBOX_CIRCLE_RADIUS_RATIO&lt;/u&gt;&amp;nbsp;&lt;/font&gt;&lt;font color=&quot;#abb2bf&quot;&gt;:&amp;nbsp; final double&lt;/font&gt;&lt;br&gt;&lt;font color=&quot;#cda2be&quot;&gt;/ &lt;/font&gt;&lt;font color=&quot;#e06c75&quot;&gt;cercles&lt;/font&gt;&lt;font color=&quot;#abb2bf&quot;&gt;&amp;nbsp;: Circle[]&lt;/font&gt;&lt;br&gt;&lt;font color=&quot;#cda2be&quot;&gt;/ &lt;/font&gt;&lt;u style=&quot;color: rgb(224, 108, 117);&quot;&gt;DRAW_CIRCLES&lt;/u&gt;&lt;font color=&quot;#abb2bf&quot;&gt;&amp;nbsp;: final boolean&lt;/font&gt;" style="text;strokeColor=none;fillColor=none;align=left;verticalAlign=top;spacingLeft=4;spacingRight=4;overflow=hidden;rotatable=0;points=[[0,0.5],[1,0.5]];portConstraint=eastwest;whiteSpace=wrap;html=1;" vertex="1" parent="735r7jLbl9bYlSU7Me6_-42">
          <mxGeometry y="26" width="320" height="184" as="geometry" />
        </mxCell>
        <mxCell id="735r7jLbl9bYlSU7Me6_-44" value="" style="line;strokeWidth=1;fillColor=none;align=left;verticalAlign=middle;spacingTop=-1;spacingLeft=3;spacingRight=3;rotatable=0;labelPosition=right;points=[];portConstraint=eastwest;strokeColor=inherit;" vertex="1" parent="735r7jLbl9bYlSU7Me6_-42">
          <mxGeometry y="210" width="320" height="8" as="geometry" />
        </mxCell>
        <mxCell id="735r7jLbl9bYlSU7Me6_-45" value="&lt;font color=&quot;#cda2be&quot;&gt;- &lt;/font&gt;&lt;font color=&quot;#e06c75&quot;&gt;defineCercles() &lt;/font&gt;&lt;font color=&quot;#abb2bf&quot;&gt;: void&lt;/font&gt;&lt;br&gt;&lt;font color=&quot;#cda2be&quot;&gt;- &lt;/font&gt;&lt;font color=&quot;#e06c75&quot;&gt;givePoints(Point)&lt;/font&gt;&lt;font color=&quot;#abb2bf&quot;&gt;&amp;nbsp;: Point[]&lt;/font&gt;&lt;br&gt;&lt;font color=&quot;#cda2be&quot;&gt;- &lt;/font&gt;&lt;font color=&quot;#e06c75&quot;&gt;drawLineColor(Graphics,Couleurs, int, int, int, int)&lt;/font&gt;&lt;font color=&quot;#abb2bf&quot;&gt;&amp;nbsp;: void&lt;/font&gt;&lt;br&gt;&lt;font color=&quot;#cda2be&quot;&gt;+ &lt;/font&gt;&lt;font color=&quot;#e06c75&quot;&gt;drawTile(Graphics)&lt;/font&gt;&lt;font color=&quot;#abb2bf&quot;&gt;&amp;nbsp;: void&lt;/font&gt;&lt;br&gt;&lt;font color=&quot;#cda2be&quot;&gt;+ &lt;/font&gt;&lt;font color=&quot;#e06c75&quot;&gt;&lt;u&gt;setRadius(int)&lt;/u&gt;&amp;nbsp;&lt;/font&gt;&lt;font color=&quot;#abb2bf&quot;&gt;: void&lt;/font&gt;&lt;br&gt;&lt;font color=&quot;#cda2be&quot;&gt;+ &lt;/font&gt;&lt;font color=&quot;#e06c75&quot;&gt;&lt;u&gt;zoom(int)&lt;/u&gt;&amp;nbsp;&lt;/font&gt;&lt;font color=&quot;#abb2bf&quot;&gt;: void&lt;/font&gt;" style="text;strokeColor=none;fillColor=none;align=left;verticalAlign=top;spacingLeft=4;spacingRight=4;overflow=hidden;rotatable=0;points=[[0,0.5],[1,0.5]];portConstraint=eastwest;whiteSpace=wrap;html=1;" vertex="1" parent="735r7jLbl9bYlSU7Me6_-42">
          <mxGeometry y="218" width="320" height="102" as="geometry" />
        </mxCell>
        <mxCell id="735r7jLbl9bYlSU7Me6_-46" value="TuileTempleGraphique" style="swimlane;fontStyle=1;align=center;verticalAlign=top;childLayout=stackLayout;horizontal=1;startSize=26;horizontalStack=0;resizeParent=1;resizeParentMax=0;resizeLast=0;collapsible=1;marginBottom=0;whiteSpace=wrap;html=1;" vertex="1" parent="1">
          <mxGeometry x="570" y="954" width="160" height="60" as="geometry" />
        </mxCell>
        <mxCell id="735r7jLbl9bYlSU7Me6_-48" value="" style="line;strokeWidth=1;fillColor=none;align=left;verticalAlign=middle;spacingTop=-1;spacingLeft=3;spacingRight=3;rotatable=0;labelPosition=right;points=[];portConstraint=eastwest;strokeColor=inherit;" vertex="1" parent="735r7jLbl9bYlSU7Me6_-46">
          <mxGeometry y="26" width="160" height="8" as="geometry" />
        </mxCell>
        <mxCell id="735r7jLbl9bYlSU7Me6_-49" value="&lt;font color=&quot;#cda2be&quot;&gt;- &lt;/font&gt;&lt;font color=&quot;#e06c75&quot;&gt;colorByID(Joueur)&lt;/font&gt;&lt;font color=&quot;#abb2bf&quot;&gt;&amp;nbsp;: Color&lt;/font&gt;" style="text;strokeColor=none;fillColor=none;align=left;verticalAlign=top;spacingLeft=4;spacingRight=4;overflow=hidden;rotatable=0;points=[[0,0.5],[1,0.5]];portConstraint=eastwest;whiteSpace=wrap;html=1;" vertex="1" parent="735r7jLbl9bYlSU7Me6_-46">
          <mxGeometry y="34" width="160" height="26" as="geometry" />
        </mxCell>
        <mxCell id="735r7jLbl9bYlSU7Me6_-50" value="ValiderButton" style="swimlane;fontStyle=1;align=center;verticalAlign=top;childLayout=stackLayout;horizontal=1;startSize=26;horizontalStack=0;resizeParent=1;resizeParentMax=0;resizeLast=0;collapsible=1;marginBottom=0;whiteSpace=wrap;html=1;" vertex="1" parent="1">
          <mxGeometry x="980" y="1217" width="230" height="200" as="geometry" />
        </mxCell>
        <mxCell id="735r7jLbl9bYlSU7Me6_-51" value="&lt;font color=&quot;#cda2be&quot;&gt;+&lt;/font&gt;&lt;font color=&quot;#e06c75&quot;&gt;&amp;nbsp;t&lt;/font&gt;&lt;font color=&quot;#abb2bf&quot;&gt;&amp;nbsp;; Thread&lt;/font&gt;&lt;br&gt;&lt;font color=&quot;#cda2be&quot;&gt;+ &lt;/font&gt;&lt;font color=&quot;#e06c75&quot;&gt;&lt;u&gt;threadName&lt;/u&gt;&amp;nbsp;&lt;/font&gt;&lt;font color=&quot;#abb2bf&quot;&gt;: final String&lt;/font&gt;&lt;br&gt;&lt;font color=&quot;#cda2be&quot;&gt;+&lt;/font&gt;&lt;font color=&quot;#e06c75&quot;&gt;&amp;nbsp;conteneur&lt;/font&gt;&lt;font color=&quot;#abb2bf&quot;&gt;&amp;nbsp;: JPanel&lt;/font&gt;&lt;br&gt;&lt;font color=&quot;#cda2be&quot;&gt;+ &lt;/font&gt;&lt;font color=&quot;#e06c75&quot;&gt;btn &lt;/font&gt;&lt;font color=&quot;#abb2bf&quot;&gt;: JButton&lt;/font&gt;&lt;br&gt;&lt;font color=&quot;#cda2be&quot;&gt;+ &lt;/font&gt;&lt;font color=&quot;#e06c75&quot;&gt;manuelButton&lt;/font&gt;&lt;font color=&quot;#abb2bf&quot;&gt;&amp;nbsp;: JRadioButton&lt;/font&gt;&lt;br&gt;&lt;font color=&quot;#cda2be&quot;&gt;+ &lt;/font&gt;&lt;font color=&quot;#e06c75&quot;&gt;autoButton&lt;/font&gt;&lt;font color=&quot;#abb2bf&quot;&gt;&amp;nbsp;: JRadioButton&lt;/font&gt;&lt;br&gt;&lt;font color=&quot;#cda2be&quot;&gt;+ &lt;/font&gt;&lt;font color=&quot;#e06c75&quot;&gt;nmbJoueur&lt;/font&gt;&lt;font color=&quot;#abb2bf&quot;&gt;&amp;nbsp;: JTextField&lt;/font&gt;&lt;br&gt;&lt;font color=&quot;#cda2be&quot;&gt;+&lt;/font&gt;&lt;font color=&quot;#e06c75&quot;&gt;&amp;nbsp;background&lt;/font&gt;&lt;font color=&quot;#abb2bf&quot;&gt;&amp;nbsp;: JLabel&lt;/font&gt;" style="text;strokeColor=none;fillColor=none;align=left;verticalAlign=top;spacingLeft=4;spacingRight=4;overflow=hidden;rotatable=0;points=[[0,0.5],[1,0.5]];portConstraint=eastwest;whiteSpace=wrap;html=1;" vertex="1" parent="735r7jLbl9bYlSU7Me6_-50">
          <mxGeometry y="26" width="230" height="124" as="geometry" />
        </mxCell>
        <mxCell id="735r7jLbl9bYlSU7Me6_-52" value="" style="line;strokeWidth=1;fillColor=none;align=left;verticalAlign=middle;spacingTop=-1;spacingLeft=3;spacingRight=3;rotatable=0;labelPosition=right;points=[];portConstraint=eastwest;strokeColor=inherit;" vertex="1" parent="735r7jLbl9bYlSU7Me6_-50">
          <mxGeometry y="150" width="230" height="8" as="geometry" />
        </mxCell>
        <mxCell id="735r7jLbl9bYlSU7Me6_-53" value="&lt;font color=&quot;#cda2be&quot;&gt;+&lt;/font&gt;&lt;font color=&quot;#e06c75&quot;&gt;&amp;nbsp;actionPerformed(ActionEvent)&lt;/font&gt;&lt;font color=&quot;#abb2bf&quot;&gt;&amp;nbsp;: void&lt;/font&gt;&lt;br&gt;&lt;font color=&quot;#cda2be&quot;&gt;-&lt;/font&gt;&lt;font color=&quot;#e06c75&quot;&gt;&amp;nbsp;&lt;u&gt;lancerPartie()&lt;/u&gt;&amp;nbsp;&lt;/font&gt;&lt;font color=&quot;#abb2bf&quot;&gt;: void&lt;/font&gt;" style="text;strokeColor=none;fillColor=none;align=left;verticalAlign=top;spacingLeft=4;spacingRight=4;overflow=hidden;rotatable=0;points=[[0,0.5],[1,0.5]];portConstraint=eastwest;whiteSpace=wrap;html=1;" vertex="1" parent="735r7jLbl9bYlSU7Me6_-50">
          <mxGeometry y="158" width="230" height="42" as="geometry" />
        </mxCell>
        <mxCell id="735r7jLbl9bYlSU7Me6_-54" value="" style="shape=folder;fontStyle=1;spacingTop=10;tabWidth=10;tabHeight=30;tabPosition=left;html=1;whiteSpace=wrap;" vertex="1" parent="1">
          <mxGeometry x="1290" y="20" width="1410" height="1420" as="geometry" />
        </mxCell>
        <mxCell id="735r7jLbl9bYlSU7Me6_-55" value="Action" style="swimlane;fontStyle=1;align=center;verticalAlign=top;childLayout=stackLayout;horizontal=1;startSize=26;horizontalStack=0;resizeParent=1;resizeParentMax=0;resizeLast=0;collapsible=1;marginBottom=0;whiteSpace=wrap;html=1;" vertex="1" parent="1">
          <mxGeometry x="1320" y="90" width="220" height="200" as="geometry" />
        </mxCell>
        <mxCell id="735r7jLbl9bYlSU7Me6_-56" value="&lt;font color=&quot;#cda2be&quot;&gt;-&amp;nbsp;&lt;/font&gt;&lt;font color=&quot;#e06c75&quot;&gt;selectedPion&lt;/font&gt;&lt;font color=&quot;#abb2bf&quot;&gt;&amp;nbsp;: Pion&lt;/font&gt;&lt;br&gt;&lt;font color=&quot;#cda2be&quot;&gt;- &lt;/font&gt;&lt;font color=&quot;#e06c75&quot;&gt;moveDirection&lt;/font&gt;&lt;font color=&quot;#abb2bf&quot;&gt;&amp;nbsp;: Coordonnee&lt;/font&gt;&lt;br&gt;&lt;font color=&quot;#cda2be&quot;&gt;-&lt;/font&gt;&lt;font color=&quot;#e06c75&quot;&gt;&amp;nbsp;targetPion &lt;/font&gt;&lt;font color=&quot;#abb2bf&quot;&gt;: Pion&lt;/font&gt;" style="text;strokeColor=none;fillColor=none;align=left;verticalAlign=top;spacingLeft=4;spacingRight=4;overflow=hidden;rotatable=0;points=[[0,0.5],[1,0.5]];portConstraint=eastwest;whiteSpace=wrap;html=1;" vertex="1" parent="735r7jLbl9bYlSU7Me6_-55">
          <mxGeometry y="26" width="220" height="54" as="geometry" />
        </mxCell>
        <mxCell id="735r7jLbl9bYlSU7Me6_-57" value="" style="line;strokeWidth=1;fillColor=none;align=left;verticalAlign=middle;spacingTop=-1;spacingLeft=3;spacingRight=3;rotatable=0;labelPosition=right;points=[];portConstraint=eastwest;strokeColor=inherit;" vertex="1" parent="735r7jLbl9bYlSU7Me6_-55">
          <mxGeometry y="80" width="220" height="8" as="geometry" />
        </mxCell>
        <mxCell id="735r7jLbl9bYlSU7Me6_-58" value="&lt;font color=&quot;#cda2be&quot;&gt;+&lt;/font&gt;&lt;font color=&quot;#e06c75&quot;&gt;&amp;nbsp;getSelectedPion()&lt;/font&gt;&lt;font color=&quot;#abb2bf&quot;&gt;&amp;nbsp;: Pion&lt;/font&gt;&lt;br&gt;&lt;font color=&quot;#cda2be&quot;&gt;+ &lt;/font&gt;&lt;font color=&quot;#e06c75&quot;&gt;setSelectedPion(Pion)&lt;/font&gt;&lt;font color=&quot;#cda2be&quot;&gt;&amp;nbsp;&lt;/font&gt;&lt;font color=&quot;#abb2bf&quot;&gt;: void&lt;/font&gt;&lt;br&gt;&lt;font color=&quot;#cda2be&quot;&gt;+ &lt;/font&gt;&lt;font color=&quot;#e06c75&quot;&gt;getMoveDirection() &lt;/font&gt;&lt;font color=&quot;#abb2bf&quot;&gt;Coordonnee&lt;/font&gt;&lt;br&gt;&lt;font color=&quot;#cda2be&quot;&gt;+ &lt;/font&gt;&lt;font color=&quot;#e06c75&quot;&gt;setMoveDirection(Cordonnee)&amp;nbsp;&lt;/font&gt;&lt;font color=&quot;#abb2bf&quot;&gt;&amp;nbsp;void&lt;/font&gt;&lt;br&gt;&lt;font color=&quot;#cda2be&quot;&gt;+ &lt;/font&gt;&lt;font color=&quot;#e06c75&quot;&gt;getTargetPion()&lt;/font&gt;&lt;font color=&quot;#abb2bf&quot;&gt;&amp;nbsp;: Pion&lt;/font&gt;&lt;br&gt;&lt;font color=&quot;#cda2be&quot;&gt;+ &lt;/font&gt;&lt;font color=&quot;#e06c75&quot;&gt;setTargetPion(Pion) &lt;/font&gt;&lt;font color=&quot;#abb2bf&quot;&gt;: void&lt;/font&gt;&lt;br&gt;&lt;font color=&quot;#cda2be&quot;&gt;+ &lt;/font&gt;&lt;font color=&quot;#e06c75&quot;&gt;toString()&lt;/font&gt;&lt;font color=&quot;#abb2bf&quot;&gt;&amp;nbsp;: String&lt;/font&gt;" style="text;strokeColor=none;fillColor=none;align=left;verticalAlign=top;spacingLeft=4;spacingRight=4;overflow=hidden;rotatable=0;points=[[0,0.5],[1,0.5]];portConstraint=eastwest;whiteSpace=wrap;html=1;" vertex="1" parent="735r7jLbl9bYlSU7Me6_-55">
          <mxGeometry y="88" width="220" height="112" as="geometry" />
        </mxCell>
        <mxCell id="735r7jLbl9bYlSU7Me6_-59" value="Coordonnee" style="swimlane;fontStyle=1;align=center;verticalAlign=top;childLayout=stackLayout;horizontal=1;startSize=26;horizontalStack=0;resizeParent=1;resizeParentMax=0;resizeLast=0;collapsible=1;marginBottom=0;whiteSpace=wrap;html=1;" vertex="1" parent="1">
          <mxGeometry x="1320" y="319" width="220" height="160" as="geometry" />
        </mxCell>
        <mxCell id="735r7jLbl9bYlSU7Me6_-60" value="&lt;font color=&quot;#cda2be&quot;&gt;/&lt;/font&gt;&lt;font color=&quot;#e06c75&quot;&gt;&amp;nbsp;x &lt;/font&gt;&lt;font color=&quot;#abb2bf&quot;&gt;: int&lt;/font&gt;&lt;br&gt;&lt;font color=&quot;#cda2be&quot;&gt;/ &lt;/font&gt;&lt;font color=&quot;#e06c75&quot;&gt;y &lt;/font&gt;&lt;font color=&quot;#abb2bf&quot;&gt;: int&lt;/font&gt;" style="text;strokeColor=none;fillColor=none;align=left;verticalAlign=top;spacingLeft=4;spacingRight=4;overflow=hidden;rotatable=0;points=[[0,0.5],[1,0.5]];portConstraint=eastwest;whiteSpace=wrap;html=1;" vertex="1" parent="735r7jLbl9bYlSU7Me6_-59">
          <mxGeometry y="26" width="220" height="44" as="geometry" />
        </mxCell>
        <mxCell id="735r7jLbl9bYlSU7Me6_-61" value="" style="line;strokeWidth=1;fillColor=none;align=left;verticalAlign=middle;spacingTop=-1;spacingLeft=3;spacingRight=3;rotatable=0;labelPosition=right;points=[];portConstraint=eastwest;strokeColor=inherit;" vertex="1" parent="735r7jLbl9bYlSU7Me6_-59">
          <mxGeometry y="70" width="220" height="8" as="geometry" />
        </mxCell>
        <mxCell id="735r7jLbl9bYlSU7Me6_-62" value="&lt;font color=&quot;#cda2be&quot;&gt;+&lt;/font&gt;&lt;font color=&quot;#e06c75&quot;&gt;&amp;nbsp;getX() &lt;/font&gt;&lt;font color=&quot;#abb2bf&quot;&gt;: int&lt;/font&gt;&lt;br&gt;&lt;font color=&quot;#cda2be&quot;&gt;+ &lt;/font&gt;&lt;font color=&quot;#e06c75&quot;&gt;getY()&lt;/font&gt;&lt;font color=&quot;#abb2bf&quot;&gt;&amp;nbsp;: int&lt;/font&gt;&lt;br&gt;&lt;font color=&quot;#cda2be&quot;&gt;+ &lt;/font&gt;&lt;font color=&quot;#e06c75&quot;&gt;equals(Object)&lt;/font&gt;&lt;font color=&quot;#abb2bf&quot;&gt;&amp;nbsp;: boolean&lt;/font&gt;&lt;br&gt;&lt;font color=&quot;#cda2be&quot;&gt;+ &lt;/font&gt;&lt;font color=&quot;#e06c75&quot;&gt;hashCode() &lt;/font&gt;&lt;font color=&quot;#abb2bf&quot;&gt;: int&lt;/font&gt;&lt;br&gt;&lt;font color=&quot;#cda2be&quot;&gt;+ &lt;/font&gt;&lt;font color=&quot;#e06c75&quot;&gt;toString()&lt;/font&gt;&lt;font color=&quot;#abb2bf&quot;&gt;&amp;nbsp;: String&lt;/font&gt;" style="text;strokeColor=none;fillColor=none;align=left;verticalAlign=top;spacingLeft=4;spacingRight=4;overflow=hidden;rotatable=0;points=[[0,0.5],[1,0.5]];portConstraint=eastwest;whiteSpace=wrap;html=1;" vertex="1" parent="735r7jLbl9bYlSU7Me6_-59">
          <mxGeometry y="78" width="220" height="82" as="geometry" />
        </mxCell>
        <mxCell id="735r7jLbl9bYlSU7Me6_-63" value="«enum»&lt;br&gt;&lt;b&gt;Couleurs&lt;/b&gt;" style="html=1;dropTarget=0;whiteSpace=wrap;" vertex="1" parent="1">
          <mxGeometry x="1350" y="500" width="180" height="90" as="geometry" />
        </mxCell>
        <mxCell id="735r7jLbl9bYlSU7Me6_-64" value="" style="shape=module;jettyWidth=8;jettyHeight=4;" vertex="1" parent="735r7jLbl9bYlSU7Me6_-63">
          <mxGeometry x="1" width="20" height="20" relative="1" as="geometry">
            <mxPoint x="-27" y="7" as="offset" />
          </mxGeometry>
        </mxCell>
        <mxCell id="735r7jLbl9bYlSU7Me6_-65" value="Hexagone" style="swimlane;fontStyle=1;align=center;verticalAlign=top;childLayout=stackLayout;horizontal=1;startSize=26;horizontalStack=0;resizeParent=1;resizeParentMax=0;resizeLast=0;collapsible=1;marginBottom=0;whiteSpace=wrap;html=1;" vertex="1" parent="1">
          <mxGeometry x="1320" y="620" width="230" height="190" as="geometry" />
        </mxCell>
        <mxCell id="735r7jLbl9bYlSU7Me6_-66" value="&lt;font color=&quot;#cda2be&quot;&gt;/ &lt;/font&gt;&lt;font color=&quot;#e06c75&quot;&gt;portes&lt;/font&gt;&lt;font color=&quot;#abb2bf&quot;&gt;&amp;nbsp;: Couleurs[]&lt;/font&gt;" style="text;strokeColor=none;fillColor=none;align=left;verticalAlign=top;spacingLeft=4;spacingRight=4;overflow=hidden;rotatable=0;points=[[0,0.5],[1,0.5]];portConstraint=eastwest;whiteSpace=wrap;html=1;" vertex="1" parent="735r7jLbl9bYlSU7Me6_-65">
          <mxGeometry y="26" width="230" height="26" as="geometry" />
        </mxCell>
        <mxCell id="735r7jLbl9bYlSU7Me6_-67" value="" style="line;strokeWidth=1;fillColor=none;align=left;verticalAlign=middle;spacingTop=-1;spacingLeft=3;spacingRight=3;rotatable=0;labelPosition=right;points=[];portConstraint=eastwest;strokeColor=inherit;" vertex="1" parent="735r7jLbl9bYlSU7Me6_-65">
          <mxGeometry y="52" width="230" height="8" as="geometry" />
        </mxCell>
        <mxCell id="735r7jLbl9bYlSU7Me6_-68" value="&lt;font color=&quot;#cda2be&quot;&gt;+&lt;/font&gt;&lt;font color=&quot;#e06c75&quot;&gt;&amp;nbsp;getPortes()&lt;/font&gt;&lt;font color=&quot;#abb2bf&quot;&gt;&amp;nbsp;: Couleurs[]&lt;/font&gt;&lt;br&gt;&lt;font color=&quot;#cda2be&quot;&gt;+ &lt;/font&gt;&lt;font color=&quot;#e06c75&quot;&gt;rotate()&lt;/font&gt;&lt;font color=&quot;#abb2bf&quot;&gt;&amp;nbsp;: void&lt;/font&gt;&lt;br&gt;&lt;font color=&quot;#cda2be&quot;&gt;+ &lt;/font&gt;&lt;font color=&quot;#e06c75&quot;&gt;tamponBy(Hexagone)&lt;/font&gt;&lt;font color=&quot;#abb2bf&quot;&gt;&amp;nbsp;: tamponBy&lt;/font&gt;&lt;br&gt;&lt;font color=&quot;#cda2be&quot;&gt;+&lt;/font&gt;&lt;font color=&quot;#e06c75&quot;&gt;&amp;nbsp;getRotation()&lt;/font&gt;&lt;font color=&quot;#abb2bf&quot;&gt;&amp;nbsp;: Hexagone&lt;/font&gt;&lt;br&gt;&lt;font color=&quot;#cda2be&quot;&gt;+ &lt;/font&gt;&lt;font color=&quot;#e06c75&quot;&gt;copy()&lt;/font&gt;&lt;font color=&quot;#abb2bf&quot;&gt;&amp;nbsp;: Hexagone&lt;/font&gt;&lt;br&gt;&lt;font color=&quot;#cda2be&quot;&gt;+&lt;/font&gt;&lt;font color=&quot;#e06c75&quot;&gt;&amp;nbsp;isNull()&lt;/font&gt;&lt;font color=&quot;#abb2bf&quot;&gt;&amp;nbsp;: boolean&lt;/font&gt;&lt;br&gt;&lt;font color=&quot;#cda2be&quot;&gt;+ &lt;/font&gt;&lt;font color=&quot;#e06c75&quot;&gt;toString() &lt;/font&gt;&lt;font color=&quot;#abb2bf&quot;&gt;: String&lt;/font&gt;&lt;br&gt;&lt;font color=&quot;#cda2be&quot;&gt;+ &lt;/font&gt;&lt;font color=&quot;#e06c75&quot;&gt;toStringPartiel()&lt;/font&gt;&lt;font color=&quot;#abb2bf&quot;&gt;&amp;nbsp;: String&lt;/font&gt;" style="text;strokeColor=none;fillColor=none;align=left;verticalAlign=top;spacingLeft=4;spacingRight=4;overflow=hidden;rotatable=0;points=[[0,0.5],[1,0.5]];portConstraint=eastwest;whiteSpace=wrap;html=1;" vertex="1" parent="735r7jLbl9bYlSU7Me6_-65">
          <mxGeometry y="60" width="230" height="130" as="geometry" />
        </mxCell>
        <mxCell id="735r7jLbl9bYlSU7Me6_-194" value="&amp;lt;&amp;lt;extends&amp;gt;&amp;gt;" style="edgeStyle=orthogonalEdgeStyle;rounded=0;orthogonalLoop=1;jettySize=auto;html=1;exitX=0.5;exitY=0;exitDx=0;exitDy=0;entryX=0.487;entryY=1;entryDx=0;entryDy=0;entryPerimeter=0;" edge="1" parent="1" source="735r7jLbl9bYlSU7Me6_-72" target="735r7jLbl9bYlSU7Me6_-68">
          <mxGeometry relative="1" as="geometry" />
        </mxCell>
        <mxCell id="735r7jLbl9bYlSU7Me6_-72" value="HexagoneCentral" style="swimlane;fontStyle=1;align=center;verticalAlign=top;childLayout=stackLayout;horizontal=1;startSize=26;horizontalStack=0;resizeParent=1;resizeParentMax=0;resizeLast=0;collapsible=1;marginBottom=0;whiteSpace=wrap;html=1;" vertex="1" parent="1">
          <mxGeometry x="1320" y="844" width="220" height="198" as="geometry" />
        </mxCell>
        <mxCell id="735r7jLbl9bYlSU7Me6_-73" value="&lt;p style=&quot;border-color: var(--border-color); margin: 0px 0px 0px 4px;&quot;&gt;&lt;font style=&quot;border-color: var(--border-color);&quot; color=&quot;#cda2be&quot;&gt;/&lt;/font&gt;&lt;font style=&quot;border-color: var(--border-color);&quot; color=&quot;#e06c75&quot;&gt;&amp;nbsp;temple&amp;nbsp;&lt;/font&gt;&lt;font style=&quot;border-color: var(--border-color);&quot; color=&quot;#abb2bf&quot;&gt;: boolean&lt;/font&gt;&lt;/p&gt;&lt;p style=&quot;border-color: var(--border-color); margin: 0px 0px 0px 4px;&quot;&gt;&lt;font style=&quot;border-color: var(--border-color);&quot; color=&quot;#cda2be&quot;&gt;/&amp;nbsp;&lt;/font&gt;&lt;font style=&quot;border-color: var(--border-color);&quot; color=&quot;#e06c75&quot;&gt;location&lt;/font&gt;&lt;font style=&quot;border-color: var(--border-color);&quot; color=&quot;#abb2bf&quot;&gt;&amp;nbsp;: Coordonnee&lt;/font&gt;&lt;/p&gt;" style="text;strokeColor=none;fillColor=none;align=left;verticalAlign=top;spacingLeft=4;spacingRight=4;overflow=hidden;rotatable=0;points=[[0,0.5],[1,0.5]];portConstraint=eastwest;whiteSpace=wrap;html=1;" vertex="1" parent="735r7jLbl9bYlSU7Me6_-72">
          <mxGeometry y="26" width="220" height="34" as="geometry" />
        </mxCell>
        <mxCell id="735r7jLbl9bYlSU7Me6_-74" value="" style="line;strokeWidth=1;fillColor=none;align=left;verticalAlign=middle;spacingTop=-1;spacingLeft=3;spacingRight=3;rotatable=0;labelPosition=right;points=[];portConstraint=eastwest;strokeColor=inherit;" vertex="1" parent="735r7jLbl9bYlSU7Me6_-72">
          <mxGeometry y="60" width="220" height="8" as="geometry" />
        </mxCell>
        <mxCell id="735r7jLbl9bYlSU7Me6_-75" value="&lt;font color=&quot;#cda2be&quot;&gt;+&lt;/font&gt;&lt;font color=&quot;#e06c75&quot;&gt;&amp;nbsp;setTemple(boolean)&amp;nbsp;&lt;/font&gt;&lt;font color=&quot;#abb2bf&quot;&gt;: void&lt;/font&gt;&lt;br&gt;&lt;font color=&quot;#cda2be&quot;&gt;+ &lt;/font&gt;&lt;font color=&quot;#e06c75&quot;&gt;isTemple() &lt;/font&gt;&lt;font color=&quot;#abb2bf&quot;&gt;: boolean&lt;/font&gt;&lt;br&gt;&lt;font color=&quot;#cda2be&quot;&gt;+ &lt;/font&gt;&lt;font color=&quot;#e06c75&quot;&gt;copy()&lt;/font&gt;&lt;font color=&quot;#abb2bf&quot;&gt;&amp;nbsp;: HexagoneCentral&lt;/font&gt;&lt;br&gt;&lt;font color=&quot;#cda2be&quot;&gt;+ &lt;/font&gt;&lt;font color=&quot;#e06c75&quot;&gt;getRotation()&lt;/font&gt;&lt;font color=&quot;#abb2bf&quot;&gt;&amp;nbsp;: HexagoneCentral&lt;/font&gt;&lt;br&gt;&lt;font color=&quot;#cda2be&quot;&gt;+ &lt;/font&gt;&lt;font color=&quot;#e06c75&quot;&gt;setLocation(Coordonnee) &lt;/font&gt;&lt;font color=&quot;#abb2bf&quot;&gt;: void&lt;/font&gt;&lt;br&gt;&lt;font color=&quot;#cda2be&quot;&gt;+&lt;/font&gt;&lt;font color=&quot;#e06c75&quot;&gt;&amp;nbsp;setLocation(int, int) &lt;/font&gt;&lt;font color=&quot;#abb2bf&quot;&gt;: void&lt;/font&gt;&lt;br&gt;&lt;font color=&quot;#cda2be&quot;&gt;+ &lt;/font&gt;&lt;font color=&quot;#e06c75&quot;&gt;getLocation() &lt;/font&gt;&lt;font color=&quot;#abb2bf&quot;&gt;: Cordonnee&lt;/font&gt;&lt;br&gt;&lt;font color=&quot;#cda2be&quot;&gt;+ &lt;/font&gt;&lt;font color=&quot;#e06c75&quot;&gt;getLocationInGridTuile() &lt;/font&gt;&lt;font color=&quot;#abb2bf&quot;&gt;: Cordonnee&lt;/font&gt;" style="text;strokeColor=none;fillColor=none;align=left;verticalAlign=top;spacingLeft=4;spacingRight=4;overflow=hidden;rotatable=0;points=[[0,0.5],[1,0.5]];portConstraint=eastwest;whiteSpace=wrap;html=1;" vertex="1" parent="735r7jLbl9bYlSU7Me6_-72">
          <mxGeometry y="68" width="220" height="130" as="geometry" />
        </mxCell>
        <mxCell id="735r7jLbl9bYlSU7Me6_-195" style="edgeStyle=orthogonalEdgeStyle;rounded=0;orthogonalLoop=1;jettySize=auto;html=1;exitX=0.75;exitY=0;exitDx=0;exitDy=0;entryX=1;entryY=0.5;entryDx=0;entryDy=0;" edge="1" parent="1" source="735r7jLbl9bYlSU7Me6_-76" target="735r7jLbl9bYlSU7Me6_-150">
          <mxGeometry relative="1" as="geometry">
            <Array as="points">
              <mxPoint x="1798" y="70" />
              <mxPoint x="2660" y="70" />
              <mxPoint x="2660" y="1176" />
            </Array>
          </mxGeometry>
        </mxCell>
        <mxCell id="735r7jLbl9bYlSU7Me6_-196" value="&amp;lt;&amp;lt;implements&amp;gt;&amp;gt;" style="edgeLabel;html=1;align=center;verticalAlign=middle;resizable=0;points=[];" vertex="1" connectable="0" parent="735r7jLbl9bYlSU7Me6_-195">
          <mxGeometry x="-0.3137" y="3" relative="1" as="geometry">
            <mxPoint x="-1" y="1" as="offset" />
          </mxGeometry>
        </mxCell>
        <mxCell id="735r7jLbl9bYlSU7Me6_-76" value="Jeu" style="swimlane;fontStyle=1;align=center;verticalAlign=top;childLayout=stackLayout;horizontal=1;startSize=26;horizontalStack=0;resizeParent=1;resizeParentMax=0;resizeLast=0;collapsible=1;marginBottom=0;whiteSpace=wrap;html=1;" vertex="1" parent="1">
          <mxGeometry x="1580" y="90" width="290" height="820" as="geometry" />
        </mxCell>
        <mxCell id="735r7jLbl9bYlSU7Me6_-77" value="&lt;font color=&quot;#cda2be&quot;&gt;/&lt;/font&gt;&lt;font color=&quot;#e06c75&quot;&gt;&amp;nbsp;joueurs &lt;/font&gt;&lt;font color=&quot;#abb2bf&quot;&gt;: ArrayList&amp;lt;Joueur&amp;gt;&lt;/font&gt;&lt;br&gt;&lt;font color=&quot;#cda2be&quot;&gt;/&lt;/font&gt;&lt;font color=&quot;#e06c75&quot;&gt;&amp;nbsp;gangeurs&lt;/font&gt;&lt;font color=&quot;#abb2bf&quot;&gt;&amp;nbsp;: ArrayList&amp;lt;Joueur&amp;gt;&lt;/font&gt;&lt;br&gt;&lt;font color=&quot;#cda2be&quot;&gt;/&lt;/font&gt;&lt;font color=&quot;#e06c75&quot;&gt;&amp;nbsp;perdants&lt;/font&gt;&lt;font color=&quot;#abb2bf&quot;&gt;&amp;nbsp;: ArrayList&amp;lt;Joueur&amp;gt;&lt;/font&gt;&lt;br&gt;&lt;font color=&quot;#cda2be&quot;&gt;/ &lt;/font&gt;&lt;font color=&quot;#e06c75&quot;&gt;joueurCourant&lt;/font&gt;&lt;font color=&quot;#abb2bf&quot;&gt;&amp;nbsp;: Joueur&lt;/font&gt;&lt;br&gt;&lt;font color=&quot;#cda2be&quot;&gt;/&lt;/font&gt;&lt;font color=&quot;#e06c75&quot;&gt;&amp;nbsp;plateau&lt;/font&gt;&lt;font color=&quot;#abb2bf&quot;&gt;&amp;nbsp;: Plateau&lt;/font&gt;&lt;br&gt;&lt;font color=&quot;#cda2be&quot;&gt;/ &lt;/font&gt;&lt;font color=&quot;#e06c75&quot;&gt;sac&lt;/font&gt;&lt;font color=&quot;#abb2bf&quot;&gt;&amp;nbsp;: ArrayList&amp;lt;Tuile&amp;gt;&lt;/font&gt;&lt;br&gt;&lt;font color=&quot;#cda2be&quot;&gt;/&lt;/font&gt;&lt;font color=&quot;#e06c75&quot;&gt;&amp;nbsp;sacTemples&lt;/font&gt;&lt;font color=&quot;#abb2bf&quot;&gt;&amp;nbsp;: ArrayList&amp;lt;TuileTemple&amp;gt;&lt;/font&gt;&lt;br&gt;&lt;font color=&quot;#cda2be&quot;&gt;/ &lt;/font&gt;&lt;font color=&quot;#e06c75&quot;&gt;tuileCourante&lt;/font&gt;&lt;font color=&quot;#abb2bf&quot;&gt;&amp;nbsp;: Tuile&lt;/font&gt;&lt;br&gt;&lt;font color=&quot;#cda2be&quot;&gt;/ &lt;/font&gt;&lt;font color=&quot;#e06c75&quot;&gt;pionCourant&lt;/font&gt;&lt;font color=&quot;#abb2bf&quot;&gt;&amp;nbsp;: Pion&lt;/font&gt;&lt;br&gt;&lt;font color=&quot;#cda2be&quot;&gt;/ &lt;/font&gt;&lt;font color=&quot;#e06c75&quot;&gt;jeuEtat &lt;/font&gt;&lt;font color=&quot;#abb2bf&quot;&gt;: JeuEtat&lt;/font&gt;&lt;br&gt;&lt;font color=&quot;#cda2be&quot;&gt;/ &lt;/font&gt;&lt;font color=&quot;#e06c75&quot;&gt;dernierEtat&lt;/font&gt;&lt;font color=&quot;#abb2bf&quot;&gt;&amp;nbsp;: JeuEtat&lt;/font&gt;&lt;br&gt;&lt;font color=&quot;#cda2be&quot;&gt;/ &lt;/font&gt;&lt;font color=&quot;#e06c75&quot;&gt;mapEtat&lt;/font&gt;&lt;font color=&quot;#abb2bf&quot;&gt;&amp;nbsp;: mapEtat&lt;/font&gt;&lt;br&gt;&lt;font color=&quot;#cda2be&quot;&gt;+ &lt;/font&gt;&lt;font style=&quot;&quot; color=&quot;#e06c75&quot;&gt;&lt;u&gt;NB_PEARL_MAX&lt;/u&gt;&amp;nbsp;&lt;/font&gt;&lt;font color=&quot;#abb2bf&quot;&gt;: int&lt;/font&gt;&lt;br&gt;&lt;font color=&quot;#cda2be&quot;&gt;+ &lt;/font&gt;&lt;font color=&quot;#e06c75&quot;&gt;&lt;u&gt;NB_PEARLS_AT_START&lt;/u&gt;&amp;nbsp;&lt;/font&gt;&lt;font color=&quot;#abb2bf&quot;&gt;: int&lt;/font&gt;&lt;br&gt;&lt;font color=&quot;#cda2be&quot;&gt;+ &lt;/font&gt;&lt;font color=&quot;#e06c75&quot;&gt;&lt;u&gt;NB_PIONS&lt;/u&gt;&amp;nbsp;&lt;/font&gt;&lt;font color=&quot;#abb2bf&quot;&gt;: int&lt;/font&gt;&lt;br&gt;&lt;font color=&quot;#cda2be&quot;&gt;/ &lt;/font&gt;&lt;font color=&quot;#e06c75&quot;&gt;almostBlockedCount &lt;/font&gt;&lt;font color=&quot;#abb2bf&quot;&gt;: int&lt;/font&gt;" style="text;strokeColor=none;fillColor=none;align=left;verticalAlign=top;spacingLeft=4;spacingRight=4;overflow=hidden;rotatable=0;points=[[0,0.5],[1,0.5]];portConstraint=eastwest;whiteSpace=wrap;html=1;" vertex="1" parent="735r7jLbl9bYlSU7Me6_-76">
          <mxGeometry y="26" width="290" height="244" as="geometry" />
        </mxCell>
        <mxCell id="735r7jLbl9bYlSU7Me6_-78" value="" style="line;strokeWidth=1;fillColor=none;align=left;verticalAlign=middle;spacingTop=-1;spacingLeft=3;spacingRight=3;rotatable=0;labelPosition=right;points=[];portConstraint=eastwest;strokeColor=inherit;" vertex="1" parent="735r7jLbl9bYlSU7Me6_-76">
          <mxGeometry y="270" width="290" height="8" as="geometry" />
        </mxCell>
        <mxCell id="735r7jLbl9bYlSU7Me6_-79" value="&lt;font color=&quot;#cda2be&quot;&gt;+ &lt;/font&gt;&lt;font color=&quot;#e06c75&quot;&gt;initJoueurs(int, int) &lt;/font&gt;&lt;font color=&quot;#abb2bf&quot;&gt;: void&lt;/font&gt;&lt;br&gt;&lt;font color=&quot;#cda2be&quot;&gt;+ &lt;/font&gt;&lt;font color=&quot;#e06c75&quot;&gt;isAiTraining() &lt;/font&gt;&lt;font color=&quot;#abb2bf&quot;&gt;: boolean&lt;br&gt;&lt;/font&gt;&lt;font color=&quot;#cda2be&quot;&gt;+ &lt;/font&gt;&lt;font color=&quot;#e06c75&quot;&gt;initSac(MapEtat, int)&lt;/font&gt;&lt;font color=&quot;#abb2bf&quot;&gt;&amp;nbsp;: void&lt;br&gt;&lt;/font&gt;&lt;font color=&quot;#cda2be&quot;&gt;+ &lt;/font&gt;&lt;font color=&quot;#e06c75&quot;&gt;piocher() &lt;/font&gt;&lt;font color=&quot;#abb2bf&quot;&gt;: Tuile&lt;br&gt;&lt;/font&gt;&lt;font color=&quot;#cda2be&quot;&gt;+ &lt;/font&gt;&lt;font color=&quot;#e06c75&quot;&gt;allPionsPlaced() &lt;/font&gt;&lt;font color=&quot;#abb2bf&quot;&gt;: boolean&lt;br&gt;&lt;/font&gt;&lt;font color=&quot;#cda2be&quot;&gt;+ &lt;/font&gt;&lt;font color=&quot;#e06c75&quot;&gt;aGagne(Joueur) &lt;/font&gt;&lt;font color=&quot;#abb2bf&quot;&gt;: boolean&lt;br&gt;&lt;/font&gt;&lt;font color=&quot;#cda2be&quot;&gt;+ &lt;/font&gt;&lt;font color=&quot;#e06c75&quot;&gt;verifyIfPlayerBlocked()&lt;/font&gt;&lt;font color=&quot;#abb2bf&quot;&gt;&amp;nbsp;: void&lt;br&gt;&lt;/font&gt;&lt;font color=&quot;#cda2be&quot;&gt;+ &lt;/font&gt;&lt;font color=&quot;#e06c75&quot;&gt;eliminerJoueur(Joueur)&lt;/font&gt;&lt;font color=&quot;#abb2bf&quot;&gt;&amp;nbsp;: void&lt;br&gt;&lt;/font&gt;&lt;font color=&quot;#cda2be&quot;&gt;+ &lt;/font&gt;&lt;font color=&quot;#e06c75&quot;&gt;getOpponentBase() &lt;/font&gt;&lt;font color=&quot;#abb2bf&quot;&gt;: Coordonnee&lt;br&gt;&lt;/font&gt;&lt;font color=&quot;#cda2be&quot;&gt;+ &lt;/font&gt;&lt;font color=&quot;#e06c75&quot;&gt;getReward() &lt;/font&gt;&lt;font color=&quot;#abb2bf&quot;&gt;: double&lt;br&gt;&lt;/font&gt;&lt;font color=&quot;#cda2be&quot;&gt;+ &lt;/font&gt;&lt;font color=&quot;#e06c75&quot;&gt;gameOver() &lt;/font&gt;&lt;font color=&quot;#abb2bf&quot;&gt;: void&lt;br&gt;&lt;/font&gt;&lt;font color=&quot;#cda2be&quot;&gt;+ &lt;/font&gt;&lt;font color=&quot;#e06c75&quot;&gt;setJoueurCourant(Joueur)&lt;/font&gt;&lt;font color=&quot;#abb2bf&quot;&gt;&amp;nbsp;: void&lt;br&gt;&lt;/font&gt;&lt;font color=&quot;#cda2be&quot;&gt;+ &lt;/font&gt;&lt;font color=&quot;#e06c75&quot;&gt;setPionCourant(Pion) &lt;/font&gt;&lt;font color=&quot;#abb2bf&quot;&gt;: void&lt;br&gt;&lt;/font&gt;&lt;font color=&quot;#cda2be&quot;&gt;+ &lt;/font&gt;&lt;font color=&quot;#e06c75&quot;&gt;setPerdant(Joueur)&lt;/font&gt;&lt;font color=&quot;#abb2bf&quot;&gt;&amp;nbsp;: void&lt;br&gt;&lt;/font&gt;&lt;font color=&quot;#cda2be&quot;&gt;+ &lt;/font&gt;&lt;font color=&quot;#e06c75&quot;&gt;setGagneur(Joueur)&lt;/font&gt;&lt;font color=&quot;#abb2bf&quot;&gt;&amp;nbsp;: void&lt;br&gt;&lt;/font&gt;&lt;font color=&quot;#cda2be&quot;&gt;+ &lt;/font&gt;&lt;font color=&quot;#e06c75&quot;&gt;setTuileCourante(Tuile)&lt;/font&gt;&lt;font color=&quot;#abb2bf&quot;&gt;&amp;nbsp;: void&lt;br&gt;&lt;/font&gt;&lt;font color=&quot;#cda2be&quot;&gt;+ &lt;/font&gt;&lt;font color=&quot;#e06c75&quot;&gt;setJeuEtat(JeuEtat)&lt;/font&gt;&lt;font color=&quot;#abb2bf&quot;&gt;&amp;nbsp;: void&lt;br&gt;&lt;/font&gt;&lt;font color=&quot;#cda2be&quot;&gt;+ &lt;/font&gt;&lt;font color=&quot;#e06c75&quot;&gt;setDernierEtat(JeuEtat) &lt;/font&gt;&lt;font color=&quot;#abb2bf&quot;&gt;: void&lt;br&gt;&lt;/font&gt;&lt;font color=&quot;#cda2be&quot;&gt;+ &lt;/font&gt;&lt;font color=&quot;#e06c75&quot;&gt;getJeuEtat() &lt;/font&gt;&lt;font color=&quot;#abb2bf&quot;&gt;: JeuEtat&lt;br&gt;&lt;/font&gt;&lt;font color=&quot;#cda2be&quot;&gt;+ &lt;/font&gt;&lt;font color=&quot;#e06c75&quot;&gt;getMapEtat() &lt;/font&gt;&lt;font color=&quot;#abb2bf&quot;&gt;MapEtat&lt;br&gt;&lt;/font&gt;&lt;font color=&quot;#cda2be&quot;&gt;+ &lt;/font&gt;&lt;font color=&quot;#e06c75&quot;&gt;getDernierEtat() &lt;/font&gt;&lt;font color=&quot;#abb2bf&quot;&gt;: JeuEtat&lt;br&gt;&lt;/font&gt;&lt;font color=&quot;#cda2be&quot;&gt;+ &lt;/font&gt;&lt;font color=&quot;#e06c75&quot;&gt;getJoueurs() &lt;/font&gt;&lt;font color=&quot;#abb2bf&quot;&gt;: ArrayList&amp;lt;Joueur&amp;gt;&lt;br&gt;&lt;/font&gt;&lt;font color=&quot;#cda2be&quot;&gt;+ &lt;/font&gt;&lt;font color=&quot;#e06c75&quot;&gt;getPlateau()&lt;/font&gt;&lt;font color=&quot;#abb2bf&quot;&gt;&amp;nbsp;: Plateau&lt;br&gt;&lt;/font&gt;&lt;font color=&quot;#cda2be&quot;&gt;+ &lt;/font&gt;&lt;font color=&quot;#e06c75&quot;&gt;getSac() &lt;/font&gt;&lt;font color=&quot;#abb2bf&quot;&gt;: ArrayList&amp;lt;Tuile&amp;gt;&lt;br&gt;&lt;/font&gt;&lt;font color=&quot;#cda2be&quot;&gt;+ &lt;/font&gt;&lt;font color=&quot;#e06c75&quot;&gt;getSacTemples()&amp;nbsp;&lt;/font&gt;&lt;font color=&quot;#abb2bf&quot;&gt;: ArrayList&amp;lt;TuileTemple&amp;gt;&lt;/font&gt;&lt;br&gt;&lt;font color=&quot;#cda2be&quot;&gt;+ &lt;/font&gt;&lt;font color=&quot;#e06c75&quot;&gt;getGagneurs()&lt;/font&gt;&lt;font color=&quot;#abb2bf&quot;&gt;&amp;nbsp;: ArrayList&amp;lt;Joueur&amp;gt;&lt;br&gt;&lt;/font&gt;&lt;font color=&quot;#cda2be&quot;&gt;+ &lt;/font&gt;&lt;font color=&quot;#e06c75&quot;&gt;getPerdants() &lt;/font&gt;&lt;font color=&quot;#abb2bf&quot;&gt;: ArrayList&amp;lt;Joueur&amp;gt;&lt;br&gt;&lt;/font&gt;&lt;font color=&quot;#cda2be&quot;&gt;+ &lt;/font&gt;&lt;font color=&quot;#e06c75&quot;&gt;getJoueurCourant()&lt;/font&gt;&lt;font color=&quot;#abb2bf&quot;&gt;&amp;nbsp;: Joueur&lt;br&gt;&lt;/font&gt;&lt;font color=&quot;#cda2be&quot;&gt;+ &lt;/font&gt;&lt;font color=&quot;#e06c75&quot;&gt;getTuileCourant() &lt;/font&gt;&lt;font color=&quot;#abb2bf&quot;&gt;: Tuile&lt;br&gt;&lt;/font&gt;&lt;font color=&quot;#cda2be&quot;&gt;+ &lt;/font&gt;&lt;font color=&quot;#e06c75&quot;&gt;getPionCourant()&amp;nbsp;&lt;/font&gt;&lt;font color=&quot;#abb2bf&quot;&gt;: Pion&lt;br&gt;&lt;/font&gt;&lt;font color=&quot;#cda2be&quot;&gt;+ &lt;/font&gt;&lt;font color=&quot;#e06c75&quot;&gt;popTemple() &lt;/font&gt;&lt;font color=&quot;#abb2bf&quot;&gt;: TuileTemple&lt;br&gt;&lt;/font&gt;&lt;font color=&quot;#cda2be&quot;&gt;+ &lt;/font&gt;&lt;font color=&quot;#e06c75&quot;&gt;resetAlmostBlockedCount()&lt;/font&gt;&lt;font color=&quot;#abb2bf&quot;&gt;&amp;nbsp;: void&lt;br&gt;&lt;/font&gt;&lt;font color=&quot;#cda2be&quot;&gt;+ &lt;/font&gt;&lt;font color=&quot;#e06c75&quot;&gt;incrementAlmostBlockedCount()&lt;/font&gt;&lt;font color=&quot;#abb2bf&quot;&gt;&amp;nbsp;: void&lt;br&gt;&lt;/font&gt;&lt;font color=&quot;#cda2be&quot;&gt;+ &lt;/font&gt;&lt;font color=&quot;#e06c75&quot;&gt;getAlmostBlockedCount()&lt;/font&gt;&lt;font color=&quot;#abb2bf&quot;&gt;&amp;nbsp;: int&lt;br&gt;&lt;/font&gt;&lt;font color=&quot;#cda2be&quot;&gt;+ &lt;/font&gt;&lt;font color=&quot;#e06c75&quot;&gt;equals(Object) &lt;/font&gt;&lt;font color=&quot;#abb2bf&quot;&gt;: boolean&lt;br&gt;&lt;/font&gt;&lt;font color=&quot;#cda2be&quot;&gt;+ &lt;/font&gt;&lt;font color=&quot;#e06c75&quot;&gt;toString() &lt;/font&gt;&lt;font color=&quot;#abb2bf&quot;&gt;: String&lt;br&gt;&lt;/font&gt;&lt;font color=&quot;#cda2be&quot;&gt;+ &lt;/font&gt;&lt;font color=&quot;#e06c75&quot;&gt;&lt;u&gt;isDefaultGame()&lt;/u&gt;&amp;nbsp;&lt;/font&gt;&lt;font color=&quot;#abb2bf&quot;&gt;: boolean&lt;/font&gt;" style="text;strokeColor=none;fillColor=none;align=left;verticalAlign=top;spacingLeft=4;spacingRight=4;overflow=hidden;rotatable=0;points=[[0,0.5],[1,0.5]];portConstraint=eastwest;whiteSpace=wrap;html=1;" vertex="1" parent="735r7jLbl9bYlSU7Me6_-76">
          <mxGeometry y="278" width="290" height="542" as="geometry" />
        </mxCell>
        <mxCell id="735r7jLbl9bYlSU7Me6_-84" value="«enum»&lt;br&gt;&lt;b&gt;JeuEtat&lt;/b&gt;" style="html=1;whiteSpace=wrap;" vertex="1" parent="1">
          <mxGeometry x="1570" y="934" width="110" height="50" as="geometry" />
        </mxCell>
        <mxCell id="735r7jLbl9bYlSU7Me6_-85" value="Joueur" style="swimlane;fontStyle=1;align=center;verticalAlign=top;childLayout=stackLayout;horizontal=1;startSize=26;horizontalStack=0;resizeParent=1;resizeParentMax=0;resizeLast=0;collapsible=1;marginBottom=0;whiteSpace=wrap;html=1;" vertex="1" parent="1">
          <mxGeometry x="1320" y="1070" width="230" height="280" as="geometry" />
        </mxCell>
        <mxCell id="735r7jLbl9bYlSU7Me6_-86" value="&lt;font color=&quot;#cda2be&quot;&gt;/&lt;/font&gt;&lt;font color=&quot;#e06c75&quot;&gt;&amp;nbsp;&lt;u&gt;ID_STATIC&lt;/u&gt;&amp;nbsp;&lt;/font&gt;&lt;font color=&quot;#abb2bf&quot;&gt;: int&lt;/font&gt;&lt;br&gt;&lt;font color=&quot;#cda2be&quot;&gt;/ &lt;/font&gt;&lt;font color=&quot;#e06c75&quot;&gt;id &lt;/font&gt;&lt;font color=&quot;#abb2bf&quot;&gt;: int&lt;/font&gt;&lt;br&gt;&lt;font color=&quot;#cda2be&quot;&gt;/ &lt;/font&gt;&lt;font color=&quot;#e06c75&quot;&gt;temple &lt;/font&gt;&lt;font color=&quot;#abb2bf&quot;&gt;: TuileTemple&lt;/font&gt;&lt;br&gt;&lt;font color=&quot;#cda2be&quot;&gt;/ &lt;/font&gt;&lt;font color=&quot;#e06c75&quot;&gt;pions &lt;/font&gt;&lt;font color=&quot;#abb2bf&quot;&gt;: ArrayList&amp;lt;Pion&amp;gt;&lt;/font&gt;&lt;br&gt;&lt;font color=&quot;#cda2be&quot;&gt;/&lt;/font&gt;&lt;font color=&quot;#e06c75&quot;&gt;&amp;nbsp;dejaPlacerTemple&lt;/font&gt;&lt;font color=&quot;#abb2bf&quot;&gt;&amp;nbsp;: boolean&lt;/font&gt;&lt;br&gt;&lt;font color=&quot;#cda2be&quot;&gt;/ &lt;/font&gt;&lt;font color=&quot;#e06c75&quot;&gt;perleOrphelin&lt;/font&gt;&lt;font color=&quot;#abb2bf&quot;&gt;&amp;nbsp;: Couleurs&lt;/font&gt;" style="text;strokeColor=none;fillColor=none;align=left;verticalAlign=top;spacingLeft=4;spacingRight=4;overflow=hidden;rotatable=0;points=[[0,0.5],[1,0.5]];portConstraint=eastwest;whiteSpace=wrap;html=1;" vertex="1" parent="735r7jLbl9bYlSU7Me6_-85">
          <mxGeometry y="26" width="230" height="94" as="geometry" />
        </mxCell>
        <mxCell id="735r7jLbl9bYlSU7Me6_-87" value="" style="line;strokeWidth=1;fillColor=none;align=left;verticalAlign=middle;spacingTop=-1;spacingLeft=3;spacingRight=3;rotatable=0;labelPosition=right;points=[];portConstraint=eastwest;strokeColor=inherit;" vertex="1" parent="735r7jLbl9bYlSU7Me6_-85">
          <mxGeometry y="120" width="230" height="8" as="geometry" />
        </mxCell>
        <mxCell id="735r7jLbl9bYlSU7Me6_-88" value="&lt;font color=&quot;#cda2be&quot;&gt;+&lt;/font&gt;&lt;font color=&quot;#e06c75&quot;&gt;&amp;nbsp;getID()&lt;/font&gt;&lt;font color=&quot;#abb2bf&quot;&gt;&amp;nbsp;: int&lt;/font&gt;&lt;br&gt;&lt;font color=&quot;#cda2be&quot;&gt;+&amp;nbsp;&lt;/font&gt;&lt;font color=&quot;#e06c75&quot;&gt;setID(int)&lt;/font&gt;&lt;font color=&quot;#abb2bf&quot;&gt;&amp;nbsp;: void&lt;/font&gt;&lt;br&gt;&lt;font color=&quot;#cda2be&quot;&gt;-&amp;nbsp;&lt;/font&gt;&lt;font color=&quot;#e06c75&quot;&gt;initalisePions() &lt;/font&gt;&lt;font color=&quot;#abb2bf&quot;&gt;: void&lt;/font&gt;&lt;br&gt;&lt;font color=&quot;#cda2be&quot;&gt;+&lt;/font&gt;&lt;font color=&quot;#e06c75&quot;&gt;&amp;nbsp;toString()&lt;/font&gt;&lt;font color=&quot;#abb2bf&quot;&gt;&amp;nbsp;: String&lt;/font&gt;&lt;br&gt;&lt;font color=&quot;#cda2be&quot;&gt;+ &lt;/font&gt;&lt;font color=&quot;#e06c75&quot;&gt;getPions()&lt;/font&gt;&lt;font color=&quot;#abb2bf&quot;&gt;&amp;nbsp;: ArrayList&amp;lt;Pion&amp;gt;&lt;/font&gt;&lt;br&gt;&lt;font color=&quot;#cda2be&quot;&gt;+ &lt;/font&gt;&lt;font color=&quot;#e06c75&quot;&gt;dejaPlacerTemple()&lt;/font&gt;&lt;font color=&quot;#abb2bf&quot;&gt;&amp;nbsp;: boolean&lt;/font&gt;&lt;br&gt;&lt;font color=&quot;#cda2be&quot;&gt;+ &lt;/font&gt;&lt;font color=&quot;#e06c75&quot;&gt;setDejaPlacerTemple(boolean)&lt;/font&gt;&lt;font color=&quot;#abb2bf&quot;&gt;&amp;nbsp;: void&lt;/font&gt;&lt;br&gt;&lt;font color=&quot;#cda2be&quot;&gt;+ &lt;/font&gt;&lt;font color=&quot;#e06c75&quot;&gt;setTemple(TuileTemple) &lt;/font&gt;&lt;font color=&quot;#abb2bf&quot;&gt;: void&lt;/font&gt;&lt;br&gt;&lt;font color=&quot;#cda2be&quot;&gt;+ &lt;/font&gt;&lt;font color=&quot;#e06c75&quot;&gt;getTemple()&lt;/font&gt;&lt;font color=&quot;#abb2bf&quot;&gt;&amp;nbsp;: TuileTemple&lt;/font&gt;&lt;br&gt;&lt;font color=&quot;#cda2be&quot;&gt;+ &lt;/font&gt;&lt;font color=&quot;#e06c75&quot;&gt;placedAllPions() &lt;/font&gt;&lt;font color=&quot;#abb2bf&quot;&gt;: boolean&lt;/font&gt;" style="text;strokeColor=none;fillColor=none;align=left;verticalAlign=top;spacingLeft=4;spacingRight=4;overflow=hidden;rotatable=0;points=[[0,0.5],[1,0.5]];portConstraint=eastwest;whiteSpace=wrap;html=1;" vertex="1" parent="735r7jLbl9bYlSU7Me6_-85">
          <mxGeometry y="128" width="230" height="152" as="geometry" />
        </mxCell>
        <mxCell id="735r7jLbl9bYlSU7Me6_-197" style="edgeStyle=orthogonalEdgeStyle;rounded=0;orthogonalLoop=1;jettySize=auto;html=1;exitX=0;exitY=0.75;exitDx=0;exitDy=0;entryX=1;entryY=0;entryDx=0;entryDy=0;" edge="1" parent="1" source="735r7jLbl9bYlSU7Me6_-89" target="735r7jLbl9bYlSU7Me6_-85">
          <mxGeometry relative="1" as="geometry">
            <Array as="points">
              <mxPoint x="1620" y="1034" />
              <mxPoint x="1620" y="1050" />
              <mxPoint x="1550" y="1050" />
            </Array>
          </mxGeometry>
        </mxCell>
        <mxCell id="735r7jLbl9bYlSU7Me6_-198" value="&amp;lt;&amp;lt;extends&amp;gt;&amp;gt;" style="edgeLabel;html=1;align=center;verticalAlign=middle;resizable=0;points=[];" vertex="1" connectable="0" parent="735r7jLbl9bYlSU7Me6_-197">
          <mxGeometry x="0.019" y="1" relative="1" as="geometry">
            <mxPoint as="offset" />
          </mxGeometry>
        </mxCell>
        <mxCell id="735r7jLbl9bYlSU7Me6_-89" value="JoueurHumain" style="swimlane;fontStyle=1;align=center;verticalAlign=top;childLayout=stackLayout;horizontal=1;startSize=26;horizontalStack=0;resizeParent=1;resizeParentMax=0;resizeLast=0;collapsible=1;marginBottom=0;whiteSpace=wrap;html=1;" vertex="1" parent="1">
          <mxGeometry x="1645" y="1008" width="160" height="34" as="geometry" />
        </mxCell>
        <mxCell id="735r7jLbl9bYlSU7Me6_-91" value="" style="line;strokeWidth=1;fillColor=none;align=left;verticalAlign=middle;spacingTop=-1;spacingLeft=3;spacingRight=3;rotatable=0;labelPosition=right;points=[];portConstraint=eastwest;strokeColor=inherit;" vertex="1" parent="735r7jLbl9bYlSU7Me6_-89">
          <mxGeometry y="26" width="160" height="8" as="geometry" />
        </mxCell>
        <mxCell id="735r7jLbl9bYlSU7Me6_-93" value="JoueurIA" style="swimlane;fontStyle=1;align=center;verticalAlign=top;childLayout=stackLayout;horizontal=1;startSize=26;horizontalStack=0;resizeParent=1;resizeParentMax=0;resizeLast=0;collapsible=1;marginBottom=0;whiteSpace=wrap;html=1;" vertex="1" parent="1">
          <mxGeometry x="1610" y="1070" width="330" height="300" as="geometry" />
        </mxCell>
        <mxCell id="735r7jLbl9bYlSU7Me6_-94" value="&lt;font color=&quot;#cda2be&quot;&gt;-&lt;/font&gt;&lt;font color=&quot;#e06c75&quot;&gt;&amp;nbsp;epsilon&lt;/font&gt;&lt;font color=&quot;#abb2bf&quot;&gt;&amp;nbsp;: double&lt;/font&gt;&lt;br&gt;&lt;font color=&quot;#cda2be&quot;&gt;-&amp;nbsp;&lt;/font&gt;&lt;font style=&quot;border-color: var(--border-color);&quot; color=&quot;#e06c75&quot;&gt;alpha&lt;/font&gt;&lt;font style=&quot;border-color: var(--border-color);&quot; color=&quot;#abb2bf&quot;&gt;&amp;nbsp;: double&lt;/font&gt;&lt;br&gt;&lt;font color=&quot;#cda2be&quot;&gt;-&amp;nbsp;&lt;/font&gt;&lt;font style=&quot;border-color: var(--border-color);&quot; color=&quot;#e06c75&quot;&gt;gamma&lt;/font&gt;&lt;font style=&quot;border-color: var(--border-color);&quot; color=&quot;#abb2bf&quot;&gt;&amp;nbsp;: double&lt;/font&gt;&lt;br&gt;&lt;font color=&quot;#cda2be&quot;&gt;-&amp;nbsp;&lt;/font&gt;&lt;font style=&quot;border-color: var(--border-color);&quot; color=&quot;#e06c75&quot;&gt;qTable&lt;/font&gt;&lt;font style=&quot;border-color: var(--border-color);&quot; color=&quot;#abb2bf&quot;&gt;&amp;nbsp;: qTable&lt;/font&gt;&lt;br&gt;&lt;font color=&quot;#cda2be&quot;&gt;-&amp;nbsp;&lt;/font&gt;&lt;font style=&quot;border-color: var(--border-color);&quot; color=&quot;#e06c75&quot;&gt;distance&lt;/font&gt;&lt;font style=&quot;border-color: var(--border-color);&quot; color=&quot;#abb2bf&quot;&gt;&amp;nbsp;: double&lt;/font&gt;" style="text;strokeColor=none;fillColor=none;align=left;verticalAlign=top;spacingLeft=4;spacingRight=4;overflow=hidden;rotatable=0;points=[[0,0.5],[1,0.5]];portConstraint=eastwest;whiteSpace=wrap;html=1;" vertex="1" parent="735r7jLbl9bYlSU7Me6_-93">
          <mxGeometry y="26" width="330" height="74" as="geometry" />
        </mxCell>
        <mxCell id="735r7jLbl9bYlSU7Me6_-95" value="" style="line;strokeWidth=1;fillColor=none;align=left;verticalAlign=middle;spacingTop=-1;spacingLeft=3;spacingRight=3;rotatable=0;labelPosition=right;points=[];portConstraint=eastwest;strokeColor=inherit;" vertex="1" parent="735r7jLbl9bYlSU7Me6_-93">
          <mxGeometry y="100" width="330" height="8" as="geometry" />
        </mxCell>
        <mxCell id="735r7jLbl9bYlSU7Me6_-97" value="&lt;font color=&quot;#cda2be&quot; style=&quot;border-color: var(--border-color);&quot;&gt;+&lt;/font&gt;&lt;font style=&quot;border-color: var(--border-color);&quot; color=&quot;#e06c75&quot;&gt;&amp;nbsp;chooseAction(Jeu, State, ArrayList&amp;lt;Action)&lt;/font&gt;&lt;font style=&quot;border-color: var(--border-color);&quot; color=&quot;#abb2bf&quot;&gt;&amp;nbsp;: Action&lt;br&gt;&lt;font style=&quot;border-color: var(--border-color);&quot; color=&quot;#cda2be&quot;&gt;+&lt;/font&gt;&lt;font style=&quot;border-color: var(--border-color);&quot; color=&quot;#e06c75&quot;&gt;&amp;nbsp;learn(Jeu, State, Action, State)&lt;/font&gt;&lt;font style=&quot;border-color: var(--border-color);&quot; color=&quot;#abb2bf&quot;&gt;&amp;nbsp;: void&lt;/font&gt;&lt;br&gt;&lt;font style=&quot;border-color: var(--border-color);&quot; color=&quot;#cda2be&quot;&gt;+&lt;/font&gt;&lt;font style=&quot;border-color: var(--border-color);&quot; color=&quot;#e06c75&quot;&gt;&amp;nbsp;getQValue(State, Action)&lt;/font&gt;&lt;font style=&quot;border-color: var(--border-color);&quot; color=&quot;#abb2bf&quot;&gt;&amp;nbsp;: double&lt;br&gt;&lt;/font&gt;&lt;font style=&quot;border-color: var(--border-color);&quot; color=&quot;#cda2be&quot;&gt;+ &lt;/font&gt;&lt;font style=&quot;border-color: var(--border-color);&quot; color=&quot;#e06c75&quot;&gt;getDistance()&lt;/font&gt;&lt;font style=&quot;border-color: var(--border-color);&quot; color=&quot;#abb2bf&quot;&gt;&amp;nbsp;: double&lt;br&gt;&lt;/font&gt;&lt;font style=&quot;border-color: var(--border-color);&quot; color=&quot;#cda2be&quot;&gt;+&lt;/font&gt;&lt;font style=&quot;border-color: var(--border-color);&quot; color=&quot;#e06c75&quot;&gt;&amp;nbsp;setQValue(State, Action, double)&lt;/font&gt;&lt;font style=&quot;border-color: var(--border-color);&quot; color=&quot;#abb2bf&quot;&gt;&amp;nbsp;: void&lt;br style=&quot;border-color: var(--border-color);&quot;&gt;&lt;/font&gt;&lt;font style=&quot;border-color: var(--border-color);&quot; color=&quot;#cda2be&quot;&gt;+&amp;nbsp;&lt;/font&gt;&lt;font style=&quot;border-color: var(--border-color);&quot; color=&quot;#e06c75&quot;&gt;setDistance(double)&lt;/font&gt;&lt;font style=&quot;border-color: var(--border-color);&quot; color=&quot;#abb2bf&quot;&gt;&amp;nbsp;: void&lt;br&gt;&lt;/font&gt;&lt;font style=&quot;border-color: var(--border-color);&quot; color=&quot;#cda2be&quot;&gt;+&lt;/font&gt;&lt;font style=&quot;border-color: var(--border-color);&quot; color=&quot;#e06c75&quot;&gt;&amp;nbsp;getLegalActions(Jeu)&lt;/font&gt;&lt;font style=&quot;border-color: var(--border-color);&quot; color=&quot;#abb2bf&quot;&gt;&amp;nbsp;: ArrayList&amp;lt;Action&amp;gt;&lt;br&gt;&lt;/font&gt;&lt;font style=&quot;border-color: var(--border-color);&quot; color=&quot;#cda2be&quot;&gt;+&lt;/font&gt;&lt;font style=&quot;border-color: var(--border-color);&quot; color=&quot;#e06c75&quot;&gt;&amp;nbsp;getBestAction(State, ArrayList&amp;lt;Action&amp;gt;)&lt;/font&gt;&lt;font style=&quot;border-color: var(--border-color);&quot; color=&quot;#abb2bf&quot;&gt;&amp;nbsp;: Action&lt;br&gt;&lt;/font&gt;&lt;font style=&quot;border-color: var(--border-color);&quot; color=&quot;#cda2be&quot;&gt;+&lt;/font&gt;&lt;font style=&quot;border-color: var(--border-color);&quot; color=&quot;#e06c75&quot;&gt;&amp;nbsp;getMaxQValue(Jeu, State, ArrayList&amp;lt;Action&amp;gt;)&lt;/font&gt;&lt;font style=&quot;border-color: var(--border-color);&quot; color=&quot;#abb2bf&quot;&gt;&amp;nbsp;: double&lt;br&gt;&lt;/font&gt;&lt;font style=&quot;border-color: var(--border-color);&quot; color=&quot;#cda2be&quot;&gt;+&lt;/font&gt;&lt;font style=&quot;border-color: var(--border-color);&quot; color=&quot;#e06c75&quot;&gt;&amp;nbsp;getQTable()&lt;/font&gt;&lt;font style=&quot;border-color: var(--border-color);&quot; color=&quot;#abb2bf&quot;&gt;&amp;nbsp;: qTable&lt;br&gt;&lt;/font&gt;&lt;font style=&quot;border-color: var(--border-color);&quot; color=&quot;#cda2be&quot;&gt;+&lt;/font&gt;&lt;font style=&quot;border-color: var(--border-color);&quot; color=&quot;#e06c75&quot;&gt;&amp;nbsp;saveQTable()&lt;/font&gt;&lt;font style=&quot;border-color: var(--border-color);&quot; color=&quot;#abb2bf&quot;&gt;&amp;nbsp;: void&lt;br&gt;&lt;/font&gt;&lt;font style=&quot;border-color: var(--border-color);&quot; color=&quot;#cda2be&quot;&gt;+&lt;/font&gt;&lt;font style=&quot;border-color: var(--border-color);&quot; color=&quot;#e06c75&quot;&gt;&amp;nbsp;loadQTable()&lt;/font&gt;&lt;font style=&quot;border-color: var(--border-color);&quot; color=&quot;#abb2bf&quot;&gt;&amp;nbsp;: void&lt;br&gt;&lt;/font&gt;&lt;font style=&quot;border-color: var(--border-color);&quot; color=&quot;#cda2be&quot;&gt;+&lt;/font&gt;&lt;font style=&quot;border-color: var(--border-color);&quot; color=&quot;#e06c75&quot;&gt;&amp;nbsp;printQTable(int)&lt;/font&gt;&lt;font style=&quot;border-color: var(--border-color);&quot; color=&quot;#abb2bf&quot;&gt;&amp;nbsp;: void&lt;/font&gt;&lt;br&gt;&lt;/font&gt;" style="text;strokeColor=none;fillColor=none;align=left;verticalAlign=top;spacingLeft=4;spacingRight=4;overflow=hidden;rotatable=0;points=[[0,0.5],[1,0.5]];portConstraint=eastwest;whiteSpace=wrap;html=1;" vertex="1" parent="735r7jLbl9bYlSU7Me6_-93">
          <mxGeometry y="108" width="330" height="192" as="geometry" />
        </mxCell>
        <mxCell id="735r7jLbl9bYlSU7Me6_-100" value="Pion" style="swimlane;fontStyle=1;align=center;verticalAlign=top;childLayout=stackLayout;horizontal=1;startSize=26;horizontalStack=0;resizeParent=1;resizeParentMax=0;resizeLast=0;collapsible=1;marginBottom=0;whiteSpace=wrap;html=1;" vertex="1" parent="1">
          <mxGeometry x="1910" y="90" width="200" height="220" as="geometry" />
        </mxCell>
        <mxCell id="735r7jLbl9bYlSU7Me6_-101" value="&lt;font color=&quot;#cda2be&quot; style=&quot;border-color: var(--border-color);&quot;&gt;/&lt;/font&gt;&lt;font style=&quot;border-color: var(--border-color);&quot; color=&quot;#e06c75&quot;&gt; proprietaire&lt;/font&gt;&lt;font style=&quot;border-color: var(--border-color);&quot;&gt;&lt;font color=&quot;#abb2bf&quot;&gt;&amp;nbsp;: Joueur&lt;/font&gt;&lt;br&gt;&lt;font color=&quot;#cda2be&quot; style=&quot;border-color: var(--border-color);&quot;&gt;/&lt;/font&gt;&lt;font style=&quot;color: rgb(171, 178, 191); border-color: var(--border-color);&quot; color=&quot;#abb2bf&quot;&gt;&amp;nbsp;&lt;/font&gt;&lt;font color=&quot;#e06c75&quot; style=&quot;border-color: var(--border-color);&quot;&gt;location&amp;nbsp;&lt;/font&gt;&lt;font style=&quot;color: rgb(171, 178, 191); border-color: var(--border-color);&quot; color=&quot;#abb2bf&quot;&gt;: Coordonnee&lt;br&gt;&lt;/font&gt;&lt;font style=&quot;color: rgb(171, 178, 191); border-color: var(--border-color);&quot; color=&quot;#e06c75&quot;&gt;/ &lt;/font&gt;&lt;font style=&quot;border-color: var(--border-color);&quot; color=&quot;#e06c75&quot;&gt;isPlaced&lt;/font&gt;&lt;font style=&quot;color: rgb(171, 178, 191); border-color: var(--border-color);&quot; color=&quot;#e06c75&quot;&gt;&amp;nbsp;&lt;/font&gt;&lt;font style=&quot;color: rgb(171, 178, 191); border-color: var(--border-color);&quot; color=&quot;#abb2bf&quot;&gt;: boolean&lt;br&gt;&lt;/font&gt;&lt;font color=&quot;#abb2bf&quot; style=&quot;border-color: var(--border-color);&quot;&gt;-&lt;/font&gt;&lt;font style=&quot;border-color: var(--border-color);&quot; color=&quot;#e06c75&quot;&gt; id&lt;/font&gt;&lt;font style=&quot;color: rgb(171, 178, 191); border-color: var(--border-color);&quot; color=&quot;#abb2bf&quot;&gt;&amp;nbsp;: int&lt;/font&gt;&lt;br&gt;&lt;/font&gt;" style="text;strokeColor=none;fillColor=none;align=left;verticalAlign=top;spacingLeft=4;spacingRight=4;overflow=hidden;rotatable=0;points=[[0,0.5],[1,0.5]];portConstraint=eastwest;whiteSpace=wrap;html=1;" vertex="1" parent="735r7jLbl9bYlSU7Me6_-100">
          <mxGeometry y="26" width="200" height="64" as="geometry" />
        </mxCell>
        <mxCell id="735r7jLbl9bYlSU7Me6_-102" value="" style="line;strokeWidth=1;fillColor=none;align=left;verticalAlign=middle;spacingTop=-1;spacingLeft=3;spacingRight=3;rotatable=0;labelPosition=right;points=[];portConstraint=eastwest;strokeColor=inherit;" vertex="1" parent="735r7jLbl9bYlSU7Me6_-100">
          <mxGeometry y="90" width="200" height="8" as="geometry" />
        </mxCell>
        <mxCell id="735r7jLbl9bYlSU7Me6_-103" value="&lt;font style=&quot;border-color: var(--border-color);&quot; color=&quot;#cda2be&quot;&gt;+&lt;/font&gt;&lt;font style=&quot;border-color: var(--border-color);&quot; color=&quot;#e06c75&quot;&gt;&amp;nbsp;setLocation(Coordonnee)&lt;/font&gt;&lt;font style=&quot;border-color: var(--border-color); color: rgb(171, 178, 191);&quot; color=&quot;#abb2bf&quot;&gt;&amp;nbsp;: void&lt;br&gt;&lt;font style=&quot;border-color: var(--border-color);&quot; color=&quot;#cda2be&quot;&gt;+&lt;/font&gt;&lt;font style=&quot;border-color: var(--border-color);&quot; color=&quot;#e06c75&quot;&gt;&amp;nbsp;setLocation(int, int)&lt;/font&gt;&lt;font style=&quot;border-color: var(--border-color);&quot; color=&quot;#abb2bf&quot;&gt;&amp;nbsp;: void&lt;br&gt;&lt;/font&gt;&lt;font style=&quot;border-color: var(--border-color);&quot; color=&quot;#cda2be&quot;&gt;+&lt;/font&gt;&lt;font style=&quot;border-color: var(--border-color);&quot; color=&quot;#e06c75&quot;&gt;&amp;nbsp;passPerleTo(Pion)&lt;/font&gt;&lt;font style=&quot;border-color: var(--border-color);&quot; color=&quot;#abb2bf&quot;&gt;&amp;nbsp;: boolean&lt;br&gt;&lt;/font&gt;&lt;font style=&quot;border-color: var(--border-color);&quot; color=&quot;#cda2be&quot;&gt;+&lt;/font&gt;&lt;font style=&quot;border-color: var(--border-color);&quot; color=&quot;#e06c75&quot;&gt;&amp;nbsp;setIsPlaced(boolean)&lt;/font&gt;&lt;font style=&quot;border-color: var(--border-color);&quot; color=&quot;#abb2bf&quot;&gt;&amp;nbsp;: void&lt;br&gt;&lt;/font&gt;&lt;font style=&quot;border-color: var(--border-color);&quot; color=&quot;#cda2be&quot;&gt;+&lt;/font&gt;&lt;font style=&quot;border-color: var(--border-color);&quot; color=&quot;#e06c75&quot;&gt;&amp;nbsp;toString()&lt;/font&gt;&lt;font style=&quot;border-color: var(--border-color);&quot; color=&quot;#abb2bf&quot;&gt;&amp;nbsp;: String&lt;br&gt;&lt;/font&gt;&lt;font style=&quot;border-color: var(--border-color);&quot; color=&quot;#cda2be&quot;&gt;+&lt;/font&gt;&lt;font style=&quot;border-color: var(--border-color);&quot; color=&quot;#e06c75&quot;&gt;&amp;nbsp;equals(Object)&lt;/font&gt;&lt;font style=&quot;border-color: var(--border-color);&quot; color=&quot;#abb2bf&quot;&gt;&amp;nbsp;: boolean&lt;br&gt;&lt;/font&gt;&lt;font style=&quot;border-color: var(--border-color);&quot; color=&quot;#cda2be&quot;&gt;+&lt;/font&gt;&lt;font style=&quot;border-color: var(--border-color);&quot; color=&quot;#e06c75&quot;&gt;&amp;nbsp;getID()&lt;/font&gt;&lt;font style=&quot;border-color: var(--border-color);&quot; color=&quot;#abb2bf&quot;&gt;&amp;nbsp;: int&lt;br&gt;&lt;/font&gt;&lt;font style=&quot;border-color: var(--border-color);&quot; color=&quot;#cda2be&quot;&gt;+ &lt;/font&gt;&lt;font style=&quot;border-color: var(--border-color);&quot; color=&quot;#e06c75&quot;&gt;setID(int)&lt;/font&gt;&lt;font style=&quot;border-color: var(--border-color);&quot; color=&quot;#abb2bf&quot;&gt;&amp;nbsp;: void&lt;/font&gt;&lt;br&gt;&lt;/font&gt;" style="text;strokeColor=none;fillColor=none;align=left;verticalAlign=top;spacingLeft=4;spacingRight=4;overflow=hidden;rotatable=0;points=[[0,0.5],[1,0.5]];portConstraint=eastwest;whiteSpace=wrap;html=1;" vertex="1" parent="735r7jLbl9bYlSU7Me6_-100">
          <mxGeometry y="98" width="200" height="122" as="geometry" />
        </mxCell>
        <mxCell id="735r7jLbl9bYlSU7Me6_-105" value="«enum»&lt;br&gt;&lt;b&gt;MapEtat&lt;/b&gt;" style="html=1;whiteSpace=wrap;" vertex="1" parent="1">
          <mxGeometry x="1730" y="934" width="110" height="50" as="geometry" />
        </mxCell>
        <mxCell id="735r7jLbl9bYlSU7Me6_-106" value="Plateau" style="swimlane;fontStyle=1;align=center;verticalAlign=top;childLayout=stackLayout;horizontal=1;startSize=26;horizontalStack=0;resizeParent=1;resizeParentMax=0;resizeLast=0;collapsible=1;marginBottom=0;whiteSpace=wrap;html=1;" vertex="1" parent="1">
          <mxGeometry x="2140" y="100" width="430" height="390" as="geometry" />
        </mxCell>
        <mxCell id="735r7jLbl9bYlSU7Me6_-107" value="&lt;font style=&quot;border-color: var(--border-color);&quot; color=&quot;#cda2be&quot;&gt;/&lt;/font&gt;&lt;font style=&quot;border-color: var(--border-color);&quot; color=&quot;#e06c75&quot;&gt;&amp;nbsp;gridTuile&lt;/font&gt;&lt;font style=&quot;border-color: var(--border-color); color: rgb(171, 178, 191);&quot; color=&quot;#abb2bf&quot;&gt;&amp;nbsp;: HashMap&amp;lt;Coordonnee, Tuile&amp;gt;&lt;br&gt;&lt;font style=&quot;border-color: var(--border-color);&quot; color=&quot;#cda2be&quot;&gt;/&lt;/font&gt;&lt;font style=&quot;border-color: var(--border-color);&quot; color=&quot;#e06c75&quot;&gt;&amp;nbsp;gridHexagone&lt;/font&gt;&lt;font style=&quot;border-color: var(--border-color);&quot; color=&quot;#abb2bf&quot;&gt;&amp;nbsp;: HashMap&amp;lt;Coordonnee, Hexagone&amp;gt;&lt;br&gt;&lt;/font&gt;&lt;font style=&quot;border-color: var(--border-color);&quot; color=&quot;#cda2be&quot;&gt;/&lt;/font&gt;&lt;font style=&quot;border-color: var(--border-color);&quot; color=&quot;#e06c75&quot;&gt;&amp;nbsp;gridPion&lt;/font&gt;&lt;font style=&quot;border-color: var(--border-color);&quot; color=&quot;#abb2bf&quot;&gt;&amp;nbsp;: HashMap&amp;lt;Coordonnee, Pion&amp;gt;&lt;br&gt;&lt;/font&gt;&lt;br&gt;&lt;/font&gt;" style="text;strokeColor=none;fillColor=none;align=left;verticalAlign=top;spacingLeft=4;spacingRight=4;overflow=hidden;rotatable=0;points=[[0,0.5],[1,0.5]];portConstraint=eastwest;whiteSpace=wrap;html=1;" vertex="1" parent="735r7jLbl9bYlSU7Me6_-106">
          <mxGeometry y="26" width="430" height="54" as="geometry" />
        </mxCell>
        <mxCell id="735r7jLbl9bYlSU7Me6_-108" value="" style="line;strokeWidth=1;fillColor=none;align=left;verticalAlign=middle;spacingTop=-1;spacingLeft=3;spacingRight=3;rotatable=0;labelPosition=right;points=[];portConstraint=eastwest;strokeColor=inherit;" vertex="1" parent="735r7jLbl9bYlSU7Me6_-106">
          <mxGeometry y="80" width="430" height="8" as="geometry" />
        </mxCell>
        <mxCell id="735r7jLbl9bYlSU7Me6_-109" value="&lt;font style=&quot;border-color: var(--border-color);&quot; color=&quot;#cda2be&quot;&gt;+&lt;/font&gt;&lt;font style=&quot;border-color: var(--border-color);&quot; color=&quot;#e06c75&quot;&gt;&amp;nbsp;getGridTuile()&lt;/font&gt;&lt;font style=&quot;border-color: var(--border-color);&quot;&gt;&lt;font color=&quot;#abb2bf&quot;&gt;&amp;nbsp;: HashMap&amp;lt;Coordonnee, Tuile&amp;gt;&lt;/font&gt;&lt;br&gt;&lt;font style=&quot;border-color: var(--border-color);&quot;&gt;&lt;font style=&quot;color: rgb(171, 178, 191); border-color: var(--border-color);&quot; color=&quot;#cda2be&quot;&gt;+&lt;/font&gt;&lt;font style=&quot;color: rgb(171, 178, 191); border-color: var(--border-color);&quot; color=&quot;#e06c75&quot;&gt;&amp;nbsp;&lt;/font&gt;&lt;font style=&quot;border-color: var(--border-color);&quot; color=&quot;#e06c75&quot;&gt;getGridHexagone()&lt;/font&gt;&lt;font style=&quot;color: rgb(171, 178, 191); border-color: var(--border-color);&quot; color=&quot;#abb2bf&quot;&gt;&amp;nbsp;: HashMap&amp;lt;Coordonnee, Hexagone&amp;gt;&lt;br style=&quot;border-color: var(--border-color);&quot;&gt;&lt;/font&gt;&lt;font color=&quot;#cda2be&quot; style=&quot;border-color: var(--border-color);&quot;&gt;+&lt;/font&gt;&lt;font style=&quot;color: rgb(171, 178, 191); border-color: var(--border-color);&quot; color=&quot;#e06c75&quot;&gt; &lt;/font&gt;&lt;font style=&quot;border-color: var(--border-color);&quot; color=&quot;#e06c75&quot;&gt;getGridPion()&lt;/font&gt;&lt;font style=&quot;color: rgb(171, 178, 191); border-color: var(--border-color);&quot; color=&quot;#abb2bf&quot;&gt;&amp;nbsp;: HashMap&amp;lt;Coordonnee, Pion&amp;gt;&lt;br&gt;&lt;/font&gt;&lt;/font&gt;&lt;font color=&quot;#cda2be&quot; style=&quot;border-color: var(--border-color);&quot;&gt;+&lt;/font&gt;&lt;font style=&quot;border-color: var(--border-color);&quot; color=&quot;#e06c75&quot;&gt; placerTuileForce(Tuile, Coordonnee)&lt;/font&gt;&lt;font style=&quot;border-color: var(--border-color);&quot;&gt;&lt;font color=&quot;#abb2bf&quot;&gt;&amp;nbsp;: boolean&lt;/font&gt;&lt;br style=&quot;border-color: var(--border-color);&quot;&gt;&lt;font color=&quot;#cda2be&quot; style=&quot;border-color: var(--border-color);&quot;&gt;+&lt;/font&gt;&lt;font style=&quot;color: rgb(171, 178, 191); border-color: var(--border-color);&quot; color=&quot;#e06c75&quot;&gt; &lt;/font&gt;&lt;font style=&quot;border-color: var(--border-color);&quot; color=&quot;#e06c75&quot;&gt;placerTuileForce(Tuile, int, int)&lt;/font&gt;&lt;font style=&quot;color: rgb(171, 178, 191); border-color: var(--border-color);&quot; color=&quot;#abb2bf&quot;&gt;&amp;nbsp;: boolean&lt;br style=&quot;border-color: var(--border-color);&quot;&gt;&lt;/font&gt;&lt;font color=&quot;#cda2be&quot; style=&quot;border-color: var(--border-color);&quot;&gt;+&lt;/font&gt;&lt;font style=&quot;color: rgb(171, 178, 191); border-color: var(--border-color);&quot; color=&quot;#e06c75&quot;&gt;&amp;nbsp;&lt;/font&gt;&lt;font style=&quot;border-color: var(--border-color);&quot; color=&quot;#e06c75&quot;&gt;placeTuileBrutForce(Tuile, Coordonnee)&lt;/font&gt;&lt;font style=&quot;color: rgb(171, 178, 191); border-color: var(--border-color);&quot; color=&quot;#abb2bf&quot;&gt;&amp;nbsp;: boolean&lt;br&gt;&lt;/font&gt;&lt;/font&gt;&lt;font style=&quot;border-color: var(--border-color);&quot; color=&quot;#cda2be&quot;&gt;-&lt;/font&gt;&lt;font style=&quot;border-color: var(--border-color); color: rgb(171, 178, 191);&quot;&gt;&amp;nbsp;&lt;/font&gt;&lt;font style=&quot;border-color: var(--border-color);&quot; color=&quot;#e06c75&quot;&gt;placerHexagone(Tuile, Coordonnee)&lt;/font&gt;&lt;font style=&quot;border-color: var(--border-color); color: rgb(171, 178, 191);&quot; color=&quot;#abb2bf&quot;&gt;&amp;nbsp;: void&lt;br&gt;&lt;/font&gt;&lt;font style=&quot;border-color: var(--border-color);&quot; color=&quot;#cda2be&quot;&gt;-&lt;/font&gt;&lt;font style=&quot;border-color: var(--border-color); color: rgb(171, 178, 191);&quot;&gt;&amp;nbsp;&lt;/font&gt;&lt;font style=&quot;border-color: var(--border-color);&quot; color=&quot;#e06c75&quot;&gt;tamponHexagone(Hexagone, Coordonnee)&lt;/font&gt;&lt;font style=&quot;border-color: var(--border-color); color: rgb(171, 178, 191);&quot; color=&quot;#abb2bf&quot;&gt;&amp;nbsp;: void&lt;br&gt;&lt;/font&gt;&lt;font style=&quot;border-color: var(--border-color);&quot; color=&quot;#cda2be&quot;&gt;+&lt;/font&gt;&lt;font style=&quot;border-color: var(--border-color); color: rgb(171, 178, 191);&quot;&gt;&amp;nbsp;&lt;/font&gt;&lt;font style=&quot;border-color: var(--border-color);&quot; color=&quot;#e06c75&quot;&gt;placerTuileContraint(Tuile, Coordonnee)&lt;/font&gt;&lt;font style=&quot;border-color: var(--border-color); color: rgb(171, 178, 191);&quot; color=&quot;#abb2bf&quot;&gt;&amp;nbsp;: boolean&lt;br&gt;&lt;/font&gt;&lt;font style=&quot;border-color: var(--border-color);&quot; color=&quot;#cda2be&quot;&gt;+&lt;/font&gt;&lt;font style=&quot;border-color: var(--border-color); color: rgb(171, 178, 191);&quot;&gt;&amp;nbsp;&lt;/font&gt;&lt;font style=&quot;border-color: var(--border-color);&quot; color=&quot;#e06c75&quot;&gt;placerTuileContraint(Tuile, int, int)&lt;/font&gt;&lt;font style=&quot;border-color: var(--border-color); color: rgb(171, 178, 191);&quot; color=&quot;#abb2bf&quot;&gt;&amp;nbsp;: boolean&lt;br&gt;&lt;/font&gt;&lt;font style=&quot;border-color: var(--border-color);&quot; color=&quot;#cda2be&quot;&gt;+&lt;/font&gt;&lt;font style=&quot;border-color: var(--border-color); color: rgb(171, 178, 191);&quot;&gt;&amp;nbsp;&lt;/font&gt;&lt;font style=&quot;border-color: var(--border-color);&quot; color=&quot;#e06c75&quot;&gt;placerPionForce(Pion, Coordonnee)&lt;/font&gt;&lt;font style=&quot;border-color: var(--border-color); color: rgb(171, 178, 191);&quot; color=&quot;#abb2bf&quot;&gt;&amp;nbsp;: boolean&lt;br&gt;&lt;/font&gt;&lt;font style=&quot;border-color: var(--border-color);&quot; color=&quot;#cda2be&quot;&gt;+&lt;/font&gt;&lt;font style=&quot;border-color: var(--border-color); color: rgb(171, 178, 191);&quot;&gt;&amp;nbsp;&lt;/font&gt;&lt;font style=&quot;border-color: var(--border-color);&quot; color=&quot;#e06c75&quot;&gt;placerStartPion(Pion, Coordonnee)&lt;/font&gt;&lt;font style=&quot;border-color: var(--border-color); color: rgb(171, 178, 191);&quot; color=&quot;#abb2bf&quot;&gt;&amp;nbsp;:&amp;nbsp; boolean&lt;br&gt;&lt;/font&gt;&lt;font style=&quot;border-color: var(--border-color);&quot; color=&quot;#cda2be&quot;&gt;+&lt;/font&gt;&lt;font style=&quot;border-color: var(--border-color); color: rgb(171, 178, 191);&quot;&gt;&amp;nbsp;&lt;/font&gt;&lt;font style=&quot;border-color: var(--border-color);&quot; color=&quot;#e06c75&quot;&gt;placerStratPionAuto(Joueur)&lt;/font&gt;&lt;font style=&quot;border-color: var(--border-color); color: rgb(171, 178, 191);&quot; color=&quot;#abb2bf&quot;&gt;&amp;nbsp;: boolean&lt;br&gt;&lt;/font&gt;&lt;font style=&quot;border-color: var(--border-color);&quot; color=&quot;#cda2be&quot;&gt;-&lt;/font&gt;&lt;font color=&quot;#abb2bf&quot; style=&quot;border-color: var(--border-color);&quot;&gt;&amp;nbsp;&lt;/font&gt;&lt;font style=&quot;border-color: var(--border-color);&quot; color=&quot;#e06c75&quot;&gt;canMoveLocationsDirection(Pion, Coordonnee, int)&lt;/font&gt;&lt;font style=&quot;border-color: var(--border-color); color: rgb(171, 178, 191);&quot; color=&quot;#abb2bf&quot;&gt;&amp;nbsp;: ArrayList&amp;lt;Coordonnee&amp;gt;&lt;br&gt;&lt;font style=&quot;border-color: var(--border-color);&quot; color=&quot;#cda2be&quot;&gt;+&lt;/font&gt;&lt;font style=&quot;border-color: var(--border-color);&quot; color=&quot;#abb2bf&quot;&gt;&amp;nbsp;&lt;/font&gt;&lt;font style=&quot;border-color: var(--border-color);&quot; color=&quot;#e06c75&quot;&gt;canMoveLocations(Pion)&lt;/font&gt;&lt;font style=&quot;border-color: var(--border-color);&quot; color=&quot;#abb2bf&quot;&gt;&amp;nbsp;: ArrayList&amp;lt;Coordonnee&amp;gt;&lt;br&gt;&lt;font style=&quot;border-color: var(--border-color);&quot; color=&quot;#cda2be&quot;&gt;+&lt;/font&gt;&lt;font style=&quot;border-color: var(--border-color);&quot; color=&quot;#abb2bf&quot;&gt;&amp;nbsp;&lt;/font&gt;&lt;font style=&quot;border-color: var(--border-color);&quot; color=&quot;#e06c75&quot;&gt;movePionTo(Pion, Coordonnee)&lt;/font&gt;&lt;font style=&quot;border-color: var(--border-color);&quot; color=&quot;#abb2bf&quot;&gt;&amp;nbsp;: boolean&lt;br&gt;&lt;/font&gt;&lt;font style=&quot;border-color: var(--border-color);&quot; color=&quot;#cda2be&quot;&gt;+&lt;/font&gt;&lt;font style=&quot;border-color: var(--border-color);&quot; color=&quot;#abb2bf&quot;&gt;&amp;nbsp;&lt;/font&gt;&lt;font style=&quot;border-color: var(--border-color);&quot; color=&quot;#e06c75&quot;&gt;canPlaceLocations(Coordonnee)&lt;/font&gt;&lt;font style=&quot;border-color: var(--border-color);&quot; color=&quot;#abb2bf&quot;&gt;&amp;nbsp;: ArrayList&amp;lt;Coordonnee&amp;gt;&lt;br&gt;&lt;/font&gt;&lt;font style=&quot;border-color: var(--border-color);&quot; color=&quot;#cda2be&quot;&gt;+&lt;/font&gt;&lt;font style=&quot;border-color: var(--border-color);&quot; color=&quot;#abb2bf&quot;&gt;&amp;nbsp;&lt;/font&gt;&lt;font style=&quot;border-color: var(--border-color);&quot; color=&quot;#e06c75&quot;&gt;canPlaceLocations(int, int)&lt;/font&gt;&lt;font style=&quot;border-color: var(--border-color);&quot; color=&quot;#abb2bf&quot;&gt;&amp;nbsp;: ArrayList&amp;lt;Coordonnee&amp;gt;&lt;br&gt;&lt;/font&gt;&lt;font style=&quot;border-color: var(--border-color);&quot; color=&quot;#cda2be&quot;&gt;+&lt;/font&gt;&lt;font style=&quot;border-color: var(--border-color);&quot; color=&quot;#abb2bf&quot;&gt;&amp;nbsp;&lt;/font&gt;&lt;font style=&quot;border-color: var(--border-color);&quot; color=&quot;#e06c75&quot;&gt;removePion(Coordonnee)&lt;/font&gt;&lt;font style=&quot;border-color: var(--border-color);&quot; color=&quot;#abb2bf&quot;&gt;&amp;nbsp;: boolean&lt;br&gt;&lt;/font&gt;&lt;font style=&quot;border-color: var(--border-color);&quot; color=&quot;#cda2be&quot;&gt;+&lt;/font&gt;&lt;font style=&quot;border-color: var(--border-color);&quot; color=&quot;#abb2bf&quot;&gt;&amp;nbsp;&lt;/font&gt;&lt;font style=&quot;border-color: var(--border-color);&quot; color=&quot;#e06c75&quot;&gt;removeTuileBrutForce(Coordonnee)&lt;/font&gt;&lt;font style=&quot;border-color: var(--border-color);&quot; color=&quot;#abb2bf&quot;&gt;&amp;nbsp;: boolean&lt;/font&gt;&lt;br&gt;&lt;/font&gt;&lt;br&gt;&lt;/font&gt;&lt;br&gt;&lt;/font&gt;" style="text;strokeColor=none;fillColor=none;align=left;verticalAlign=top;spacingLeft=4;spacingRight=4;overflow=hidden;rotatable=0;points=[[0,0.5],[1,0.5]];portConstraint=eastwest;whiteSpace=wrap;html=1;" vertex="1" parent="735r7jLbl9bYlSU7Me6_-106">
          <mxGeometry y="88" width="430" height="302" as="geometry" />
        </mxCell>
        <mxCell id="735r7jLbl9bYlSU7Me6_-110" value="qTable" style="swimlane;fontStyle=1;align=center;verticalAlign=top;childLayout=stackLayout;horizontal=1;startSize=26;horizontalStack=0;resizeParent=1;resizeParentMax=0;resizeLast=0;collapsible=1;marginBottom=0;whiteSpace=wrap;html=1;" vertex="1" parent="1">
          <mxGeometry x="1950" y="1240" width="270" height="86" as="geometry" />
        </mxCell>
        <mxCell id="735r7jLbl9bYlSU7Me6_-111" value="&lt;font style=&quot;border-color: var(--border-color);&quot; color=&quot;#cda2be&quot;&gt;/&lt;/font&gt;&lt;font color=&quot;#abb2bf&quot; style=&quot;border-color: var(--border-color);&quot;&gt;&amp;nbsp;&lt;/font&gt;&lt;font style=&quot;border-color: var(--border-color);&quot; color=&quot;#e06c75&quot;&gt;map &lt;/font&gt;&lt;font color=&quot;#abb2bf&quot;&gt;&lt;font style=&quot;border-color: var(--border-color);&quot;&gt;: Map&amp;lt;State, Map&amp;lt;Action, Double&amp;gt;&amp;gt;&lt;/font&gt;&lt;font style=&quot;border-color: var(--border-color);&quot;&gt;&amp;nbsp;&lt;/font&gt;&lt;/font&gt;" style="text;strokeColor=none;fillColor=none;align=left;verticalAlign=top;spacingLeft=4;spacingRight=4;overflow=hidden;rotatable=0;points=[[0,0.5],[1,0.5]];portConstraint=eastwest;whiteSpace=wrap;html=1;" vertex="1" parent="735r7jLbl9bYlSU7Me6_-110">
          <mxGeometry y="26" width="270" height="26" as="geometry" />
        </mxCell>
        <mxCell id="735r7jLbl9bYlSU7Me6_-112" value="" style="line;strokeWidth=1;fillColor=none;align=left;verticalAlign=middle;spacingTop=-1;spacingLeft=3;spacingRight=3;rotatable=0;labelPosition=right;points=[];portConstraint=eastwest;strokeColor=inherit;" vertex="1" parent="735r7jLbl9bYlSU7Me6_-110">
          <mxGeometry y="52" width="270" height="8" as="geometry" />
        </mxCell>
        <mxCell id="735r7jLbl9bYlSU7Me6_-113" value="&lt;font style=&quot;border-color: var(--border-color);&quot; color=&quot;#cda2be&quot;&gt;+&lt;/font&gt;&lt;font style=&quot;border-color: var(--border-color); color: rgb(171, 178, 191);&quot; color=&quot;#abb2bf&quot;&gt;&amp;nbsp;&lt;/font&gt;&lt;font style=&quot;border-color: var(--border-color);&quot; color=&quot;#e06c75&quot;&gt;print(int)&lt;/font&gt;&lt;font style=&quot;border-color: var(--border-color); color: rgb(171, 178, 191);&quot; color=&quot;#abb2bf&quot;&gt;&amp;nbsp;: void&lt;/font&gt;" style="text;strokeColor=none;fillColor=none;align=left;verticalAlign=top;spacingLeft=4;spacingRight=4;overflow=hidden;rotatable=0;points=[[0,0.5],[1,0.5]];portConstraint=eastwest;whiteSpace=wrap;html=1;" vertex="1" parent="735r7jLbl9bYlSU7Me6_-110">
          <mxGeometry y="60" width="270" height="26" as="geometry" />
        </mxCell>
        <mxCell id="735r7jLbl9bYlSU7Me6_-114" value="State" style="swimlane;fontStyle=1;align=center;verticalAlign=top;childLayout=stackLayout;horizontal=1;startSize=26;horizontalStack=0;resizeParent=1;resizeParentMax=0;resizeLast=0;collapsible=1;marginBottom=0;whiteSpace=wrap;html=1;" vertex="1" parent="1">
          <mxGeometry x="1920" y="860" width="200" height="160" as="geometry" />
        </mxCell>
        <mxCell id="735r7jLbl9bYlSU7Me6_-115" value="&lt;font style=&quot;border-color: var(--border-color);&quot; color=&quot;#cda2be&quot;&gt;/&lt;/font&gt;&lt;font style=&quot;border-color: var(--border-color); color: rgb(171, 178, 191);&quot; color=&quot;#abb2bf&quot;&gt;&amp;nbsp;&lt;/font&gt;&lt;font style=&quot;border-color: var(--border-color);&quot; color=&quot;#e06c75&quot;&gt;pions&lt;/font&gt;&lt;font style=&quot;border-color: var(--border-color); color: rgb(171, 178, 191);&quot; color=&quot;#abb2bf&quot;&gt;&amp;nbsp;: ArrayList&amp;lt;Pion&amp;gt;&lt;/font&gt;" style="text;strokeColor=none;fillColor=none;align=left;verticalAlign=top;spacingLeft=4;spacingRight=4;overflow=hidden;rotatable=0;points=[[0,0.5],[1,0.5]];portConstraint=eastwest;whiteSpace=wrap;html=1;" vertex="1" parent="735r7jLbl9bYlSU7Me6_-114">
          <mxGeometry y="26" width="200" height="26" as="geometry" />
        </mxCell>
        <mxCell id="735r7jLbl9bYlSU7Me6_-116" value="" style="line;strokeWidth=1;fillColor=none;align=left;verticalAlign=middle;spacingTop=-1;spacingLeft=3;spacingRight=3;rotatable=0;labelPosition=right;points=[];portConstraint=eastwest;strokeColor=inherit;" vertex="1" parent="735r7jLbl9bYlSU7Me6_-114">
          <mxGeometry y="52" width="200" height="8" as="geometry" />
        </mxCell>
        <mxCell id="735r7jLbl9bYlSU7Me6_-117" value="&lt;font style=&quot;border-color: var(--border-color);&quot; color=&quot;#cda2be&quot;&gt;+&lt;/font&gt;&lt;font style=&quot;border-color: var(--border-color); color: rgb(171, 178, 191);&quot; color=&quot;#abb2bf&quot;&gt;&amp;nbsp;&lt;/font&gt;&lt;font style=&quot;border-color: var(--border-color);&quot; color=&quot;#e06c75&quot;&gt;getNextState(Action)&lt;/font&gt;&lt;font style=&quot;border-color: var(--border-color); color: rgb(171, 178, 191);&quot; color=&quot;#abb2bf&quot;&gt;&amp;nbsp;: State&lt;br&gt;&lt;font style=&quot;border-color: var(--border-color);&quot; color=&quot;#cda2be&quot;&gt;+&lt;/font&gt;&lt;font style=&quot;border-color: var(--border-color);&quot; color=&quot;#abb2bf&quot;&gt;&amp;nbsp;&lt;/font&gt;&lt;font style=&quot;border-color: var(--border-color);&quot; color=&quot;#e06c75&quot;&gt;updateGame(Jeu)&lt;/font&gt;&lt;font style=&quot;border-color: var(--border-color);&quot; color=&quot;#abb2bf&quot;&gt;&amp;nbsp;: void&lt;br&gt;&lt;/font&gt;&lt;font style=&quot;border-color: var(--border-color);&quot; color=&quot;#cda2be&quot;&gt;+&lt;/font&gt;&lt;font style=&quot;border-color: var(--border-color);&quot; color=&quot;#abb2bf&quot;&gt;&amp;nbsp;&lt;/font&gt;&lt;font style=&quot;border-color: var(--border-color);&quot; color=&quot;#e06c75&quot;&gt;getPions()&lt;/font&gt;&lt;font style=&quot;border-color: var(--border-color);&quot; color=&quot;#abb2bf&quot;&gt;&amp;nbsp;: ArrayList&amp;lt;Pion&amp;gt;&lt;br&gt;&lt;/font&gt;&lt;font style=&quot;border-color: var(--border-color);&quot; color=&quot;#cda2be&quot;&gt;+&lt;/font&gt;&lt;font style=&quot;border-color: var(--border-color);&quot; color=&quot;#abb2bf&quot;&gt;&amp;nbsp;&lt;/font&gt;&lt;font style=&quot;border-color: var(--border-color);&quot; color=&quot;#e06c75&quot;&gt;setPions(ArrayList&amp;lt;Pion&amp;gt;)&lt;/font&gt;&lt;font style=&quot;border-color: var(--border-color);&quot; color=&quot;#abb2bf&quot;&gt;&amp;nbsp;: void&lt;br&gt;&lt;/font&gt;&lt;font style=&quot;border-color: var(--border-color);&quot; color=&quot;#cda2be&quot;&gt;+&lt;/font&gt;&lt;font style=&quot;border-color: var(--border-color);&quot; color=&quot;#abb2bf&quot;&gt;&amp;nbsp;&lt;/font&gt;&lt;font style=&quot;border-color: var(--border-color);&quot; color=&quot;#e06c75&quot;&gt;equals(Object)&lt;/font&gt;&lt;font style=&quot;border-color: var(--border-color);&quot; color=&quot;#abb2bf&quot;&gt;&amp;nbsp;: boolean&lt;/font&gt;&lt;br&gt;&lt;/font&gt;" style="text;strokeColor=none;fillColor=none;align=left;verticalAlign=top;spacingLeft=4;spacingRight=4;overflow=hidden;rotatable=0;points=[[0,0.5],[1,0.5]];portConstraint=eastwest;whiteSpace=wrap;html=1;" vertex="1" parent="735r7jLbl9bYlSU7Me6_-114">
          <mxGeometry y="60" width="200" height="100" as="geometry" />
        </mxCell>
        <mxCell id="735r7jLbl9bYlSU7Me6_-118" value="Tuile" style="swimlane;fontStyle=1;align=center;verticalAlign=top;childLayout=stackLayout;horizontal=1;startSize=26;horizontalStack=0;resizeParent=1;resizeParentMax=0;resizeLast=0;collapsible=1;marginBottom=0;whiteSpace=wrap;html=1;" vertex="1" parent="1">
          <mxGeometry x="1920" y="498" width="270" height="300" as="geometry" />
        </mxCell>
        <mxCell id="735r7jLbl9bYlSU7Me6_-119" value="&lt;font style=&quot;border-color: var(--border-color);&quot; color=&quot;#cda2be&quot;&gt;-&lt;/font&gt;&lt;font style=&quot;border-color: var(--border-color); color: rgb(171, 178, 191);&quot; color=&quot;#abb2bf&quot;&gt;&amp;nbsp;&lt;/font&gt;&lt;font style=&quot;border-color: var(--border-color);&quot; color=&quot;#e06c75&quot;&gt;portesDispo&lt;/font&gt;&lt;font style=&quot;border-color: var(--border-color); color: rgb(171, 178, 191);&quot; color=&quot;#abb2bf&quot;&gt;&amp;nbsp;: ArrayList&amp;lt;Couleurs&amp;gt;&lt;br&gt;&lt;font style=&quot;border-color: var(--border-color);&quot; color=&quot;#cda2be&quot;&gt;/&lt;/font&gt;&lt;font style=&quot;border-color: var(--border-color);&quot; color=&quot;#abb2bf&quot;&gt;&amp;nbsp;&lt;/font&gt;&lt;font style=&quot;border-color: var(--border-color);&quot; color=&quot;#e06c75&quot;&gt;centre&lt;/font&gt;&lt;font style=&quot;border-color: var(--border-color);&quot; color=&quot;#abb2bf&quot;&gt;&amp;nbsp;: HexagoneCentral&lt;br&gt;&lt;/font&gt;&lt;font style=&quot;border-color: var(--border-color);&quot; color=&quot;#cda2be&quot;&gt;+&lt;/font&gt;&lt;font style=&quot;border-color: var(--border-color);&quot; color=&quot;#abb2bf&quot;&gt;&amp;nbsp;&lt;/font&gt;&lt;font style=&quot;border-color: var(--border-color);&quot; color=&quot;#e06c75&quot;&gt;hexagones&lt;/font&gt;&lt;font style=&quot;border-color: var(--border-color);&quot; color=&quot;#abb2bf&quot;&gt;&amp;nbsp;: Hexagone[]&lt;/font&gt;&lt;br&gt;&lt;/font&gt;" style="text;strokeColor=none;fillColor=none;align=left;verticalAlign=top;spacingLeft=4;spacingRight=4;overflow=hidden;rotatable=0;points=[[0,0.5],[1,0.5]];portConstraint=eastwest;whiteSpace=wrap;html=1;" vertex="1" parent="735r7jLbl9bYlSU7Me6_-118">
          <mxGeometry y="26" width="270" height="54" as="geometry" />
        </mxCell>
        <mxCell id="735r7jLbl9bYlSU7Me6_-120" value="" style="line;strokeWidth=1;fillColor=none;align=left;verticalAlign=middle;spacingTop=-1;spacingLeft=3;spacingRight=3;rotatable=0;labelPosition=right;points=[];portConstraint=eastwest;strokeColor=inherit;" vertex="1" parent="735r7jLbl9bYlSU7Me6_-118">
          <mxGeometry y="80" width="270" height="8" as="geometry" />
        </mxCell>
        <mxCell id="735r7jLbl9bYlSU7Me6_-121" value="&lt;font style=&quot;border-color: var(--border-color);&quot; color=&quot;#cda2be&quot;&gt;/&lt;/font&gt;&lt;font style=&quot;border-color: var(--border-color); color: rgb(171, 178, 191);&quot; color=&quot;#abb2bf&quot;&gt;&amp;nbsp;&lt;/font&gt;&lt;font style=&quot;border-color: var(--border-color);&quot; color=&quot;#e06c75&quot;&gt;getHexagoneCentral()&lt;/font&gt;&lt;font style=&quot;border-color: var(--border-color); color: rgb(171, 178, 191);&quot; color=&quot;#abb2bf&quot;&gt;&amp;nbsp;: HexagoneCentral&lt;br&gt;&lt;font style=&quot;border-color: var(--border-color);&quot; color=&quot;#cda2be&quot;&gt;/&lt;/font&gt;&lt;font style=&quot;border-color: var(--border-color);&quot; color=&quot;#abb2bf&quot;&gt;&amp;nbsp;&lt;/font&gt;&lt;font style=&quot;border-color: var(--border-color);&quot; color=&quot;#e06c75&quot;&gt;getHexagones()&lt;/font&gt;&lt;font style=&quot;border-color: var(--border-color);&quot; color=&quot;#abb2bf&quot;&gt;&amp;nbsp;: Hexagone[]&lt;br&gt;&lt;/font&gt;&lt;font style=&quot;border-color: var(--border-color);&quot; color=&quot;#cda2be&quot;&gt;+&lt;/font&gt;&lt;font style=&quot;border-color: var(--border-color);&quot; color=&quot;#abb2bf&quot;&gt;&amp;nbsp;&lt;/font&gt;&lt;font style=&quot;border-color: var(--border-color);&quot; color=&quot;#e06c75&quot;&gt;&lt;u&gt;tuileByID(int, int, int)&lt;/u&gt;&lt;/font&gt;&lt;font style=&quot;border-color: var(--border-color);&quot; color=&quot;#abb2bf&quot;&gt;&amp;nbsp;: Tuile&lt;br&gt;&lt;/font&gt;&lt;font style=&quot;border-color: var(--border-color);&quot; color=&quot;#cda2be&quot;&gt;+&lt;/font&gt;&lt;font style=&quot;border-color: var(--border-color);&quot; color=&quot;#abb2bf&quot;&gt;&amp;nbsp;&lt;/font&gt;&lt;font style=&quot;border-color: var(--border-color);&quot; color=&quot;#e06c75&quot;&gt;&lt;u&gt;allTuiles()&lt;/u&gt;&lt;/font&gt;&lt;font style=&quot;border-color: var(--border-color);&quot; color=&quot;#abb2bf&quot;&gt;&amp;nbsp;: ArrayList&amp;lt;Tuile&amp;gt;&lt;br&gt;&lt;/font&gt;&lt;font style=&quot;border-color: var(--border-color);&quot; color=&quot;#cda2be&quot;&gt;-&lt;/font&gt;&lt;font style=&quot;border-color: var(--border-color);&quot; color=&quot;#abb2bf&quot;&gt;&amp;nbsp;&lt;/font&gt;&lt;font style=&quot;border-color: var(--border-color);&quot; color=&quot;#e06c75&quot;&gt;setPortesDispo()&lt;/font&gt;&lt;font style=&quot;border-color: var(--border-color);&quot; color=&quot;#abb2bf&quot;&gt;&amp;nbsp;: void&lt;br&gt;&lt;/font&gt;&lt;font style=&quot;border-color: var(--border-color);&quot; color=&quot;#cda2be&quot;&gt;-&lt;/font&gt;&lt;font style=&quot;border-color: var(--border-color);&quot; color=&quot;#abb2bf&quot;&gt;&amp;nbsp;&lt;/font&gt;&lt;font style=&quot;border-color: var(--border-color);&quot; color=&quot;#e06c75&quot;&gt;setHexagoneCentral()&lt;/font&gt;&lt;font style=&quot;border-color: var(--border-color);&quot; color=&quot;#abb2bf&quot;&gt;&amp;nbsp;: void&lt;br&gt;&lt;/font&gt;&lt;font style=&quot;border-color: var(--border-color);&quot; color=&quot;#cda2be&quot;&gt;-&lt;/font&gt;&lt;font style=&quot;border-color: var(--border-color);&quot; color=&quot;#abb2bf&quot;&gt;&amp;nbsp;&lt;/font&gt;&lt;font style=&quot;border-color: var(--border-color);&quot; color=&quot;#e06c75&quot;&gt;setHexagoneNonComplet()&lt;/font&gt;&lt;font style=&quot;border-color: var(--border-color);&quot; color=&quot;#abb2bf&quot;&gt;&amp;nbsp;: void&lt;br&gt;&lt;/font&gt;&lt;font style=&quot;border-color: var(--border-color);&quot; color=&quot;#cda2be&quot;&gt;+&lt;/font&gt;&lt;font style=&quot;border-color: var(--border-color);&quot; color=&quot;#abb2bf&quot;&gt;&amp;nbsp;&lt;/font&gt;&lt;font style=&quot;border-color: var(--border-color);&quot; color=&quot;#e06c75&quot;&gt;rotate()&lt;/font&gt;&lt;font style=&quot;border-color: var(--border-color);&quot; color=&quot;#abb2bf&quot;&gt;&amp;nbsp;: void&lt;br&gt;&lt;/font&gt;&lt;font style=&quot;border-color: var(--border-color);&quot; color=&quot;#cda2be&quot;&gt;+&lt;/font&gt;&lt;font style=&quot;border-color: var(--border-color);&quot; color=&quot;#abb2bf&quot;&gt;&amp;nbsp;&lt;/font&gt;&lt;font style=&quot;border-color: var(--border-color);&quot; color=&quot;#e06c75&quot;&gt;getRotation()&lt;/font&gt;&lt;font style=&quot;border-color: var(--border-color);&quot; color=&quot;#abb2bf&quot;&gt;&amp;nbsp;: Tuile&lt;br&gt;&lt;/font&gt;&lt;font style=&quot;border-color: var(--border-color);&quot; color=&quot;#cda2be&quot;&gt;+&lt;/font&gt;&lt;font style=&quot;border-color: var(--border-color);&quot; color=&quot;#abb2bf&quot;&gt;&amp;nbsp;&lt;/font&gt;&lt;font style=&quot;border-color: var(--border-color);&quot; color=&quot;#e06c75&quot;&gt;getLocationInGridTuile()&lt;/font&gt;&lt;font style=&quot;border-color: var(--border-color);&quot; color=&quot;#abb2bf&quot;&gt;&amp;nbsp;: Coordonnee&lt;br&gt;&lt;/font&gt;&lt;font style=&quot;border-color: var(--border-color);&quot; color=&quot;#cda2be&quot;&gt;+&lt;/font&gt;&lt;font style=&quot;border-color: var(--border-color);&quot; color=&quot;#abb2bf&quot;&gt;&amp;nbsp;&lt;/font&gt;&lt;font style=&quot;border-color: var(--border-color);&quot; color=&quot;#e06c75&quot;&gt;getLocationInGridHexagone()&lt;/font&gt;&lt;font style=&quot;border-color: var(--border-color);&quot; color=&quot;#abb2bf&quot;&gt;&amp;nbsp;: Coordonnee&lt;br&gt;&lt;/font&gt;&lt;font style=&quot;border-color: var(--border-color);&quot; color=&quot;#cda2be&quot;&gt;+&lt;/font&gt;&lt;font style=&quot;border-color: var(--border-color);&quot; color=&quot;#abb2bf&quot;&gt;&amp;nbsp;&lt;/font&gt;&lt;font style=&quot;border-color: var(--border-color);&quot; color=&quot;#e06c75&quot;&gt;isTemple()&lt;/font&gt;&lt;font style=&quot;border-color: var(--border-color);&quot; color=&quot;#abb2bf&quot;&gt;&amp;nbsp;: boolean&lt;br&gt;&lt;/font&gt;&lt;font style=&quot;border-color: var(--border-color);&quot; color=&quot;#cda2be&quot;&gt;+&lt;/font&gt;&lt;font style=&quot;border-color: var(--border-color);&quot; color=&quot;#abb2bf&quot;&gt;&amp;nbsp;&lt;/font&gt;&lt;font style=&quot;border-color: var(--border-color);&quot; color=&quot;#e06c75&quot;&gt;toString()&lt;/font&gt;&lt;font style=&quot;border-color: var(--border-color);&quot; color=&quot;#abb2bf&quot;&gt;&amp;nbsp;: String&lt;br&gt;&lt;/font&gt;&lt;font style=&quot;border-color: var(--border-color);&quot; color=&quot;#cda2be&quot;&gt;+&lt;/font&gt;&lt;font style=&quot;border-color: var(--border-color);&quot; color=&quot;#abb2bf&quot;&gt;&amp;nbsp;&lt;/font&gt;&lt;font style=&quot;border-color: var(--border-color);&quot; color=&quot;#e06c75&quot;&gt;toStringPartiel()&lt;/font&gt;&lt;font style=&quot;border-color: var(--border-color);&quot; color=&quot;#abb2bf&quot;&gt;&amp;nbsp;: String&lt;/font&gt;&lt;br&gt;&lt;/font&gt;" style="text;strokeColor=none;fillColor=none;align=left;verticalAlign=top;spacingLeft=4;spacingRight=4;overflow=hidden;rotatable=0;points=[[0,0.5],[1,0.5]];portConstraint=eastwest;whiteSpace=wrap;html=1;" vertex="1" parent="735r7jLbl9bYlSU7Me6_-118">
          <mxGeometry y="88" width="270" height="212" as="geometry" />
        </mxCell>
        <mxCell id="735r7jLbl9bYlSU7Me6_-202" value="&amp;lt;&amp;lt;extends&amp;gt;&amp;gt;" style="edgeStyle=orthogonalEdgeStyle;rounded=0;orthogonalLoop=1;jettySize=auto;html=1;exitX=0.75;exitY=0;exitDx=0;exitDy=0;entryX=1.016;entryY=0.296;entryDx=0;entryDy=0;entryPerimeter=0;" edge="1" parent="1" source="735r7jLbl9bYlSU7Me6_-122" target="735r7jLbl9bYlSU7Me6_-117">
          <mxGeometry relative="1" as="geometry" />
        </mxCell>
        <mxCell id="735r7jLbl9bYlSU7Me6_-122" value="TuileTemple" style="swimlane;fontStyle=1;align=center;verticalAlign=top;childLayout=stackLayout;horizontal=1;startSize=26;horizontalStack=0;resizeParent=1;resizeParentMax=0;resizeLast=0;collapsible=1;marginBottom=0;whiteSpace=wrap;html=1;" vertex="1" parent="1">
          <mxGeometry x="1980" y="1042" width="230" height="160" as="geometry" />
        </mxCell>
        <mxCell id="735r7jLbl9bYlSU7Me6_-123" value="&lt;font style=&quot;border-color: var(--border-color);&quot; color=&quot;#cda2be&quot;&gt;/&lt;/font&gt;&lt;font style=&quot;border-color: var(--border-color); color: rgb(171, 178, 191);&quot; color=&quot;#abb2bf&quot;&gt;&amp;nbsp;&lt;/font&gt;&lt;font style=&quot;border-color: var(--border-color);&quot; color=&quot;#e06c75&quot;&gt;proprietaire&lt;/font&gt;&lt;font style=&quot;border-color: var(--border-color); color: rgb(171, 178, 191);&quot; color=&quot;#abb2bf&quot;&gt;&amp;nbsp;: Joueur&lt;br&gt;&lt;font style=&quot;border-color: var(--border-color);&quot; color=&quot;#cda2be&quot;&gt;/&lt;/font&gt;&lt;font style=&quot;border-color: var(--border-color);&quot; color=&quot;#abb2bf&quot;&gt;&amp;nbsp;&lt;/font&gt;&lt;font style=&quot;border-color: var(--border-color);&quot; color=&quot;#e06c75&quot;&gt;type&lt;/font&gt;&lt;font style=&quot;border-color: var(--border-color);&quot; color=&quot;#abb2bf&quot;&gt;&amp;nbsp;: int&lt;/font&gt;&lt;br&gt;&lt;/font&gt;" style="text;strokeColor=none;fillColor=none;align=left;verticalAlign=top;spacingLeft=4;spacingRight=4;overflow=hidden;rotatable=0;points=[[0,0.5],[1,0.5]];portConstraint=eastwest;whiteSpace=wrap;html=1;" vertex="1" parent="735r7jLbl9bYlSU7Me6_-122">
          <mxGeometry y="26" width="230" height="34" as="geometry" />
        </mxCell>
        <mxCell id="735r7jLbl9bYlSU7Me6_-124" value="" style="line;strokeWidth=1;fillColor=none;align=left;verticalAlign=middle;spacingTop=-1;spacingLeft=3;spacingRight=3;rotatable=0;labelPosition=right;points=[];portConstraint=eastwest;strokeColor=inherit;" vertex="1" parent="735r7jLbl9bYlSU7Me6_-122">
          <mxGeometry y="60" width="230" height="8" as="geometry" />
        </mxCell>
        <mxCell id="735r7jLbl9bYlSU7Me6_-125" value="&lt;font style=&quot;border-color: var(--border-color);&quot; color=&quot;#cda2be&quot;&gt;+&lt;/font&gt;&lt;font style=&quot;border-color: var(--border-color); color: rgb(171, 178, 191);&quot; color=&quot;#abb2bf&quot;&gt;&amp;nbsp;&lt;/font&gt;&lt;font style=&quot;border-color: var(--border-color);&quot; color=&quot;#e06c75&quot;&gt;getProprietaire()&lt;/font&gt;&lt;font style=&quot;border-color: var(--border-color); color: rgb(171, 178, 191);&quot; color=&quot;#abb2bf&quot;&gt;&amp;nbsp;: Joueur&lt;br&gt;&lt;font style=&quot;border-color: var(--border-color);&quot; color=&quot;#cda2be&quot;&gt;-&lt;/font&gt;&lt;font style=&quot;border-color: var(--border-color);&quot; color=&quot;#abb2bf&quot;&gt;&amp;nbsp;&lt;/font&gt;&lt;font style=&quot;border-color: var(--border-color);&quot; color=&quot;#e06c75&quot;&gt;setTemple(int)&lt;/font&gt;&lt;font style=&quot;border-color: var(--border-color);&quot; color=&quot;#abb2bf&quot;&gt;&amp;nbsp;: void&lt;br&gt;&lt;/font&gt;&lt;font style=&quot;border-color: var(--border-color);&quot; color=&quot;#cda2be&quot;&gt;-&lt;/font&gt;&lt;font style=&quot;border-color: var(--border-color);&quot; color=&quot;#abb2bf&quot;&gt;&amp;nbsp;&lt;/font&gt;&lt;font style=&quot;border-color: var(--border-color);&quot; color=&quot;#e06c75&quot;&gt;setTempleColors(Couleurs, Couleurs, Couleurs)&lt;/font&gt;&lt;font style=&quot;border-color: var(--border-color);&quot; color=&quot;#abb2bf&quot;&gt;&amp;nbsp;: void&lt;br&gt;&lt;/font&gt;&lt;font style=&quot;border-color: var(--border-color);&quot; color=&quot;#cda2be&quot;&gt;+&lt;/font&gt;&lt;font style=&quot;border-color: var(--border-color);&quot; color=&quot;#abb2bf&quot;&gt;&amp;nbsp;&lt;/font&gt;&lt;font style=&quot;border-color: var(--border-color);&quot; color=&quot;#e06c75&quot;&gt;rotate()&lt;/font&gt;&lt;font style=&quot;border-color: var(--border-color);&quot; color=&quot;#abb2bf&quot;&gt;&amp;nbsp;: void&lt;br&gt;&lt;/font&gt;&lt;font style=&quot;border-color: var(--border-color);&quot; color=&quot;#cda2be&quot;&gt;+&lt;/font&gt;&lt;font style=&quot;border-color: var(--border-color);&quot; color=&quot;#abb2bf&quot;&gt;&amp;nbsp;&lt;/font&gt;&lt;font style=&quot;border-color: var(--border-color);&quot; color=&quot;#e06c75&quot;&gt;getRotation()&lt;/font&gt;&lt;font style=&quot;border-color: var(--border-color);&quot; color=&quot;#abb2bf&quot;&gt;&amp;nbsp;: TuileTemple&lt;/font&gt;&lt;br&gt;&lt;/font&gt;" style="text;strokeColor=none;fillColor=none;align=left;verticalAlign=top;spacingLeft=4;spacingRight=4;overflow=hidden;rotatable=0;points=[[0,0.5],[1,0.5]];portConstraint=eastwest;whiteSpace=wrap;html=1;" vertex="1" parent="735r7jLbl9bYlSU7Me6_-122">
          <mxGeometry y="68" width="230" height="92" as="geometry" />
        </mxCell>
        <mxCell id="735r7jLbl9bYlSU7Me6_-127" value="" style="shape=folder;fontStyle=1;spacingTop=10;tabWidth=40;tabHeight=14;tabPosition=left;html=1;whiteSpace=wrap;" vertex="1" parent="1">
          <mxGeometry x="2240" y="570" width="330" height="820" as="geometry" />
        </mxCell>
        <mxCell id="735r7jLbl9bYlSU7Me6_-133" value="&lt;span style=&quot;font-weight: normal;&quot;&gt;&amp;lt;&amp;lt;interface&amp;gt;&amp;gt;&lt;/span&gt;&amp;nbsp;&lt;br&gt;ColorSwitcher" style="swimlane;fontStyle=1;align=center;verticalAlign=top;childLayout=stackLayout;horizontal=1;startSize=40;horizontalStack=0;resizeParent=1;resizeParentMax=0;resizeLast=0;collapsible=1;marginBottom=0;whiteSpace=wrap;html=1;" vertex="1" parent="1">
          <mxGeometry x="2260" y="610" width="230" height="100" as="geometry" />
        </mxCell>
        <mxCell id="735r7jLbl9bYlSU7Me6_-135" value="" style="line;strokeWidth=1;fillColor=none;align=left;verticalAlign=middle;spacingTop=-1;spacingLeft=3;spacingRight=3;rotatable=0;labelPosition=right;points=[];portConstraint=eastwest;strokeColor=inherit;" vertex="1" parent="735r7jLbl9bYlSU7Me6_-133">
          <mxGeometry y="40" width="230" height="8" as="geometry" />
        </mxCell>
        <mxCell id="735r7jLbl9bYlSU7Me6_-136" value="&lt;font style=&quot;border-color: var(--border-color);&quot; color=&quot;#cda2be&quot;&gt;+&lt;/font&gt;&lt;font style=&quot;border-color: var(--border-color); color: rgb(171, 178, 191);&quot; color=&quot;#abb2bf&quot;&gt;&amp;nbsp;&lt;/font&gt;&lt;font style=&quot;border-color: var(--border-color);&quot; color=&quot;#e06c75&quot;&gt;&lt;u&gt;toCouleurs(Color)&lt;/u&gt;&lt;/font&gt;&lt;font style=&quot;border-color: var(--border-color); color: rgb(171, 178, 191);&quot; color=&quot;#abb2bf&quot;&gt;&amp;nbsp;: Couleurs&lt;br&gt;&lt;font style=&quot;border-color: var(--border-color);&quot; color=&quot;#cda2be&quot;&gt;-&lt;/font&gt;&lt;font style=&quot;border-color: var(--border-color);&quot; color=&quot;#abb2bf&quot;&gt;&amp;nbsp;&lt;/font&gt;&lt;font style=&quot;border-color: var(--border-color);&quot; color=&quot;#e06c75&quot;&gt;&lt;u&gt;toColor(Couleurs)&lt;/u&gt;&lt;/font&gt;&lt;font style=&quot;border-color: var(--border-color);&quot; color=&quot;#abb2bf&quot;&gt;&amp;nbsp;: Color&lt;/font&gt;&lt;br&gt;&lt;/font&gt;" style="text;strokeColor=none;fillColor=none;align=left;verticalAlign=top;spacingLeft=4;spacingRight=4;overflow=hidden;rotatable=0;points=[[0,0.5],[1,0.5]];portConstraint=eastwest;whiteSpace=wrap;html=1;" vertex="1" parent="735r7jLbl9bYlSU7Me6_-133">
          <mxGeometry y="48" width="230" height="52" as="geometry" />
        </mxCell>
        <mxCell id="735r7jLbl9bYlSU7Me6_-137" value="&lt;span style=&quot;font-weight: normal;&quot;&gt;&amp;lt;&amp;lt;interface&amp;gt;&amp;gt;&lt;/span&gt;&amp;nbsp;&lt;br&gt;Copy&amp;lt;T&amp;gt;" style="swimlane;fontStyle=1;align=center;verticalAlign=top;childLayout=stackLayout;horizontal=1;startSize=40;horizontalStack=0;resizeParent=1;resizeParentMax=0;resizeLast=0;collapsible=1;marginBottom=0;whiteSpace=wrap;html=1;" vertex="1" parent="1">
          <mxGeometry x="2310" y="740" width="150" height="80" as="geometry" />
        </mxCell>
        <mxCell id="735r7jLbl9bYlSU7Me6_-138" value="" style="line;strokeWidth=1;fillColor=none;align=left;verticalAlign=middle;spacingTop=-1;spacingLeft=3;spacingRight=3;rotatable=0;labelPosition=right;points=[];portConstraint=eastwest;strokeColor=inherit;" vertex="1" parent="735r7jLbl9bYlSU7Me6_-137">
          <mxGeometry y="40" width="150" height="8" as="geometry" />
        </mxCell>
        <mxCell id="735r7jLbl9bYlSU7Me6_-139" value="&lt;font style=&quot;border-color: var(--border-color);&quot; color=&quot;#cda2be&quot;&gt;+&lt;/font&gt;&lt;font style=&quot;border-color: var(--border-color); color: rgb(171, 178, 191);&quot; color=&quot;#abb2bf&quot;&gt;&amp;nbsp;&lt;/font&gt;&lt;font style=&quot;border-color: var(--border-color);&quot; color=&quot;#e06c75&quot;&gt;copy()&lt;/font&gt;&lt;font style=&quot;border-color: var(--border-color); color: rgb(171, 178, 191);&quot; color=&quot;#abb2bf&quot;&gt;&amp;nbsp;: T&lt;br&gt;&lt;/font&gt;" style="text;strokeColor=none;fillColor=none;align=left;verticalAlign=top;spacingLeft=4;spacingRight=4;overflow=hidden;rotatable=0;points=[[0,0.5],[1,0.5]];portConstraint=eastwest;whiteSpace=wrap;html=1;" vertex="1" parent="735r7jLbl9bYlSU7Me6_-137">
          <mxGeometry y="48" width="150" height="32" as="geometry" />
        </mxCell>
        <mxCell id="735r7jLbl9bYlSU7Me6_-140" value="&lt;span style=&quot;font-weight: normal;&quot;&gt;&amp;lt;&amp;lt;interface&amp;gt;&amp;gt;&lt;/span&gt;&amp;nbsp;&lt;br&gt;DeplacementPion" style="swimlane;fontStyle=1;align=center;verticalAlign=top;childLayout=stackLayout;horizontal=1;startSize=40;horizontalStack=0;resizeParent=1;resizeParentMax=0;resizeLast=0;collapsible=1;marginBottom=0;whiteSpace=wrap;html=1;" vertex="1" parent="1">
          <mxGeometry x="2280" y="850" width="230" height="100" as="geometry" />
        </mxCell>
        <mxCell id="735r7jLbl9bYlSU7Me6_-141" value="" style="line;strokeWidth=1;fillColor=none;align=left;verticalAlign=middle;spacingTop=-1;spacingLeft=3;spacingRight=3;rotatable=0;labelPosition=right;points=[];portConstraint=eastwest;strokeColor=inherit;" vertex="1" parent="735r7jLbl9bYlSU7Me6_-140">
          <mxGeometry y="40" width="230" height="8" as="geometry" />
        </mxCell>
        <mxCell id="735r7jLbl9bYlSU7Me6_-142" value="&lt;font style=&quot;border-color: var(--border-color);&quot; color=&quot;#cda2be&quot;&gt;+&lt;/font&gt;&lt;font style=&quot;border-color: var(--border-color); color: rgb(171, 178, 191);&quot; color=&quot;#abb2bf&quot;&gt;&amp;nbsp;&lt;/font&gt;&lt;font style=&quot;border-color: var(--border-color);&quot; color=&quot;#e06c75&quot;&gt;canMoveLocations(Pion)&lt;/font&gt;&lt;font style=&quot;border-color: var(--border-color); color: rgb(171, 178, 191);&quot; color=&quot;#abb2bf&quot;&gt;&amp;nbsp;: ArrayList&amp;lt;Coordonnee&amp;gt;&lt;br&gt;&lt;/font&gt;" style="text;strokeColor=none;fillColor=none;align=left;verticalAlign=top;spacingLeft=4;spacingRight=4;overflow=hidden;rotatable=0;points=[[0,0.5],[1,0.5]];portConstraint=eastwest;whiteSpace=wrap;html=1;" vertex="1" parent="735r7jLbl9bYlSU7Me6_-140">
          <mxGeometry y="48" width="230" height="52" as="geometry" />
        </mxCell>
        <mxCell id="735r7jLbl9bYlSU7Me6_-143" value="&lt;span style=&quot;font-weight: normal;&quot;&gt;&amp;lt;&amp;lt;interface&amp;gt;&amp;gt;&lt;/span&gt;&amp;nbsp;&lt;br&gt;HexagoneAutour" style="swimlane;fontStyle=1;align=center;verticalAlign=top;childLayout=stackLayout;horizontal=1;startSize=40;horizontalStack=0;resizeParent=1;resizeParentMax=0;resizeLast=0;collapsible=1;marginBottom=0;whiteSpace=wrap;html=1;" vertex="1" parent="1">
          <mxGeometry x="2270" y="970" width="230" height="100" as="geometry" />
        </mxCell>
        <mxCell id="735r7jLbl9bYlSU7Me6_-144" value="" style="line;strokeWidth=1;fillColor=none;align=left;verticalAlign=middle;spacingTop=-1;spacingLeft=3;spacingRight=3;rotatable=0;labelPosition=right;points=[];portConstraint=eastwest;strokeColor=inherit;" vertex="1" parent="735r7jLbl9bYlSU7Me6_-143">
          <mxGeometry y="40" width="230" height="8" as="geometry" />
        </mxCell>
        <mxCell id="735r7jLbl9bYlSU7Me6_-145" value="&lt;font style=&quot;border-color: var(--border-color);&quot; color=&quot;#cda2be&quot;&gt;+&lt;/font&gt;&lt;font style=&quot;border-color: var(--border-color); color: rgb(171, 178, 191);&quot; color=&quot;#abb2bf&quot;&gt;&amp;nbsp;&lt;/font&gt;&lt;font style=&quot;border-color: var(--border-color);&quot; color=&quot;#e06c75&quot;&gt;&lt;u&gt;getList(Coordonnee)&lt;/u&gt;&lt;/font&gt;&lt;font style=&quot;border-color: var(--border-color); color: rgb(171, 178, 191);&quot; color=&quot;#abb2bf&quot;&gt;&amp;nbsp;: ArrayList&amp;lt;Coordonnee&amp;gt;&lt;br&gt;&lt;font style=&quot;border-color: var(--border-color);&quot; color=&quot;#cda2be&quot;&gt;-&lt;/font&gt;&lt;font style=&quot;border-color: var(--border-color);&quot; color=&quot;#abb2bf&quot;&gt;&amp;nbsp;&lt;/font&gt;&lt;font style=&quot;border-color: var(--border-color);&quot; color=&quot;#e06c75&quot;&gt;&lt;u&gt;get(Coordonnee)&lt;/u&gt;&lt;/font&gt;&lt;font style=&quot;border-color: var(--border-color);&quot; color=&quot;#abb2bf&quot;&gt;&amp;nbsp;: Coordonnee[]&lt;/font&gt;&lt;br&gt;&lt;/font&gt;" style="text;strokeColor=none;fillColor=none;align=left;verticalAlign=top;spacingLeft=4;spacingRight=4;overflow=hidden;rotatable=0;points=[[0,0.5],[1,0.5]];portConstraint=eastwest;whiteSpace=wrap;html=1;" vertex="1" parent="735r7jLbl9bYlSU7Me6_-143">
          <mxGeometry y="48" width="230" height="52" as="geometry" />
        </mxCell>
        <mxCell id="735r7jLbl9bYlSU7Me6_-149" value="&lt;span style=&quot;font-weight: normal;&quot;&gt;&amp;lt;&amp;lt;interface&amp;gt;&amp;gt;&lt;/span&gt;&lt;br&gt;MapCreation" style="swimlane;fontStyle=1;align=center;verticalAlign=top;childLayout=stackLayout;horizontal=1;startSize=40;horizontalStack=0;resizeParent=1;resizeParentMax=0;resizeLast=0;collapsible=1;marginBottom=0;whiteSpace=wrap;html=1;" vertex="1" parent="1">
          <mxGeometry x="2250" y="1101" width="280" height="160" as="geometry" />
        </mxCell>
        <mxCell id="735r7jLbl9bYlSU7Me6_-150" value="&lt;font style=&quot;border-color: var(--border-color);&quot; color=&quot;#cda2be&quot;&gt;+&lt;/font&gt;&lt;font style=&quot;border-color: var(--border-color); color: rgb(171, 178, 191);&quot; color=&quot;#abb2bf&quot;&gt;&amp;nbsp;&lt;/font&gt;&lt;font style=&quot;border-color: var(--border-color);&quot; color=&quot;#e06c75&quot;&gt;&lt;span style=&quot;border-color: var(--border-color);&quot;&gt;MAP1_2PCoordonnees&lt;/span&gt;&lt;/font&gt;&lt;font style=&quot;border-color: var(--border-color); color: rgb(171, 178, 191);&quot; color=&quot;#abb2bf&quot;&gt;&amp;nbsp;: Coordonnee[]&lt;br&gt;&lt;font style=&quot;border-color: var(--border-color);&quot; color=&quot;#cda2be&quot;&gt;+&lt;/font&gt;&lt;font style=&quot;border-color: var(--border-color);&quot; color=&quot;#abb2bf&quot;&gt;&amp;nbsp;&lt;/font&gt;&lt;font style=&quot;border-color: var(--border-color);&quot; color=&quot;#e06c75&quot;&gt;&lt;span style=&quot;border-color: var(--border-color);&quot;&gt;MAP2_2PCoordonnees&lt;/span&gt;&lt;/font&gt;&lt;font style=&quot;border-color: var(--border-color);&quot; color=&quot;#abb2bf&quot;&gt;&amp;nbsp;: Coordonnee[]&lt;br&gt;&lt;/font&gt;&lt;font style=&quot;border-color: var(--border-color);&quot; color=&quot;#cda2be&quot;&gt;+&lt;/font&gt;&lt;font style=&quot;border-color: var(--border-color);&quot; color=&quot;#abb2bf&quot;&gt;&amp;nbsp;&lt;/font&gt;&lt;font style=&quot;border-color: var(--border-color);&quot; color=&quot;#e06c75&quot;&gt;MAP1_4PCoordonnees&lt;/font&gt;&lt;font style=&quot;border-color: var(--border-color);&quot; color=&quot;#abb2bf&quot;&gt;&amp;nbsp;: Coordonnee[]&lt;br&gt;&lt;/font&gt;&lt;font style=&quot;border-color: var(--border-color);&quot; color=&quot;#cda2be&quot;&gt;+&lt;/font&gt;&lt;font style=&quot;border-color: var(--border-color);&quot; color=&quot;#abb2bf&quot;&gt;&amp;nbsp;&lt;/font&gt;&lt;font style=&quot;border-color: var(--border-color);&quot; color=&quot;#e06c75&quot;&gt;MAP2_4PCoordonnees&lt;/font&gt;&lt;font style=&quot;border-color: var(--border-color);&quot; color=&quot;#abb2bf&quot;&gt;&amp;nbsp;: Coordonnee[]&lt;/font&gt;&lt;br&gt;&lt;/font&gt;" style="text;strokeColor=none;fillColor=none;align=left;verticalAlign=top;spacingLeft=4;spacingRight=4;overflow=hidden;rotatable=0;points=[[0,0.5],[1,0.5]];portConstraint=eastwest;whiteSpace=wrap;html=1;" vertex="1" parent="735r7jLbl9bYlSU7Me6_-149">
          <mxGeometry y="40" width="280" height="70" as="geometry" />
        </mxCell>
        <mxCell id="735r7jLbl9bYlSU7Me6_-151" value="" style="line;strokeWidth=1;fillColor=none;align=left;verticalAlign=middle;spacingTop=-1;spacingLeft=3;spacingRight=3;rotatable=0;labelPosition=right;points=[];portConstraint=eastwest;strokeColor=inherit;" vertex="1" parent="735r7jLbl9bYlSU7Me6_-149">
          <mxGeometry y="110" width="280" height="8" as="geometry" />
        </mxCell>
        <mxCell id="735r7jLbl9bYlSU7Me6_-152" value="&lt;font style=&quot;border-color: var(--border-color);&quot; color=&quot;#cda2be&quot;&gt;+&lt;/font&gt;&lt;font style=&quot;border-color: var(--border-color); color: rgb(171, 178, 191);&quot; color=&quot;#abb2bf&quot;&gt;&amp;nbsp;&lt;/font&gt;&lt;font style=&quot;border-color: var(--border-color);&quot; color=&quot;#e06c75&quot;&gt;initMap(Jeu)&lt;/font&gt;&lt;font style=&quot;border-color: var(--border-color); color: rgb(171, 178, 191);&quot; color=&quot;#abb2bf&quot;&gt;&amp;nbsp;: default void&lt;br&gt;&lt;font style=&quot;border-color: var(--border-color);&quot; color=&quot;#cda2be&quot;&gt;+&lt;/font&gt;&lt;font style=&quot;border-color: var(--border-color);&quot; color=&quot;#abb2bf&quot;&gt;&amp;nbsp;&lt;/font&gt;&lt;font style=&quot;border-color: var(--border-color);&quot; color=&quot;#e06c75&quot;&gt;initMAP1_2PDefault(Jeu)&lt;/font&gt;&lt;font style=&quot;border-color: var(--border-color);&quot; color=&quot;#abb2bf&quot;&gt;&amp;nbsp;: default void&lt;/font&gt;&lt;br&gt;&lt;/font&gt;" style="text;strokeColor=none;fillColor=none;align=left;verticalAlign=top;spacingLeft=4;spacingRight=4;overflow=hidden;rotatable=0;points=[[0,0.5],[1,0.5]];portConstraint=eastwest;whiteSpace=wrap;html=1;" vertex="1" parent="735r7jLbl9bYlSU7Me6_-149">
          <mxGeometry y="118" width="280" height="42" as="geometry" />
        </mxCell>
        <mxCell id="735r7jLbl9bYlSU7Me6_-153" value="&lt;span style=&quot;font-weight: normal;&quot;&gt;&amp;lt;&amp;lt;interface&amp;gt;&amp;gt;&lt;/span&gt;&lt;br&gt;TuilesAutour" style="swimlane;fontStyle=1;align=center;verticalAlign=top;childLayout=stackLayout;horizontal=1;startSize=36;horizontalStack=0;resizeParent=1;resizeParentMax=0;resizeLast=0;collapsible=1;marginBottom=0;whiteSpace=wrap;html=1;" vertex="1" parent="1">
          <mxGeometry x="2260" y="1290" width="250" height="70" as="geometry" />
        </mxCell>
        <mxCell id="735r7jLbl9bYlSU7Me6_-155" value="" style="line;strokeWidth=1;fillColor=none;align=left;verticalAlign=middle;spacingTop=-1;spacingLeft=3;spacingRight=3;rotatable=0;labelPosition=right;points=[];portConstraint=eastwest;strokeColor=inherit;" vertex="1" parent="735r7jLbl9bYlSU7Me6_-153">
          <mxGeometry y="36" width="250" height="8" as="geometry" />
        </mxCell>
        <mxCell id="735r7jLbl9bYlSU7Me6_-156" value="&lt;font style=&quot;border-color: var(--border-color);&quot; color=&quot;#cda2be&quot;&gt;+&lt;/font&gt;&lt;font style=&quot;border-color: var(--border-color); color: rgb(171, 178, 191);&quot; color=&quot;#abb2bf&quot;&gt;&amp;nbsp;&lt;/font&gt;&lt;font style=&quot;border-color: var(--border-color);&quot; color=&quot;#e06c75&quot;&gt;&lt;u&gt;get(Coordonnee)&lt;/u&gt;&lt;/font&gt;&lt;font style=&quot;border-color: var(--border-color); color: rgb(171, 178, 191);&quot; color=&quot;#abb2bf&quot;&gt;&amp;nbsp;: Coordonnee[]&lt;/font&gt;" style="text;strokeColor=none;fillColor=none;align=left;verticalAlign=top;spacingLeft=4;spacingRight=4;overflow=hidden;rotatable=0;points=[[0,0.5],[1,0.5]];portConstraint=eastwest;whiteSpace=wrap;html=1;" vertex="1" parent="735r7jLbl9bYlSU7Me6_-153">
          <mxGeometry y="44" width="250" height="26" as="geometry" />
        </mxCell>
        <mxCell id="735r7jLbl9bYlSU7Me6_-157" value="" style="shape=folder;fontStyle=1;spacingTop=10;tabWidth=125;tabHeight=35;tabPosition=left;html=1;whiteSpace=wrap;" vertex="1" parent="1">
          <mxGeometry x="1025" y="1535" width="585" height="310" as="geometry" />
        </mxCell>
        <mxCell id="735r7jLbl9bYlSU7Me6_-158" value="Launcher" style="swimlane;fontStyle=1;align=center;verticalAlign=top;childLayout=stackLayout;horizontal=1;startSize=26;horizontalStack=0;resizeParent=1;resizeParentMax=0;resizeLast=0;collapsible=1;marginBottom=0;whiteSpace=wrap;html=1;" vertex="1" parent="1">
          <mxGeometry x="1220" y="1660" width="200" height="60" as="geometry" />
        </mxCell>
        <mxCell id="735r7jLbl9bYlSU7Me6_-160" value="" style="line;strokeWidth=1;fillColor=none;align=left;verticalAlign=middle;spacingTop=-1;spacingLeft=3;spacingRight=3;rotatable=0;labelPosition=right;points=[];portConstraint=eastwest;strokeColor=inherit;" vertex="1" parent="735r7jLbl9bYlSU7Me6_-158">
          <mxGeometry y="26" width="200" height="8" as="geometry" />
        </mxCell>
        <mxCell id="735r7jLbl9bYlSU7Me6_-161" value="&lt;font style=&quot;border-color: var(--border-color);&quot; color=&quot;#cda2be&quot;&gt;+&lt;/font&gt;&lt;font style=&quot;border-color: var(--border-color); color: rgb(171, 178, 191);&quot; color=&quot;#abb2bf&quot;&gt;&amp;nbsp;&lt;/font&gt;&lt;font style=&quot;border-color: var(--border-color);&quot; color=&quot;#e06c75&quot;&gt;&lt;u&gt;main(String[])&lt;/u&gt;&lt;/font&gt;&lt;font style=&quot;border-color: var(--border-color); color: rgb(171, 178, 191);&quot; color=&quot;#abb2bf&quot;&gt;&amp;nbsp;: void&lt;/font&gt;" style="text;strokeColor=none;fillColor=none;align=left;verticalAlign=top;spacingLeft=4;spacingRight=4;overflow=hidden;rotatable=0;points=[[0,0.5],[1,0.5]];portConstraint=eastwest;whiteSpace=wrap;html=1;" vertex="1" parent="735r7jLbl9bYlSU7Me6_-158">
          <mxGeometry y="34" width="200" height="26" as="geometry" />
        </mxCell>
        <mxCell id="735r7jLbl9bYlSU7Me6_-180" style="edgeStyle=orthogonalEdgeStyle;rounded=0;orthogonalLoop=1;jettySize=auto;html=1;" edge="1" parent="1" source="T5wfUOfI6vKbs9WQwN0E-25" target="735r7jLbl9bYlSU7Me6_-17">
          <mxGeometry relative="1" as="geometry">
            <Array as="points">
              <mxPoint x="240" y="820" />
              <mxPoint x="670" y="820" />
            </Array>
          </mxGeometry>
        </mxCell>
        <mxCell id="735r7jLbl9bYlSU7Me6_-181" value="&amp;lt;&amp;lt;extends&amp;gt;&amp;gt;" style="edgeLabel;html=1;align=center;verticalAlign=middle;resizable=0;points=[];" vertex="1" connectable="0" parent="735r7jLbl9bYlSU7Me6_-180">
          <mxGeometry x="0.2789" y="-1" relative="1" as="geometry">
            <mxPoint as="offset" />
          </mxGeometry>
        </mxCell>
        <mxCell id="735r7jLbl9bYlSU7Me6_-188" value="&amp;lt;&amp;lt;extends&amp;gt;&amp;gt;" style="edgeStyle=orthogonalEdgeStyle;rounded=0;orthogonalLoop=1;jettySize=auto;html=1;" edge="1" parent="1" source="T5wfUOfI6vKbs9WQwN0E-12" target="735r7jLbl9bYlSU7Me6_-43">
          <mxGeometry relative="1" as="geometry">
            <Array as="points">
              <mxPoint x="853" y="234" />
              <mxPoint x="853" y="120" />
            </Array>
          </mxGeometry>
        </mxCell>
        <mxCell id="735r7jLbl9bYlSU7Me6_-192" style="edgeStyle=orthogonalEdgeStyle;rounded=0;orthogonalLoop=1;jettySize=auto;html=1;exitX=0;exitY=0.5;exitDx=0;exitDy=0;entryX=1;entryY=0.5;entryDx=0;entryDy=0;" edge="1" parent="1" source="735r7jLbl9bYlSU7Me6_-68" target="735r7jLbl9bYlSU7Me6_-139">
          <mxGeometry relative="1" as="geometry">
            <Array as="points">
              <mxPoint x="1300" y="745" />
              <mxPoint x="1300" y="1410" />
              <mxPoint x="2630" y="1410" />
              <mxPoint x="2630" y="804" />
            </Array>
          </mxGeometry>
        </mxCell>
        <mxCell id="735r7jLbl9bYlSU7Me6_-193" value="&amp;lt;&amp;lt;implements&amp;gt;&amp;gt;" style="edgeLabel;html=1;align=center;verticalAlign=middle;resizable=0;points=[];" vertex="1" connectable="0" parent="735r7jLbl9bYlSU7Me6_-192">
          <mxGeometry x="-0.0921" relative="1" as="geometry">
            <mxPoint x="-1" as="offset" />
          </mxGeometry>
        </mxCell>
        <mxCell id="735r7jLbl9bYlSU7Me6_-199" value="&amp;lt;&amp;lt;extends&amp;gt;&amp;gt;" style="edgeStyle=orthogonalEdgeStyle;rounded=0;orthogonalLoop=1;jettySize=auto;html=1;exitX=0;exitY=0.5;exitDx=0;exitDy=0;entryX=1.001;entryY=0.385;entryDx=0;entryDy=0;entryPerimeter=0;" edge="1" parent="1" source="735r7jLbl9bYlSU7Me6_-94" target="735r7jLbl9bYlSU7Me6_-86">
          <mxGeometry relative="1" as="geometry" />
        </mxCell>
        <mxCell id="735r7jLbl9bYlSU7Me6_-200" style="edgeStyle=orthogonalEdgeStyle;rounded=0;orthogonalLoop=1;jettySize=auto;html=1;exitX=1;exitY=0.5;exitDx=0;exitDy=0;entryX=1;entryY=0.5;entryDx=0;entryDy=0;" edge="1" parent="1" source="735r7jLbl9bYlSU7Me6_-109" target="735r7jLbl9bYlSU7Me6_-142">
          <mxGeometry relative="1" as="geometry" />
        </mxCell>
        <mxCell id="735r7jLbl9bYlSU7Me6_-201" value="&amp;lt;&amp;lt;implements&amp;gt;&amp;gt;" style="edgeLabel;html=1;align=center;verticalAlign=middle;resizable=0;points=[];" vertex="1" connectable="0" parent="735r7jLbl9bYlSU7Me6_-200">
          <mxGeometry x="-0.4019" y="-4" relative="1" as="geometry">
            <mxPoint y="1" as="offset" />
          </mxGeometry>
        </mxCell>
        <mxCell id="735r7jLbl9bYlSU7Me6_-203" value="model" style="text;html=1;strokeColor=none;fillColor=none;align=center;verticalAlign=middle;whiteSpace=wrap;rounded=0;" vertex="1" parent="1">
          <mxGeometry x="1300" y="16" width="60" height="40" as="geometry" />
        </mxCell>
        <mxCell id="735r7jLbl9bYlSU7Me6_-205" value="gui" style="text;html=1;strokeColor=none;fillColor=none;align=center;verticalAlign=middle;whiteSpace=wrap;rounded=0;" vertex="1" parent="1">
          <mxGeometry x="30" y="21" width="60" height="30" as="geometry" />
        </mxCell>
        <mxCell id="735r7jLbl9bYlSU7Me6_-207" value="launcher" style="text;html=1;strokeColor=none;fillColor=none;align=center;verticalAlign=middle;whiteSpace=wrap;rounded=0;" vertex="1" parent="1">
          <mxGeometry x="1030" y="1540" width="60" height="30" as="geometry" />
        </mxCell>
      </root>
    </mxGraphModel>
  </diagram>
</mxfile>
